<mxfile host="65bd71144e">
    <diagram id="94W7TybBtprLZWba6eNM" name="HSMS Message">
        <mxGraphModel dx="791" dy="593" grid="1" gridSize="10" guides="1" tooltips="1" connect="1" arrows="1" fold="1" page="0" pageScale="1" pageWidth="827" pageHeight="1169" math="0" shadow="0">
            <root>
                <mxCell id="0"/>
                <mxCell id="1" parent="0"/>
                <mxCell id="bDOfl30Lk7sTRHTIDUXi-18" value="" style="group;movable=0;resizable=0;rotatable=0;deletable=0;editable=0;connectable=0;" parent="1" vertex="1" connectable="0">
                    <mxGeometry x="760" y="120" width="880" height="320" as="geometry"/>
                </mxCell>
                <mxCell id="bDOfl30Lk7sTRHTIDUXi-3" value="&lt;font color=&quot;#0000ff&quot;&gt;MessageLength&lt;/font&gt;.GetLength_Message()" style="rounded=1;whiteSpace=wrap;html=1;fontFamily=Comic Sans MS;fillColor=#d80073;fontColor=#ffffff;strokeColor=#A50040;fontSize=18;movable=0;resizable=0;rotatable=0;deletable=0;editable=0;connectable=0;container=0;" parent="bDOfl30Lk7sTRHTIDUXi-18" vertex="1">
                    <mxGeometry x="400" width="440" height="40" as="geometry"/>
                </mxCell>
                <mxCell id="bDOfl30Lk7sTRHTIDUXi-4" value="" style="edgeStyle=elbowEdgeStyle;html=1;movable=0;resizable=0;rotatable=0;deletable=0;editable=0;connectable=0;" parent="bDOfl30Lk7sTRHTIDUXi-18" source="scNVsLxmT9Py_PAUhD3m-36" target="bDOfl30Lk7sTRHTIDUXi-3" edge="1">
                    <mxGeometry relative="1" as="geometry"/>
                </mxCell>
                <mxCell id="scNVsLxmT9Py_PAUhD3m-35" value="Data Message" style="rounded=1;whiteSpace=wrap;html=1;fontFamily=Comic Sans MS;fillColor=#60a917;fontColor=#ffffff;strokeColor=#2D7600;fontSize=18;movable=0;resizable=0;rotatable=0;deletable=0;editable=0;connectable=0;container=0;" parent="bDOfl30Lk7sTRHTIDUXi-18" vertex="1">
                    <mxGeometry y="160" width="120" height="40" as="geometry"/>
                </mxCell>
                <mxCell id="scNVsLxmT9Py_PAUhD3m-36" value="Message Length" style="rounded=1;whiteSpace=wrap;html=1;fontFamily=Comic Sans MS;fillColor=#1ba1e2;fontColor=#ffffff;strokeColor=#006EAF;fontSize=18;movable=0;resizable=0;rotatable=0;deletable=0;editable=0;connectable=0;container=0;" parent="bDOfl30Lk7sTRHTIDUXi-18" vertex="1">
                    <mxGeometry x="200" width="120" height="40" as="geometry"/>
                </mxCell>
                <mxCell id="scNVsLxmT9Py_PAUhD3m-32" style="edgeStyle=elbowEdgeStyle;html=1;exitX=1;exitY=0.5;exitDx=0;exitDy=0;entryX=0;entryY=0.5;entryDx=0;entryDy=0;fontFamily=Comic Sans MS;fontSize=18;fontColor=default;movable=0;resizable=0;rotatable=0;deletable=0;editable=0;connectable=0;" parent="bDOfl30Lk7sTRHTIDUXi-18" source="scNVsLxmT9Py_PAUhD3m-35" target="scNVsLxmT9Py_PAUhD3m-36" edge="1">
                    <mxGeometry relative="1" as="geometry"/>
                </mxCell>
                <mxCell id="scNVsLxmT9Py_PAUhD3m-37" value="Message Header" style="rounded=1;whiteSpace=wrap;html=1;fontFamily=Comic Sans MS;fillColor=#1ba1e2;fontColor=#ffffff;strokeColor=#006EAF;fontSize=18;movable=0;resizable=0;rotatable=0;deletable=0;editable=0;connectable=0;container=0;" parent="bDOfl30Lk7sTRHTIDUXi-18" vertex="1">
                    <mxGeometry x="200" y="100" width="120" height="40" as="geometry"/>
                </mxCell>
                <mxCell id="scNVsLxmT9Py_PAUhD3m-33" style="edgeStyle=elbowEdgeStyle;html=1;entryX=0;entryY=0.5;entryDx=0;entryDy=0;fontFamily=Comic Sans MS;fontSize=18;fontColor=default;exitX=1;exitY=0.5;exitDx=0;exitDy=0;movable=0;resizable=0;rotatable=0;deletable=0;editable=0;connectable=0;" parent="bDOfl30Lk7sTRHTIDUXi-18" source="scNVsLxmT9Py_PAUhD3m-35" target="scNVsLxmT9Py_PAUhD3m-37" edge="1">
                    <mxGeometry relative="1" as="geometry"/>
                </mxCell>
                <mxCell id="scNVsLxmT9Py_PAUhD3m-40" value="Message Text" style="rounded=1;whiteSpace=wrap;html=1;fontFamily=Comic Sans MS;fillColor=#1ba1e2;fontColor=#ffffff;strokeColor=#006EAF;fontSize=18;movable=0;resizable=0;rotatable=0;deletable=0;editable=0;connectable=0;container=0;" parent="bDOfl30Lk7sTRHTIDUXi-18" vertex="1">
                    <mxGeometry x="200" y="240" width="120" height="40" as="geometry"/>
                </mxCell>
                <mxCell id="scNVsLxmT9Py_PAUhD3m-34" style="edgeStyle=elbowEdgeStyle;html=1;exitX=1;exitY=0.5;exitDx=0;exitDy=0;entryX=0;entryY=0.5;entryDx=0;entryDy=0;fontFamily=Comic Sans MS;fontSize=18;fontColor=default;movable=0;resizable=0;rotatable=0;deletable=0;editable=0;connectable=0;" parent="bDOfl30Lk7sTRHTIDUXi-18" source="scNVsLxmT9Py_PAUhD3m-35" target="scNVsLxmT9Py_PAUhD3m-40" edge="1">
                    <mxGeometry relative="1" as="geometry"/>
                </mxCell>
                <mxCell id="scNVsLxmT9Py_PAUhD3m-41" value="Item Header" style="rounded=1;whiteSpace=wrap;html=1;fontFamily=Comic Sans MS;fillColor=#e3c800;fontColor=#000000;strokeColor=#B09500;fontSize=18;movable=0;resizable=0;rotatable=0;deletable=0;editable=0;connectable=0;container=0;" parent="bDOfl30Lk7sTRHTIDUXi-18" vertex="1">
                    <mxGeometry x="400" y="210" width="120" height="40" as="geometry"/>
                </mxCell>
                <mxCell id="scNVsLxmT9Py_PAUhD3m-38" value="" style="edgeStyle=elbowEdgeStyle;html=1;fontFamily=Comic Sans MS;fontSize=18;fontColor=default;movable=0;resizable=0;rotatable=0;deletable=0;editable=0;connectable=0;" parent="bDOfl30Lk7sTRHTIDUXi-18" source="scNVsLxmT9Py_PAUhD3m-40" target="scNVsLxmT9Py_PAUhD3m-41" edge="1">
                    <mxGeometry relative="1" as="geometry"/>
                </mxCell>
                <mxCell id="scNVsLxmT9Py_PAUhD3m-42" value="Item Body" style="rounded=1;whiteSpace=wrap;html=1;fontFamily=Comic Sans MS;fillColor=#e3c800;fontColor=#000000;strokeColor=#B09500;fontSize=18;movable=0;resizable=0;rotatable=0;deletable=0;editable=0;connectable=0;container=0;" parent="bDOfl30Lk7sTRHTIDUXi-18" vertex="1">
                    <mxGeometry x="400" y="280" width="120" height="40" as="geometry"/>
                </mxCell>
                <mxCell id="scNVsLxmT9Py_PAUhD3m-39" style="edgeStyle=elbowEdgeStyle;html=1;exitX=1;exitY=0.5;exitDx=0;exitDy=0;fontFamily=Comic Sans MS;fontSize=18;fontColor=default;movable=0;resizable=0;rotatable=0;deletable=0;editable=0;connectable=0;" parent="bDOfl30Lk7sTRHTIDUXi-18" source="scNVsLxmT9Py_PAUhD3m-40" target="scNVsLxmT9Py_PAUhD3m-42" edge="1">
                    <mxGeometry relative="1" as="geometry"/>
                </mxCell>
                <mxCell id="bDOfl30Lk7sTRHTIDUXi-10" value="&lt;font color=&quot;#0000ff&quot;&gt;MessageHeader&lt;/font&gt;.GetHeader_PrimaryMessage()&lt;span style=&quot;white-space: pre;&quot;&gt;&#9;&lt;/span&gt;" style="rounded=1;whiteSpace=wrap;html=1;fontFamily=Comic Sans MS;fillColor=#d80073;fontColor=#ffffff;strokeColor=#A50040;fontSize=16;container=0;movable=0;resizable=0;rotatable=0;deletable=0;editable=0;connectable=0;" parent="bDOfl30Lk7sTRHTIDUXi-18" vertex="1">
                    <mxGeometry x="400" y="70" width="440" height="40" as="geometry"/>
                </mxCell>
                <mxCell id="bDOfl30Lk7sTRHTIDUXi-13" style="edgeStyle=elbowEdgeStyle;html=1;entryX=0;entryY=0.5;entryDx=0;entryDy=0;movable=0;resizable=0;rotatable=0;deletable=0;editable=0;connectable=0;" parent="bDOfl30Lk7sTRHTIDUXi-18" source="scNVsLxmT9Py_PAUhD3m-37" target="bDOfl30Lk7sTRHTIDUXi-10" edge="1">
                    <mxGeometry relative="1" as="geometry"/>
                </mxCell>
                <mxCell id="bDOfl30Lk7sTRHTIDUXi-11" value="&lt;font color=&quot;#0000ff&quot;&gt;MessageHeader&lt;/font&gt;.GetHeader_SecondaryMessage()" style="rounded=1;whiteSpace=wrap;html=1;fontFamily=Comic Sans MS;fillColor=#d80073;fontColor=#ffffff;strokeColor=#A50040;fontSize=16;container=0;movable=0;resizable=0;rotatable=0;deletable=0;editable=0;connectable=0;" parent="bDOfl30Lk7sTRHTIDUXi-18" vertex="1">
                    <mxGeometry x="400" y="130" width="440" height="40" as="geometry"/>
                </mxCell>
                <mxCell id="bDOfl30Lk7sTRHTIDUXi-14" value="&lt;font color=&quot;#0000ff&quot;&gt;BaseSecsStruct&lt;/font&gt;.GetItemHeader()" style="rounded=1;whiteSpace=wrap;html=1;fontFamily=Comic Sans MS;fillColor=#d80073;fontColor=#ffffff;strokeColor=#A50040;fontSize=18;movable=0;resizable=0;rotatable=0;deletable=0;editable=0;connectable=0;container=0;" parent="bDOfl30Lk7sTRHTIDUXi-18" vertex="1">
                    <mxGeometry x="560" y="210" width="320" height="40" as="geometry"/>
                </mxCell>
                <mxCell id="bDOfl30Lk7sTRHTIDUXi-16" value="&lt;font color=&quot;#0000ff&quot;&gt;BaseSecsStruct&lt;/font&gt;.mData" style="rounded=1;whiteSpace=wrap;html=1;fontFamily=Comic Sans MS;fillColor=#d80073;fontColor=#ffffff;strokeColor=#A50040;fontSize=18;movable=0;resizable=0;rotatable=0;deletable=0;editable=0;connectable=0;container=0;" parent="bDOfl30Lk7sTRHTIDUXi-18" vertex="1">
                    <mxGeometry x="560" y="280" width="320" height="40" as="geometry"/>
                </mxCell>
                <mxCell id="bDOfl30Lk7sTRHTIDUXi-12" style="edgeStyle=elbowEdgeStyle;html=1;entryX=0;entryY=0.5;entryDx=0;entryDy=0;movable=0;resizable=0;rotatable=0;deletable=0;editable=0;connectable=0;" parent="bDOfl30Lk7sTRHTIDUXi-18" source="scNVsLxmT9Py_PAUhD3m-37" target="bDOfl30Lk7sTRHTIDUXi-11" edge="1">
                    <mxGeometry relative="1" as="geometry"/>
                </mxCell>
                <mxCell id="bDOfl30Lk7sTRHTIDUXi-15" value="" style="edgeStyle=elbowEdgeStyle;html=1;fontColor=#0000FF;movable=0;resizable=0;rotatable=0;deletable=0;editable=0;connectable=0;" parent="bDOfl30Lk7sTRHTIDUXi-18" source="scNVsLxmT9Py_PAUhD3m-41" target="bDOfl30Lk7sTRHTIDUXi-14" edge="1">
                    <mxGeometry relative="1" as="geometry"/>
                </mxCell>
                <mxCell id="bDOfl30Lk7sTRHTIDUXi-17" value="" style="edgeStyle=elbowEdgeStyle;html=1;fontColor=#0000FF;movable=0;resizable=0;rotatable=0;deletable=0;editable=0;connectable=0;" parent="bDOfl30Lk7sTRHTIDUXi-18" source="scNVsLxmT9Py_PAUhD3m-42" target="bDOfl30Lk7sTRHTIDUXi-16" edge="1">
                    <mxGeometry relative="1" as="geometry"/>
                </mxCell>
                <mxCell id="9" value="" style="group;movable=0;resizable=0;rotatable=0;deletable=0;editable=0;connectable=0;" parent="1" vertex="1" connectable="0">
                    <mxGeometry x="80" y="120" width="520" height="440" as="geometry"/>
                </mxCell>
                <mxCell id="scNVsLxmT9Py_PAUhD3m-17" value="Semi Entity" style="rounded=1;whiteSpace=wrap;html=1;fontFamily=Comic Sans MS;fillColor=#60a917;fontColor=#ffffff;strokeColor=#2D7600;fontSize=18;movable=0;resizable=0;rotatable=0;deletable=0;editable=0;connectable=0;" parent="9" vertex="1">
                    <mxGeometry y="40" width="120" height="40" as="geometry"/>
                </mxCell>
                <mxCell id="scNVsLxmT9Py_PAUhD3m-19" value="Send Data Message" style="rounded=1;whiteSpace=wrap;html=1;fontFamily=Comic Sans MS;fillColor=#1ba1e2;fontColor=#ffffff;strokeColor=#006EAF;fontSize=18;movable=0;resizable=0;rotatable=0;deletable=0;editable=0;connectable=0;" parent="9" vertex="1">
                    <mxGeometry x="200" width="120" height="40" as="geometry"/>
                </mxCell>
                <mxCell id="scNVsLxmT9Py_PAUhD3m-15" value="" style="edgeStyle=elbowEdgeStyle;html=1;fontFamily=Comic Sans MS;fontSize=18;fontColor=default;rounded=1;movable=0;resizable=0;rotatable=0;deletable=0;editable=0;connectable=0;" parent="9" source="scNVsLxmT9Py_PAUhD3m-17" target="scNVsLxmT9Py_PAUhD3m-19" edge="1">
                    <mxGeometry relative="1" as="geometry"/>
                </mxCell>
                <mxCell id="scNVsLxmT9Py_PAUhD3m-25" value="Send Control Message" style="rounded=1;whiteSpace=wrap;html=1;fontFamily=Comic Sans MS;fillColor=#1ba1e2;fontColor=#ffffff;strokeColor=#006EAF;fontSize=18;movable=0;resizable=0;rotatable=0;deletable=0;editable=0;connectable=0;" parent="9" vertex="1">
                    <mxGeometry x="200" y="80" width="120" height="40" as="geometry"/>
                </mxCell>
                <mxCell id="scNVsLxmT9Py_PAUhD3m-16" value="" style="edgeStyle=elbowEdgeStyle;html=1;fontFamily=Comic Sans MS;fontSize=18;fontColor=default;rounded=1;movable=0;resizable=0;rotatable=0;deletable=0;editable=0;connectable=0;" parent="9" source="scNVsLxmT9Py_PAUhD3m-17" target="scNVsLxmT9Py_PAUhD3m-25" edge="1">
                    <mxGeometry relative="1" as="geometry"/>
                </mxCell>
                <mxCell id="scNVsLxmT9Py_PAUhD3m-26" value="Select" style="rounded=1;whiteSpace=wrap;html=1;fontFamily=Comic Sans MS;strokeColor=#C73500;fontSize=18;fontColor=#000000;fillColor=#fa6800;movable=0;resizable=0;rotatable=0;deletable=0;editable=0;connectable=0;" parent="9" vertex="1">
                    <mxGeometry x="400" y="80" width="120" height="40" as="geometry"/>
                </mxCell>
                <mxCell id="scNVsLxmT9Py_PAUhD3m-20" style="edgeStyle=elbowEdgeStyle;html=1;fontFamily=Comic Sans MS;fontSize=18;fontColor=default;rounded=1;movable=0;resizable=0;rotatable=0;deletable=0;editable=0;connectable=0;" parent="9" source="scNVsLxmT9Py_PAUhD3m-25" target="scNVsLxmT9Py_PAUhD3m-26" edge="1">
                    <mxGeometry relative="1" as="geometry"/>
                </mxCell>
                <mxCell id="scNVsLxmT9Py_PAUhD3m-27" value="DeSelect" style="rounded=1;whiteSpace=wrap;html=1;fontFamily=Comic Sans MS;strokeColor=#C73500;fontSize=18;fontColor=#000000;fillColor=#fa6800;movable=0;resizable=0;rotatable=0;deletable=0;editable=0;connectable=0;" parent="9" vertex="1">
                    <mxGeometry x="400" y="160" width="120" height="40" as="geometry"/>
                </mxCell>
                <mxCell id="scNVsLxmT9Py_PAUhD3m-21" style="edgeStyle=elbowEdgeStyle;html=1;fontFamily=Comic Sans MS;fontSize=18;fontColor=default;rounded=1;movable=0;resizable=0;rotatable=0;deletable=0;editable=0;connectable=0;" parent="9" source="scNVsLxmT9Py_PAUhD3m-25" target="scNVsLxmT9Py_PAUhD3m-27" edge="1">
                    <mxGeometry relative="1" as="geometry"/>
                </mxCell>
                <mxCell id="scNVsLxmT9Py_PAUhD3m-28" value="LinkTest" style="rounded=1;whiteSpace=wrap;html=1;fontFamily=Comic Sans MS;strokeColor=#C73500;fontSize=18;fontColor=#000000;fillColor=#fa6800;movable=0;resizable=0;rotatable=0;deletable=0;editable=0;connectable=0;" parent="9" vertex="1">
                    <mxGeometry x="400" y="240" width="120" height="40" as="geometry"/>
                </mxCell>
                <mxCell id="scNVsLxmT9Py_PAUhD3m-22" style="edgeStyle=elbowEdgeStyle;html=1;fontFamily=Comic Sans MS;fontSize=18;fontColor=default;rounded=1;movable=0;resizable=0;rotatable=0;deletable=0;editable=0;connectable=0;" parent="9" source="scNVsLxmT9Py_PAUhD3m-25" target="scNVsLxmT9Py_PAUhD3m-28" edge="1">
                    <mxGeometry relative="1" as="geometry"/>
                </mxCell>
                <mxCell id="scNVsLxmT9Py_PAUhD3m-29" value="Reject" style="rounded=1;whiteSpace=wrap;html=1;fontFamily=Comic Sans MS;strokeColor=#C73500;fontSize=18;fontColor=#000000;fillColor=#fa6800;movable=0;resizable=0;rotatable=0;deletable=0;editable=0;connectable=0;" parent="9" vertex="1">
                    <mxGeometry x="400" y="320" width="120" height="40" as="geometry"/>
                </mxCell>
                <mxCell id="scNVsLxmT9Py_PAUhD3m-23" style="edgeStyle=elbowEdgeStyle;html=1;fontFamily=Comic Sans MS;fontSize=18;fontColor=default;rounded=1;movable=0;resizable=0;rotatable=0;deletable=0;editable=0;connectable=0;" parent="9" source="scNVsLxmT9Py_PAUhD3m-25" target="scNVsLxmT9Py_PAUhD3m-29" edge="1">
                    <mxGeometry relative="1" as="geometry"/>
                </mxCell>
                <mxCell id="scNVsLxmT9Py_PAUhD3m-30" value="Separate" style="rounded=1;whiteSpace=wrap;html=1;fontFamily=Comic Sans MS;strokeColor=#C73500;fontSize=18;fontColor=#000000;fillColor=#fa6800;movable=0;resizable=0;rotatable=0;deletable=0;editable=0;connectable=0;" parent="9" vertex="1">
                    <mxGeometry x="400" y="400" width="120" height="40" as="geometry"/>
                </mxCell>
                <mxCell id="scNVsLxmT9Py_PAUhD3m-24" style="edgeStyle=elbowEdgeStyle;html=1;fontFamily=Comic Sans MS;fontSize=18;fontColor=default;rounded=1;movable=0;resizable=0;rotatable=0;deletable=0;editable=0;connectable=0;" parent="9" source="scNVsLxmT9Py_PAUhD3m-25" target="scNVsLxmT9Py_PAUhD3m-30" edge="1">
                    <mxGeometry relative="1" as="geometry"/>
                </mxCell>
                <mxCell id="scNVsLxmT9Py_PAUhD3m-31" value="Stream and Function" style="rounded=1;whiteSpace=wrap;html=1;fontFamily=Comic Sans MS;fillColor=#e3c800;fontColor=#000000;strokeColor=#B09500;fontSize=18;movable=0;resizable=0;rotatable=0;deletable=0;editable=0;connectable=0;" parent="9" vertex="1">
                    <mxGeometry x="400" width="120" height="40" as="geometry"/>
                </mxCell>
                <mxCell id="scNVsLxmT9Py_PAUhD3m-18" value="" style="edgeStyle=elbowEdgeStyle;html=1;fontFamily=Comic Sans MS;fontSize=18;fontColor=default;rounded=1;movable=0;resizable=0;rotatable=0;deletable=0;editable=0;connectable=0;" parent="9" source="scNVsLxmT9Py_PAUhD3m-19" target="scNVsLxmT9Py_PAUhD3m-31" edge="1">
                    <mxGeometry relative="1" as="geometry"/>
                </mxCell>
                <mxCell id="3" value="BaseSecsEntity" style="rounded=1;whiteSpace=wrap;html=1;fontFamily=Comic Sans MS;container=0;movable=0;resizable=0;rotatable=0;deletable=0;editable=0;connectable=0;fillColor=#60a917;fontColor=#ffffff;strokeColor=#2D7600;" parent="9" vertex="1">
                    <mxGeometry y="240" width="120" height="40" as="geometry"/>
                </mxCell>
                <mxCell id="8" style="edgeStyle=elbowEdgeStyle;html=1;shape=flexArrow;movable=0;resizable=0;rotatable=0;deletable=0;editable=0;connectable=0;" parent="9" source="scNVsLxmT9Py_PAUhD3m-17" target="3" edge="1">
                    <mxGeometry relative="1" as="geometry"/>
                </mxCell>
                <mxCell id="4" value="SecsPassiveEntity" style="rounded=1;whiteSpace=wrap;html=1;fontFamily=Comic Sans MS;container=0;movable=0;resizable=0;rotatable=0;deletable=0;editable=0;connectable=0;fillColor=#6a00ff;fontColor=#ffffff;strokeColor=#3700CC;" parent="9" vertex="1">
                    <mxGeometry x="160" y="200" width="120" height="40" as="geometry"/>
                </mxCell>
                <mxCell id="5" value="" style="edgeStyle=elbowEdgeStyle;html=1;movable=0;resizable=0;rotatable=0;deletable=0;editable=0;connectable=0;" parent="9" source="3" target="4" edge="1">
                    <mxGeometry relative="1" as="geometry"/>
                </mxCell>
                <mxCell id="6" value="SecsActiveEntity" style="rounded=1;whiteSpace=wrap;html=1;fontFamily=Comic Sans MS;container=0;movable=0;resizable=0;rotatable=0;deletable=0;editable=0;connectable=0;fillColor=#6a00ff;fontColor=#ffffff;strokeColor=#3700CC;" parent="9" vertex="1">
                    <mxGeometry x="160" y="280" width="120" height="40" as="geometry"/>
                </mxCell>
                <mxCell id="7" style="edgeStyle=elbowEdgeStyle;html=1;movable=0;resizable=0;rotatable=0;deletable=0;editable=0;connectable=0;" parent="9" source="3" target="6" edge="1">
                    <mxGeometry relative="1" as="geometry"/>
                </mxCell>
                <mxCell id="35" value="" style="group;movable=0;resizable=0;rotatable=0;deletable=0;editable=0;connectable=0;" parent="1" vertex="1" connectable="0">
                    <mxGeometry x="240" y="600" width="1200" height="520" as="geometry"/>
                </mxCell>
                <mxCell id="10" value="SecsMessage" style="rounded=1;whiteSpace=wrap;html=1;fontFamily=Comic Sans MS;fillColor=#f5f5f5;fontColor=#333333;strokeColor=#666666;fontSize=16;" parent="35" vertex="1">
                    <mxGeometry y="240" width="120" height="40" as="geometry"/>
                </mxCell>
                <mxCell id="11" value="mLength_ByteArray[4字节]" style="rounded=1;whiteSpace=wrap;html=1;fontFamily=Comic Sans MS;fillColor=#f5f5f5;fontColor=#333333;strokeColor=#666666;fontSize=16;" parent="35" vertex="1">
                    <mxGeometry x="200" y="159.99714285714288" width="280" height="40" as="geometry"/>
                </mxCell>
                <mxCell id="12" value="" style="edgeStyle=elbowEdgeStyle;html=1;" parent="35" source="10" target="11" edge="1">
                    <mxGeometry relative="1" as="geometry"/>
                </mxCell>
                <mxCell id="13" value="mHead_ByteArray[10字节]" style="rounded=1;whiteSpace=wrap;html=1;fontFamily=Comic Sans MS;fillColor=#f5f5f5;fontColor=#333333;strokeColor=#666666;fontSize=16;" parent="35" vertex="1">
                    <mxGeometry x="200" y="240" width="280" height="40" as="geometry"/>
                </mxCell>
                <mxCell id="33" style="edgeStyle=elbowEdgeStyle;html=1;" parent="35" source="10" target="13" edge="1">
                    <mxGeometry relative="1" as="geometry"/>
                </mxCell>
                <mxCell id="14" value="mText_ByteArray[n字节]" style="rounded=1;whiteSpace=wrap;html=1;fontFamily=Comic Sans MS;fillColor=#f5f5f5;fontColor=#333333;strokeColor=#666666;fontSize=16;" parent="35" vertex="1">
                    <mxGeometry x="200" y="320.0028571428571" width="280" height="40" as="geometry"/>
                </mxCell>
                <mxCell id="34" style="edgeStyle=elbowEdgeStyle;html=1;" parent="35" source="10" target="14" edge="1">
                    <mxGeometry relative="1" as="geometry"/>
                </mxCell>
                <mxCell id="15" value="mDeviceID_ByteArray[2字节]" style="rounded=1;whiteSpace=wrap;html=1;fontFamily=Comic Sans MS;fillColor=#60a917;fontColor=#ffffff;strokeColor=#2D7600;fontSize=16;" parent="35" vertex="1">
                    <mxGeometry x="560" width="280" height="40" as="geometry"/>
                </mxCell>
                <mxCell id="16" value="" style="edgeStyle=elbowEdgeStyle;html=1;" parent="35" source="13" target="15" edge="1">
                    <mxGeometry relative="1" as="geometry"/>
                </mxCell>
                <mxCell id="17" value="mSystemID_ByteArray[4字节]" style="rounded=1;whiteSpace=wrap;html=1;fontFamily=Comic Sans MS;fillColor=#60a917;fontColor=#ffffff;strokeColor=#2D7600;fontSize=16;" parent="35" vertex="1">
                    <mxGeometry x="560" y="480" width="280" height="40" as="geometry"/>
                </mxCell>
                <mxCell id="18" style="edgeStyle=elbowEdgeStyle;html=1;entryX=0;entryY=0.5;entryDx=0;entryDy=0;" parent="35" source="13" target="17" edge="1">
                    <mxGeometry relative="1" as="geometry"/>
                </mxCell>
                <mxCell id="19" value="mNeedReply" style="rounded=1;whiteSpace=wrap;html=1;fontFamily=Comic Sans MS;fillColor=#f5f5f5;fontColor=#333333;strokeColor=#666666;fontSize=16;" parent="35" vertex="1">
                    <mxGeometry x="560" y="80" width="280" height="40" as="geometry"/>
                </mxCell>
                <mxCell id="28" style="edgeStyle=elbowEdgeStyle;html=1;entryX=0;entryY=0.5;entryDx=0;entryDy=0;" parent="35" source="13" target="19" edge="1">
                    <mxGeometry relative="1" as="geometry"/>
                </mxCell>
                <mxCell id="20" value="mStream" style="rounded=1;whiteSpace=wrap;html=1;fontFamily=Comic Sans MS;fillColor=#f5f5f5;fontColor=#333333;strokeColor=#666666;fontSize=16;" parent="35" vertex="1">
                    <mxGeometry x="560" y="160" width="280" height="40" as="geometry"/>
                </mxCell>
                <mxCell id="29" style="edgeStyle=elbowEdgeStyle;html=1;entryX=0;entryY=0.5;entryDx=0;entryDy=0;" parent="35" source="13" target="20" edge="1">
                    <mxGeometry relative="1" as="geometry"/>
                </mxCell>
                <mxCell id="21" value="mFunction" style="rounded=1;whiteSpace=wrap;html=1;fontFamily=Comic Sans MS;fillColor=#f5f5f5;fontColor=#333333;strokeColor=#666666;fontSize=16;" parent="35" vertex="1">
                    <mxGeometry x="560" y="240" width="280" height="40" as="geometry"/>
                </mxCell>
                <mxCell id="30" style="edgeStyle=elbowEdgeStyle;html=1;" parent="35" source="13" target="21" edge="1">
                    <mxGeometry relative="1" as="geometry"/>
                </mxCell>
                <mxCell id="22" value="mPType" style="rounded=1;whiteSpace=wrap;html=1;fontFamily=Comic Sans MS;fillColor=#f5f5f5;fontColor=#333333;strokeColor=#666666;fontSize=16;" parent="35" vertex="1">
                    <mxGeometry x="560" y="320" width="280" height="40" as="geometry"/>
                </mxCell>
                <mxCell id="31" style="edgeStyle=elbowEdgeStyle;html=1;" parent="35" source="13" target="22" edge="1">
                    <mxGeometry relative="1" as="geometry"/>
                </mxCell>
                <mxCell id="23" value="mSType" style="rounded=1;whiteSpace=wrap;html=1;fontFamily=Comic Sans MS;fillColor=#f5f5f5;fontColor=#333333;strokeColor=#666666;fontSize=16;" parent="35" vertex="1">
                    <mxGeometry x="560" y="400" width="280" height="40" as="geometry"/>
                </mxCell>
                <mxCell id="32" style="edgeStyle=elbowEdgeStyle;html=1;" parent="35" source="13" target="23" edge="1">
                    <mxGeometry relative="1" as="geometry"/>
                </mxCell>
                <mxCell id="24" value="mDeviceID" style="rounded=1;whiteSpace=wrap;html=1;fontFamily=Comic Sans MS;fillColor=#f5f5f5;fontColor=#333333;strokeColor=#666666;fontSize=16;" parent="35" vertex="1">
                    <mxGeometry x="920" width="280" height="40" as="geometry"/>
                </mxCell>
                <mxCell id="25" value="" style="edgeStyle=elbowEdgeStyle;html=1;" parent="35" source="15" target="24" edge="1">
                    <mxGeometry relative="1" as="geometry"/>
                </mxCell>
                <mxCell id="26" value="mSystemID" style="rounded=1;whiteSpace=wrap;html=1;fontFamily=Comic Sans MS;fillColor=#f5f5f5;fontColor=#333333;strokeColor=#666666;fontSize=16;" parent="35" vertex="1">
                    <mxGeometry x="920" y="480" width="280" height="40" as="geometry"/>
                </mxCell>
                <mxCell id="27" value="" style="edgeStyle=elbowEdgeStyle;html=1;" parent="35" source="17" target="26" edge="1">
                    <mxGeometry relative="1" as="geometry"/>
                </mxCell>
            </root>
        </mxGraphModel>
    </diagram>
    <diagram id="j7OupbRzkjOBTRSpLezw" name="Gem连接功能">
        <mxGraphModel dx="-176" dy="1068" grid="1" gridSize="10" guides="1" tooltips="1" connect="1" arrows="1" fold="1" page="0" pageScale="1" pageWidth="827" pageHeight="1169" math="0" shadow="0">
            <root>
                <mxCell id="0"/>
                <mxCell id="1" parent="0"/>
                <mxCell id="gMgD0mbZSNUp6V09s_ka-1" value="" style="group" parent="1" vertex="1" connectable="0">
                    <mxGeometry x="1720.1399999999999" y="40" width="600" height="480" as="geometry"/>
                </mxCell>
                <mxCell id="gMgD0mbZSNUp6V09s_ka-2" value="前提：建立Socket通讯" style="rounded=1;whiteSpace=wrap;html=1;fontFamily=Comic Sans MS;fillColor=#f5f5f5;fontColor=#333333;strokeColor=#666666;fontSize=16;container=0;" parent="gMgD0mbZSNUp6V09s_ka-1" vertex="1">
                    <mxGeometry x="160" y="160" width="280" height="40" as="geometry"/>
                </mxCell>
                <mxCell id="gMgD0mbZSNUp6V09s_ka-3" value="&lt;h1&gt;Secs/Gem连接功能&lt;/h1&gt;&lt;p&gt;&lt;/p&gt;&lt;ul&gt;&lt;li&gt;通过S1F13和S1F14建立通讯请求&lt;/li&gt;&lt;li&gt;通过S1F17和S1F18改变Online状态&lt;/li&gt;&lt;/ul&gt;&lt;p&gt;&lt;/p&gt;" style="text;html=1;strokeColor=#B09500;fillColor=#e3c800;spacing=20;spacingTop=-20;whiteSpace=wrap;overflow=hidden;rounded=0;container=0;fontColor=#000000;" parent="gMgD0mbZSNUp6V09s_ka-1" vertex="1">
                    <mxGeometry width="600" height="120" as="geometry"/>
                </mxCell>
                <mxCell id="gMgD0mbZSNUp6V09s_ka-4" value="S1F13" style="rounded=1;whiteSpace=wrap;html=1;fontFamily=Comic Sans MS;fillColor=#f5f5f5;fontColor=#333333;strokeColor=#666666;fontSize=16;container=0;" parent="gMgD0mbZSNUp6V09s_ka-1" vertex="1">
                    <mxGeometry x="480" y="240" width="120" height="40" as="geometry"/>
                </mxCell>
                <mxCell id="gMgD0mbZSNUp6V09s_ka-5" value="" style="endArrow=none;dashed=1;html=1;" parent="gMgD0mbZSNUp6V09s_ka-1" edge="1">
                    <mxGeometry width="50" height="50" relative="1" as="geometry">
                        <mxPoint x="480" y="480" as="sourcePoint"/>
                        <mxPoint x="480" y="200" as="targetPoint"/>
                    </mxGeometry>
                </mxCell>
                <mxCell id="gMgD0mbZSNUp6V09s_ka-6" value="" style="endArrow=classic;html=1;" parent="gMgD0mbZSNUp6V09s_ka-1" source="gMgD0mbZSNUp6V09s_ka-4" edge="1">
                    <mxGeometry relative="1" as="geometry">
                        <mxPoint x="440" y="260" as="sourcePoint"/>
                        <mxPoint x="120" y="260" as="targetPoint"/>
                    </mxGeometry>
                </mxCell>
                <mxCell id="gMgD0mbZSNUp6V09s_ka-7" value="" style="shape=message;html=1;outlineConnect=0;container=0;" parent="gMgD0mbZSNUp6V09s_ka-6" vertex="1">
                    <mxGeometry width="20" height="14" relative="1" as="geometry">
                        <mxPoint x="-10" y="-7" as="offset"/>
                    </mxGeometry>
                </mxCell>
                <mxCell id="gMgD0mbZSNUp6V09s_ka-8" value="S1F14" style="rounded=1;whiteSpace=wrap;html=1;fontFamily=Comic Sans MS;fillColor=#f5f5f5;fontColor=#333333;strokeColor=#666666;fontSize=16;container=0;" parent="gMgD0mbZSNUp6V09s_ka-1" vertex="1">
                    <mxGeometry y="280" width="120" height="40" as="geometry"/>
                </mxCell>
                <mxCell id="gMgD0mbZSNUp6V09s_ka-9" value="" style="endArrow=classic;html=1;" parent="gMgD0mbZSNUp6V09s_ka-1" source="gMgD0mbZSNUp6V09s_ka-8" edge="1">
                    <mxGeometry relative="1" as="geometry">
                        <mxPoint x="160" y="299.71" as="sourcePoint"/>
                        <mxPoint x="480" y="300" as="targetPoint"/>
                    </mxGeometry>
                </mxCell>
                <mxCell id="gMgD0mbZSNUp6V09s_ka-10" value="" style="shape=message;html=1;outlineConnect=0;container=0;" parent="gMgD0mbZSNUp6V09s_ka-9" vertex="1">
                    <mxGeometry width="20" height="14" relative="1" as="geometry">
                        <mxPoint x="-10" y="-7" as="offset"/>
                    </mxGeometry>
                </mxCell>
                <mxCell id="gMgD0mbZSNUp6V09s_ka-11" value="" style="endArrow=none;dashed=1;html=1;" parent="gMgD0mbZSNUp6V09s_ka-1" edge="1">
                    <mxGeometry width="50" height="50" relative="1" as="geometry">
                        <mxPoint x="120" y="480" as="sourcePoint"/>
                        <mxPoint x="120" y="200" as="targetPoint"/>
                    </mxGeometry>
                </mxCell>
                <mxCell id="gMgD0mbZSNUp6V09s_ka-12" value="S1F17" style="rounded=1;whiteSpace=wrap;html=1;fontFamily=Comic Sans MS;fillColor=#f5f5f5;fontColor=#333333;strokeColor=#666666;fontSize=16;container=0;" parent="gMgD0mbZSNUp6V09s_ka-1" vertex="1">
                    <mxGeometry x="480" y="360" width="120" height="40" as="geometry"/>
                </mxCell>
                <mxCell id="gMgD0mbZSNUp6V09s_ka-13" value="S1F18" style="rounded=1;whiteSpace=wrap;html=1;fontFamily=Comic Sans MS;fillColor=#f5f5f5;fontColor=#333333;strokeColor=#666666;fontSize=16;container=0;" parent="gMgD0mbZSNUp6V09s_ka-1" vertex="1">
                    <mxGeometry y="400" width="120" height="40" as="geometry"/>
                </mxCell>
                <mxCell id="gMgD0mbZSNUp6V09s_ka-14" value="" style="endArrow=classic;html=1;" parent="gMgD0mbZSNUp6V09s_ka-1" source="gMgD0mbZSNUp6V09s_ka-12" edge="1">
                    <mxGeometry relative="1" as="geometry">
                        <mxPoint x="420" y="440" as="sourcePoint"/>
                        <mxPoint x="120" y="380" as="targetPoint"/>
                    </mxGeometry>
                </mxCell>
                <mxCell id="gMgD0mbZSNUp6V09s_ka-15" value="" style="shape=message;html=1;outlineConnect=0;container=0;" parent="gMgD0mbZSNUp6V09s_ka-14" vertex="1">
                    <mxGeometry width="20" height="14" relative="1" as="geometry">
                        <mxPoint x="-10" y="-7" as="offset"/>
                    </mxGeometry>
                </mxCell>
                <mxCell id="gMgD0mbZSNUp6V09s_ka-16" value="" style="endArrow=classic;html=1;" parent="gMgD0mbZSNUp6V09s_ka-1" source="gMgD0mbZSNUp6V09s_ka-13" edge="1">
                    <mxGeometry relative="1" as="geometry">
                        <mxPoint x="360" y="500" as="sourcePoint"/>
                        <mxPoint x="480" y="420" as="targetPoint"/>
                    </mxGeometry>
                </mxCell>
                <mxCell id="gMgD0mbZSNUp6V09s_ka-17" value="" style="shape=message;html=1;outlineConnect=0;container=0;" parent="gMgD0mbZSNUp6V09s_ka-16" vertex="1">
                    <mxGeometry width="20" height="14" relative="1" as="geometry">
                        <mxPoint x="-10" y="-7" as="offset"/>
                    </mxGeometry>
                </mxCell>
                <mxCell id="gMgD0mbZSNUp6V09s_ka-18" value="Host" style="rounded=1;whiteSpace=wrap;html=1;fontFamily=Comic Sans MS;fillColor=#d80073;fontColor=#ffffff;strokeColor=#A50040;fontSize=16;container=0;" parent="gMgD0mbZSNUp6V09s_ka-1" vertex="1">
                    <mxGeometry x="480" y="160" width="120" height="40" as="geometry"/>
                </mxCell>
                <mxCell id="gMgD0mbZSNUp6V09s_ka-19" value="Equipment" style="rounded=1;whiteSpace=wrap;html=1;fontFamily=Comic Sans MS;fillColor=#d80073;fontColor=#ffffff;strokeColor=#A50040;fontSize=16;container=0;" parent="gMgD0mbZSNUp6V09s_ka-1" vertex="1">
                    <mxGeometry y="160" width="120" height="40" as="geometry"/>
                </mxCell>
                <mxCell id="gMgD0mbZSNUp6V09s_ka-97" value="" style="shape=image;verticalLabelPosition=bottom;labelBackgroundColor=default;verticalAlign=top;aspect=fixed;imageAspect=0;image=data:image/png,iVBORw0KGgoAAAANSUhEUgAAAjEAAAKFCAYAAAA9NLiXAAAgAElEQVR4nOy9f3BUVZ7//e7O7U53TAOdJgEyoR8jkECymEExzC7wBMyIiIyyUzpDnvFBRrYsC2G34jyWM4y7T9VXNlPsfpV6CkM5zkip6xQ4Wg7jMMowMkABtcKoVCYDGn4YN8SgCUmPdkw36dvdzx/nnvv73r7d6ZAffl5VKejbt88595xz73mfz+dzznUVFxenQRAEQRAEMcFwj3UBCIIgCIIgcoFEDEEQBEEQExJhrAsw3qjbEkXP8SfQ17YbAFDddArRrsPoObktL+nPWXcAxRUNAKDJZ7JT3XQKvlBNVr+JnH8NXYceMhwPr9oDT1EZLu1fa/huzroDAGD6nR3U7gRBEBOP6ypiqptOAQA69i65ntnaEgg34qZ79qPt2YDhu9K6zRCKyhwNZOFVexCsul/+LMau4uwLlZrBCwAGu4/JeQXCjXm4gtzIZ1sEwo3wBattB2Z1PlYixKlw8BSVITHUa1qO4ooG07Y0O/fr2O4EQRCTCUcipm5LVPM51vs+Ih2/nvSzyZKaByH4pxuuH4Dp4DfYfQyX9q9F+dIWBOc3ycetLArRrsOaz4XBKpT/w1MorlgBt6cIqcQQhj7/M7qPPYZrkfN5uKLRITj/BwhW3X/d+oPgL8WXnW8ZjpcvbUHP8Sfk/5cu2oqP31xnqOdMXO92JwiCIHLDsSUm3n8Osf6zKPDcgOKKFShfvgPuwqn4/PTPRrN8YwafjTuZ1eeLGbf9GFMq12Dg7IuID3wI/4zFmFp5N0I1G/Pm1pjIqK0b5ct3oHz5DgDAx2+ugy9YDTHWJwupnpPbINwwE+E7fomzL1Q6zmMs2p0gCILIDcciJtZ/Vp5VFgarMPe7f8D0hQ9rREx41R5Mrbwbbk8RxNhVRD7aazr4Vt79KqZUrjG1NNRtiSLef052P5TWbUb58h2aOIJAuBHlS1vgC9UglRhC/19fQOjvNuGLzt8bZr6zV+5CSe3GrOMQeJ7c7ZDLjD5b/KFaxPvP4fKRrbbn6ev5avvzBjE5o/4nCC14AJ5AGACznvW1PYdIxz7LdGsePIvk8KDB9WPVpnpXitpyYWWFGAmX9q9FINwoCxPeNtGuwwjf8UuIQ72m1pM56w44jpEZi3YnCIIgciOnmJhrkfP48uMDKKndiGD1ekQ69skDWuT8a4h9/h78MxajdNFWJBNRzQArFJUhnYyh5/gT8JUsQEntRlQ0PJNVIGb50hZ4p9yIvjO7kExEMW3OOrg9RabneqeyWbinuMJx+iU1DyJy/jX0te1GINyInuNP4KZ79uc8MAer7tcM9mrUg6QY60NxRQNK6zZbCq7ypS0IVt0vW8YCs1diZv02pK59If9mRv1PMLN+GxMd519TrGfLfmYpYgqDVfAEwoip3DSZ2jTy0a8Q+/w9TKlcg+KKBtmVAwDxSIemzKWLjMLMTHD4QjWac/UiIjC7EfH+s+zcYDXE2FVUN52C4J8OwOju4SI4EG7MKEbGqt0JgiCI3Mg5sDc+8CFLwFcCAAjMXonB7mOah70/VIupN95psBKc//UK+f/eqZUomnGb43wD4Ub4QjUYOPuibBEY/qIT4Tt+YXr+pf1rbUWBGQPnXpLPj3YdRrTrMPradqN2UyeLu8jStaMeBMOr9sAfqjUNqO0+9hjm3PMblC/fgdJvPoq/XfytIa9pc++FGLsq/55bDKZUrpHLHFrwAMTYVVx8407ZwhWsXo+h3g8sy1j+D08BYPEdnExtyuvGP2MxAFjWcc/JbZrrGElgr7/0ZsT6/gKACdN4/1lbAdzXtttx249VuxMEQRC5kbfVSYJ/OoorGgyz63j/Oc1nUbeqJDHUa2lFMcMXrGbpSiIKALMEWYgYwHpwBdhgpZ6928VCZBNbkQvXIudx7qValC9twbS596J00VZMm3svLr35j7IY8QTCGqER7TqMRLQLgr9UPuYJhPFl51uaYGAzC4xQVCYPrr5QDQa7j2nqymmbZovV6iIn+EK16P1gJwDI1hUu5Kwws3qMp3YnCIIgciNnEWPmnhnsPmZYNSLGB2zTKfDckGsR8oZ+OawdfWd2ZTUjF/ylsuXAKdxywV0h2brbAMDtoF4F/3SNu8NsxU8ubZo53+zrhBPvP4ub7tnP3JGhGk1bmAkRM5cVZ7y1O0EQBJEdOe3YWxisQnB+E1KJIXnmLsauQvCXyuZ7/mcXSFoYrEJxxQrEet+3PMdXskDzmQ+g6uPB6vW25S2t25zxmvg+Hj3Hn4AYu4q2ZwPyoPjxm+vQ9mwgowWCWy3UMR1CURkSg90Z8zejr223wcqSiHbBF6qVPwfCjfAEwhBjfZpzimbchsJglW368f5zaHs2gI9+dStSiSGULX5c8322bepk/xPuDoxezi0e5NL+teg5/gTKl+/AYPexEceVjLd2d9JX83UOQRDERMexJcYfqkV41R45SNTtKULfmV3y91fbn8fM+m2o+t5RfPHJH5C69gXchVMx9NlpzUBT4C1Gad1meIorMG3uvQCAK+8+JX8f630f/rJbUXn3qwAA75QbAQBTKtcgHulApGMfZn3rXzGt6ntIDkeRTEQx9cY7LcvNZ9ue4opRX6bM9wvhlNZthuCf7jgmo7rpFGL9ZxH7/D0AgH/GYuY+Ov+afM7fLv4WpYu2yucGZq8EoLWi9H/4itQWxzHYfRTJxFcAAPGrz0zr4FrkPP52/tcoqd2I8Ko9chyH0zaN/s8hBKvuR/iOXyJ6+QgAIJ34ynSVVfnSlhGLDx6DU1zRgPCqPYh89Kuc08oHI213jpO+mq9zCIIgJgOORYwvVCNvG2+22R0P3g0teAAz69mDM5UYQvfRf9Gk4wmEUb58h7y8uvfIP2sGtL6251B2SzMTLf3n0PvBToTv+AWKKxqQGOpFtOswrrz7FMpuaUbpoq3yEmt/2a2m5R7+ohOoaMjZGuIU/eqVQLgR5ct3aIReJsRYHwKzV8ouHr66SJ023/9kauXd8IVqIMau4rPTLZZtMaVyjXzcriyXj2zFlJvWYmrl3SgMVuFa5LzjNo107IN/+s0Izm+Sy25mXePL57N1janhAzS3lqjdRXauo9EiH+3OcdJX83UOQRDEZMBVXFycHutCjBS+hDfbuAUec5ILmZbI1m2Jmi7N/TquUuGBt5mWKmdanTRn3QEI/lJD3dm9QqBuS9TQVtTuBEEQk4MJKWLKl7ZAuGEmAMA37Sb4y241LCkmCIIgCGJyMyHfYs2DQwEWxDrYfWzcv1+IIAiCIIj8MiEtMQRBEARBEDktsSYIgiAIghhrSMQQBEEQBDEhIRFDmOLZAPhax7oUBEEQBGHN11LEFB0CvM3Z/cbXyn7n9E9YbUzDs8E8X/dC9hv3QuflsRMZvlbAt93+98Jq83Jn+p0dvlZjmfi16c/Ltv6zxa5Ofa2A33ojaVPM0vI2O6uv8dTuBEEQk4kxW53kbQYKlgAu9hJsXPtfQPJE/vPxtQLuecbjwl3sT0/iFSDxsnla4tvA8E7ls2cDu4b4o9rzrAbIdC/geQAQ3wFS7crxgkVA6oL22EgYfg7wPc0GR6s0xYPsD2ADafxH2nNdoezy9G0HEAHiT7L/J88b69HbzOo88QqQPJNd+tlS+FOpXE9rj4tvK/1BL66GVpmnVXSIldn9DWN6+nT0fQQYX+1OEAQxmXAkYqyEgNkD2wl8MEtdAJKn2LHUpezTcYqdMFGT7ew8W8SDgHsB4P0+IH4D8D6m/V4/qAJA6jQTBnYIq41pAdoBN3XBKLbyBZ/983LGn2R1qRYqRYdYfxlaxQZZ39PWomHE5WkF0heBxAnAsxGISa/W4vkOP8PaAbDvv/x8df/hwg9g/dgdytw+k7XdCYIgxhpHIiZ5CkhdBNxzmZhJnQZS/UDqw9wyLVgCpHu+ng/X4Z3SgP4kG9yE1dqBNhP6gUstDnytrK3Ugs3smB16waofYPWCUFgNuOvNzy38KXDt39n/1YLF/Q0gPbIXYVuitgjJx1pZXyv8KSu/eBDAQXausForTDRpPa1YqPz7gMSL1udmYry3O0EQxEQkq31iuAVl+Bnjw5z76VOfAsIK9n/xKDDcYkyHP4CtZsHeZkBYCcDHBjvxdSDxuvE8zyOA57vm5VGXy8yKZIWV1SbbdOzKpE83dZHVhZV7ygyrc9WuIZ623o2hx8ydZGZl8O8DxLeyEETbmdgV7tKKmGyuMxd82xVh5RT99avhdeGaq7g/7XBiYRoP7U4QBDHRyWtMjCvEIoXFt5nVRlgBpLvZoOdeyGbgHHdICX5NDyrxMJ4NiqspdZE9sD0Ps3P0oqCgQsq3zL5cTt1JmRhJTIx6Js3T8Wxgwmikg7l/n3ZwVbsT3POU2B+7gXokWIkGXu/uueYWndHCyg2TrQgDWLvpRVg2TOZ2JwiCGGvyK2KKgHgzkL4CuGYB/peUAFHh29pAWnc94JUGvtQFRcQItzPrC3/A87gEYZlRxMSftHcHjCd4IK169UhBFftXP8CrP9vFRrjnsXPVAywfNEcab+IOMSuKnnSv+fn6cqpX0FxPt2EmK4znAfZnhtlg730ss+vLswEQ1pi7hiZauxMEQUwk8ipiUpeZgAGUfznDOxUrhp07yVXOHuBymu0sfgZB8zwzCRhXiA283BWWCbtZa9pkUB8J+kHKiVtBPbM3C9oUvsPqdqS45gJp3auo7Fwp7nrjoJw8ZT64epuZdWY0xE2mYNhsyuDfx+qYC3G95UMPv/5Mlo/x3O4EQRATiQn5AshscJWwOB33gswrPsxWicjphKxn8Xa/yzd8Zs8HPrP81a4ENZlm6f59bFWPeILVWzZuFztLDMezgdVf6jRbDjwacMudU3jd6csvrFbqwrORHYutZxYV8YRWPNtZYvLFaLY7QRDERGXciZh0D7MCcNwLmXUmfdr8fDt3Et9ELNUO4NsjK5erxBism+0+MWr4gG6G0/1L9N/rA3SdLGXmYkO9EsfXqrWGqUl9an7cyhLDKTrE0hztJdapdiVd90LA+4i5hSOTJYaLBv2mhcOvKiIpFzfmeGl3wJkrNl/nEARBjAaORIxngxS0K4kLYZlk2fgw/w8v8U/sIc9XWPBZp2iyER6Pf3CVmVsNhG8z0/tI8WyQypDHa028bCzzSFbtqMVI6gIg/o65H4afMT+fD6Z6YeZtZm0d05Uh066ymSwx2Syx9m0HEMyPuyl1kYnKfFlJUu1MMBT+NLf+MNbtLv8uw72Tz3MIgiBGC0evHShYwszUfImxu176vCD/BUq8LK1umq2YxhPPmw8YyW72r1WwacESrTWAWwus/qwQ1lhbJpzCt5hP9bNy5Xt7+PijTCgMrWLtxOMnhGXm5ydeZueq69W3ndW52YDPV5blY5WLq8w+vsg1V9tuuZJqZ3FXyVMWrzmI5J6uvo6srme8tTsn072Tz3MIgiBGi6z2iZlI6Ge3TnZXNdsvxW7VhzoP9T4y6QHjIOfZwFal8Pyz2cvEzFUAMLGX7je6J/R7sngeMC+TGv8+lpbaGqAXdlbB2Oode9XBr+qN4vQBsXbL3s3aIR/oy+FkLx+rTen0m89Z1c14b3eCIIiJzKQVMcTERFjNVtp8HXdzJgiCILKDRAxBEARBEBMSRzExBEEQBEEQ4w0SMQRBEARBTEhIxBAEQRAEMSEhEUMQBEEQxISERMwExLPBfN8TvidJpo3p9GmZvSIAYMfzva9JJuyuwdfqbDdkNWZpeZudXZdvu/JbX6uy6aGvVTnutL7V9Systt+vqOiQxb42yH97+Vq1eamvkyAIYrwzZq8d8DazPVb4vh3X/pfyJuuJBh9U8rEs2L2QbSxnt39JupftASK+o91LpWAR27U1X/urDD/H9iZxL8z/ni1WFP6U/at//5H4trIPj9Pt+YsOsf1o3N8wf5+SOh2zfV7EE8bXFng2AIiw+hBW517fdvu35CocR9pewmq2WzPtvEsQxETBkYhRb+SmxmqDr0zwN0qnLig7s6YuZZ+OHa5ZgOeHgPAtAD4AcSD1F+Baq/EN2+MJ4dusbuxEjHiQ7Zbs/T4gfkO76RpgvvtwppdfAsYN3DhqAWD2BuV84WtlL11MnNBuMMc3eht+Rtkl2q7f8fPVG+rpX62QaeND/hvhO1pLi/pFj+4F7L7Q17d6kzp9nfJ3SOWDXNvLt53tIKyvQ2EZm1RY7V5NL5IkCGK84UjEJE+xd9C457KHduo0ewimPswt04Il7EWPo7mhmWc9IKwAEm8A6U/YgCOsBIQ7JsdMc3gnG2zEJ5UXFZrtLGuF2eAqvs0GKl8ra3N1PZkdyye+7QAixvcvxR9l1pnEK5IQOSi9HsHmpYPql1n69wGJF7N/z5F6h1z+r9oSNPwME5tqwWK207D+7dPxR6W6N3lhpprU29rPo91ewmq2k7B+F+PR2j2ZIAgiHzgSMfxB6G1mD3LxhHFQ4C6V1KdMPACAeBQYbjGm5yphD2ArvM1McMDHzO7i60DideN5nkcAz3fNt493z2Wz0MRz0oGD5rN3J3l57gOEtext2gB7oCd+Y+/+8r8IpL/SCjVDXm9p65a/KwrI7OoAtDNj4TuKVcvJCwXNBldO/FGWf/KM6q3WF9nn0SL+JBMn+oGdf/Y8oN1m31vPBnWzAZbXi7eZWXY8G80tFnZuKf42bC4O0/3QiCweR+L+BjtX88Z0B2TrThrt9vJsZP+6ypRj2V4TQRDE9SavMTGuEIsUFt9mIkJYAaS72UDNYz047hAbIAAgPagIAs8GxdXE32LteZidoxcqBRVSvmUwEpFeVGkzY3eSl+c+6diAJLz8zEXl3QLELESMaxYTPMmjyjEuUsS3mQXLvUAalIeYaBLfYceFZcqMmJP6VPm/ekbOxY1nAxOXI7Vs6d8tpHZLuOcpImu0ZuZW7h3/Pq3gc4KwmpU3VxcIf/dQ6gITG75W5QWinNQFpe/xeKRMcAuJHvU1ZnJzqX+Tj/Zyz2UiLXmK3cPy8QxvGycIghhr8itiioB4M4s5cc0C/C8pD0Ue68Fx17PZNCDFxkiCQLidPTj5gMzN+sIyoxiJP2ktUq61Ar4KNuB71gPin4yDoJO8hLXSOc1KLE1ymX0Mj+eH0nV9oBwrWMLccLJF5SAbPAr+nomYVLs0o18gCUEL4cVn5OrZekEV+9fKigHYx8TwuA6NZcfmxZejQaYXI+otMWrMBmnvY5kHYM8GbYyLmsTLSn/hAcJ6kcitIomXWRukLprn416olJ2LU7PYE/01Wr2gMt/tlbrI+iW3Osn5LGCWLIIgiPFKXkVM6rIy0OuDZ4d3KgM49+ebuUhc5drAx1Q7i59B0DxPq8E+fQWIbZQGqtvZ4CDcDsR/opTNSV6ucuYWU1+PmRvJFZLcbaq4IXXZXCWAyyQOwsnsPRN6ceLEnaS26JgFfwrfsXf55Run1gdex3bX5t8nWUlCymf9W7TV8DZRiyFuieGoBQYXhMkzUr/i8SQ/MqbNhUHiFdYm3CWkdydlsjZdj/YSD7Ky8olBwRJWJoIgiPHKmC2xvl7wGTUfBAofdT5gctxFmc9xlWgtTaKJ0EmdNh5PD2ZXlnyhj7EAjAJL7ZJQMxrWGXUgrRN4WfUWJmE1sx6IJxSrQmw9s/ToY7kyWWLSvUbrhq8VSJ6X8m5n+Xsfs15qra5njivE3Dd6caUWSuqVVfp08tVevu2S4FZZW8S3WL1xN9lkCIInCGLyMu5ETLoHcM1VPrsXMmtI2mJZql3MixrxIHMrqa0sTvJK9wDum5l7zG5pNp8du2YB/p+zgUBdrvQAy9vpKhmne33oLQZqnO6nov9evyKFC4zRdC3xQFqen35/Fk4mSwwf7Hm8FWf4VUUkOW0DYRn7l6+S8jYb91ERTzC3qFmcixXuuVIMVsgoVnh+ThhJewl3sbz1Fs7Ey1Js2APS9w5wcg/m6xyCIAg1jkSMZ4MUtCsN+MIy5i9PfZj/h474J/YA5Sss+KzTzLLB4yhcZeYDQeqisgzcvUAKtlWZ3J3kJR5ggb3+nwPiuwBi7Hi633yWmr4CJN5iq6a8zYrLTHydpeN7Gkj+N7PAuIqBZIdWrCT/zAaYwp8qA2M6plplpUMdu8Fx4k6ygg+gvqeZMBN/xywN6kBjy99uBxDMz9L51EVmqXC6ZDxjeu1soC/8qfM+yy08fIddwDwOJT3A+hFfHZQJ9zxWr7y/jYRc2stdr4gnfRn4CkRAifexzd/mHsz3OQRBEHociZiCJdrN7tz1UvApAORZxCReZoJJWMnyTA8AiefNB55kNytLutckoQgrNzev89VF6jgcJ3nx5dbCWmXpOGA/S008x84VVgKJfZKwUaXjeVg6MQ6k/kN3TSdY2sIapeypdiAhfc9n2eLb7Pp827N3j9mhFiBFh5Q4DLPAaj2uufmJoUi1A8PtbEBVC0GZSO7p6kVRut/+N9zlw/sOj+cCFGtG4mXpVQZPWwfjcrzNktiQ4k+sApadWnZyaS+7HY7V33ublaBmK2Fhew/m+RyCIAg9ruLi4vRYF4JwjmcDWwnDhUumVT1qzFwOABuU0/3GwVQ92HG3ld3+JqO1MZo+diSTUACsN//TbxpnFWDOr9fse75cXi8GeNpW9Zx4haWp3ojPLJjXbKO60WgvnhfARLyVWOE7dtOmdwRBjDdIxBB5QVjNVsiM5i7MBEEQBKGGRAxBEARBEBMS91gXgCAIgiAIIhdIxBAEQRAEMSEhEUMQBEEQxISERAwxZlQ3nUJ41Z6xLgZBEAQxQaHAXhXVTacQ6z+LrkMPyZ+jXYfRc3Kbo9/6QjWW30fOvyanCwBz1h1AYqhXc4xTvrQFwflNOPtCpeG7ui1RfPzmOkS7DmcsE88j8tGvcNM9+9H2bMDy3NpNnYh8tNdwrfpy1m7qRO97/4m+tt0AjHU0Z90BxPr+Ylpn4VV7EKy6P2O5AaDvzC5H9U4QBEF8fbmurx2obmI7eHXszcNWpaNMad1mCEVljgdSfk3lS1tQumirqWDIRhRZETn/Gm66Z78jIVNc0YCe409Yfm8npDi9H+zETffshz9Ui469S9D1x3/CTffsBwBZyHDCq/aguKIBX3Za73gX7z+Xsf1rN3Xafj8eKK3bjPLlO+TPepE6GgTCjfAFqw31TjCofgji64cjEVO3Jar5HOt9H5GOX0+Kh4XVQD6lcg0E/3TDtXOsrBqli7bi4zfXATBadnIhEG6URYMa9TEzYVC+tIX9qxpo1ddiJ27URLsOo+3ZAGo3daJ8aQt6Tm5Dz/EnUL58h6b9S+s2IzB7pa21BwB8oRrLOr1eFAarUP4PT6G4YgXcniKkEkMY+vzP6D72GK5FzjtK48uudwCpDtV1PJoE5/8Awar7R3Tf6es+l2sfr+SjfgiCmFg4tsTE+88h1n8WBZ4bUFyxAuXLd8BdOBWfn/7ZaJZvTCit2yxbMdQPxEyunNpNneg7s0v+vmPvEtRu6kRp3WZHD1ZuxVHnFzn/GgBr0RRetQf+UK3heHB+k+yS4UJIn8aUyjW25VH/Tu3a6mvbbbges2NmjAdLzIzbfowplWswcPZFxAc+hH/GYkytvBuhmo2OrWTXIufRJw3610vE5At+LwOAp6gMxRUNqGh4Bpf2rx3jkhEEQWSHYxGjtigUBqsw97t/wPSFD2tETHjVHkytvBtuTxHE2FXTGAsAqLz7VUypXGM6C6zbEtUMdNxsrxYUgXAjype2wBeqQSoxhP6/voDQ323CF52/N1g9Zq/chZLajQZBYkfZ4scBAJ7iCvlYINwIAJYCJrxqDwT/dJQu2qoRIjw9J3n3nNyGnpPbDDExZjE6PDbFysqjjlsZCYPdx1C3JSoLotpNnRD80zXn+EI1mmu2c63kyxLDY5AyWX7M8IdqEe8/h8tHttqe57Q/Z8JJOjPqf4LQggfgCYQBMGtnX9tziHTsM8QSqesvFzeW3jo4Z90BFFc0ZFXmwmAVblz9X7b3oJN72WleM277MQKzV2r6Hu+T+a4fgiAmDjnFxFyLnMeXHx9ASe1GBKvXax60kfOvIfb5e/DPWIzSRVuRTEQ1QkcoKkM6GUPP8SfgK1mAktqNWc8Cy5e2wDvlRvSd2YVkIoppc9bB7SkyPdc7lQkBtSCxwx+qhTjUi+jlIxBumCkf9wWrIcauWv6u69BDlg/L6qZTsnsnF7hFZLD7GKKXmYg6+0Ilajd1oqTmQVNXUumirQYLgfrhLsauIi7Nxq2Idh1GtOuwLKr4wGIXdMvjnqwYD5YYMdaH4ooGWwuZ0/6cCSfpzKj/CWbWb2MD+PnXFGvnsp8h0rEPkY9+hdjn72FK5RpDnFM80jGyysixzDeu/i/5HkwMdqO4osHyHhxpXjNu+zGCVfcj1vs+opePyL/l98L1rh+CIMYPOQf2xgc+ZAn42Jv5ArNXYrD7mGYg94dqMfXGOw0P/fO/Vl4H7Z1aiaIZtznONxBuhC9Ug4GzL8oD6fAXnQjf8QvT8y/tX+vYnQMos9TSus2yRQYA/DMWZxz0Ofy33JLCB+3qsMNXEwNyPM5g9zFT1xbAhMycdQdQ3XRKIwy4RYdj5U6as+6Ao7Lo0zOzNqmJ2dRTviwxIwkO7z72GObc8xuUL9+B0m8+ir9d/K1BlGXTn+1wkk5owQMQY1dx8Y07ZYtksHo9hno/AKCISf+MxQCMAdXZ4g/VykvbuTtpsPuY4zLzezBy/jW53r7seieje9IMJ/XD3aX/88eHTeN28l0/BEFMHPK2OknwT0dxRYNhgIr3n9N8Fod6NZ8TQ71ZzeB8wWqWriSiADBLkIWIAXJ7qPW17UbZ4sdlARSYvRKRj/Zanm+2xDrbQFr1ihcxdlUWQdVNp1C+fIdl7IVZ2vrVM7mUh8PFDreWTXRLzLXIeZx7qRblS1swbe69KF20FdPm3otLb/6jPEg67c+ZcJKOJxDGl51vaQboSMe+bD4C3bQAACAASURBVC/LMb5QjaavxnrfR/cx5dXemcrM78HY5+/J3+UaFOykfv52aT9mhmow/wfvy/E8kY9+5WibAYIgJjc5ixgz98xg9zHD8loxPmCbToHnhlyLkFfmrDsAX6hGY0WIfLQXZYsfl6/VLh5CPTDrLTGckpoHbcvAg2O5+8Ysbbs9ZPRwIaS3xGQrEnyhWlsB5xS9uy0QbkT4jl8arsXJteUDbmHigk/v1sylP5vhJB33dbwPeJxIYbAKVd87juTwoEGE5OvanZApr89P/wxDn53GtDnr4C9diKmVdyNYdT8+O90yKRcWEAThnJxETGGwCsH5TUglhmQrhxi7CsFfmpXVozBYheKKFYj1vm95jq9kgeYzf7ipjwer19vmk8mdFKy6H31ndkHwl2qO85U9pYu2ou/MLts8JiuBcCME/3Q5/gDIzZ2kFl/qDfOil48Y3GGldZtNY31Gi7623Sj95qOa9s+2P3uKykyPO0knEe1C0YzbUBiscmTRCIQb82KFuBY5j8Huo5hSuUaTZqYym92DTjA732k9c5cRwJ4b83/wvqVrL1/1QxDE+MexiOF+dB506PYUaQb2q+3PY2b9NlR97yi++OQPSF37Au7CqRj67LTmgVLgLUZp3WZ4iiswbe69AIAr7z4lfx/rfR/+sltReferAADvlBsBsOXA8UgHIh37MOtb/4ppVd9DcjiKZCKKqTfeaVluvvLCU1xhakkprmiQ3SP6mJXwqj2y2T0QbgROOq0tc8bbJn9OgqkDsxshxq5q2jAXd1JwfpMmKJPTdeghzFl3QN6Dpm5LFD3Hn4AY68OcdQcsyziS1Ul8/x7uDvHPWAxPIIxBaTk74Lw/A0yEFFc0oPLuV5FMfIUCzw3o/P33HafT/+Er0jnHMdh9FMnEVwAA8avPNPUc/Z9DCFbdj/Adv5TrMp34KuMqKzuutj+PKZVrUHZLs1yeTGWOdOxD2S3N8j3IA3v1ZLqXo12HHdUPr1cOj5GJ9bVr8huN+iEIYnzjWMSo/ehmm92pgxRn1rMHbyoxhO6j/6JJxxMIo3z5Dnl5de+Rf9YOkG3PoeyWZvag6z+H3g92InzHL1Bc0YDEUC+iXYdx5d2nUHZLM0oXbZWXd/rLbjUt9/AXnUBFAxKD3abfWw2C3EfPvw+v2qNZapwJ/UZ542EbffVSVLOZr1kdBcKNjgOaOeJXnxnyBYzuJA4XKqV1m+Wy9bXtRnXTqayCsh2XL9aHwOyVcl3wVUHq8jntzwAT4eXLfiYHtqpdI07SUZ+jDo7VW/8iHfvgn34zgvOb5LLbWTGdEO06LAePcwuGkzJ/cvD/xo2r/0tzD+pxci87ycvtuUFTL7y99OJkNOqHIIjxzaR4dxJfUjxSocCtCL5QjWVa3AKg3/ROH5hotimefjM7/Tnq3XkHu4/h0v61pvuymGG3CZ/V6iS1qFEHEqvRCzezdyzpy5jplQh271CifT0mLnxzRmo/giCuFxNSxJQvbZH3cPFNuwn+slsNS1QJgri+kIghCOJ6c11fAJkv+D4VAItHGOw+Nine/UIQBEEQhHMmpCWGIAiCIAjCPdYFIAiCIAiCyAUSMQRBEARBTEhIxBCjgq8V8DaPdSkIgiCIycykFzG+7exP/Vk9uPr3AcLqzGnoz/E2A54NJue2Au6F1ml5NrA8zSg6ZP9bfZm8zez8okP25/r3WZQ1Q134WrW/8203Twdg6RQdUv7c8wDhLu0x/meVBkEQBEFkw5iJGG8zGzT5wFawbHTycdcD4gnls2sukJLeHeleCCRPAd7HtEJHj3iCnaNmeCfgeUArOrggcH8jt7KKbwO+p50JGXe9ch1m6AWKGcOvMqHha2Wfr/07u04zUedtZnmme43fcVIXgKFV9n/p0Xn9Tl4RVmtF1/WwKLkXZhbTBEEQhBZHS6x9rWxmrUd8mw3m2eJtZoNn6gITEQCQupR9OpnwbGCDpniQfXYvBFwlQOpTKc92YLgdEN9RxEOq3ZiOeBBwL2D1EH9UOZ54BfB+H4i3s7wKlgAx+9c4aXAvZPnqUR9LXdDmya8L0AortTVm+Bln+afambDglprEy+y33seUOgPY4FqwhJ1rez3zMluFRhvXLMDzQ0D4FgAfgDiQ+gtwrRVIX3GWRrJNqUO9eB0thG+ze0Jd79liqPscrp0gCGIi4UjEJE8BqYuAey4bqFKngVS/vSXAjoIlQLrHODjnm4IqJlr0D3cz4aA+Hv+RUcwM71RcRfrfq9Pn/0+dBuJPKsc9G5jlRn2e+Db7v5U48DazOtcjrGECKvGyUh59GkIGy5b6d2rhJR40DqRmx8wwE1x6rFxp+cKzHhBWAIk3gPQnTHwKKwHhDlZfTkhfAURp0L9eIiZfpC6wexUA3CFmPSuEti8SBEFMFhyJGP7w9zYzESOeMA5q3CWR+pQNIgAgHgWGW4zpuUqUAdwMbzMbeOCTLCmvA4nXjed5HgE832WzZrNBVv/g9rWyB3wu1iNAGaD1gsHXyoSe3SCZeJn9eTYwEcKFAy+LOg3/PiDxonU5Ey+ObMbOSZ1mYooLIv8+1jZq3PO04svO+pYvSwy3/GWy/JiWYS4byBPPSQcOmpfX0Mfeci5ysk3Hcx8grAVc5exzqh1I/AZInlCskhx1/eVi6dT3b992JmSyKbNrFhODBUu0/YH3E8D8fk+dNlp9Mt3LTp4bTsrj5LoIgph85HXHXleIBdmIb7PBRFgBpLsVi4E6VsQdUmIA0oPsgQ5Ig/xdyoyyYAngeZidox+4CyqkfMuclc89DxB/l901CauV2bjeupIPuEUkdRpInmHHYuulINvvmLuSPA8YLQTqwS89AKQv2uebalfcYMIa5WGvHxjU8AHHMs1xYIlBhA3awmproceFg/g2sya6F0hCbchcLFvhJB3PfVL/HZCEu5+5urxbgNgJ5spMfcgsZ+56rSuQuz3ziaMyr5fuwXbF3Qso/ZPjCgHuOCuzewH7jWdIESBO72W754bT8uSrTQmCmFjkV8QUAfFmNhNzzQL8L7EHFKD4/DnuesArzRBTFxQRI9zOHvh8MOSDvLDMOCjFn7QfrNTw4EzvY9YuArMBnLtSeOCvWtSo0Vss0gPW8THcxZU6rQxc+muIrZdWVunjcF7WltHKnWQXqKxGn57nAe116EnZiKN8WWJG4ma81gr4KlgbedYD4p+MbVqwhNW9bLE4yAbPgr/PbsBzko6wVurPzYqFIrlMiQFLtbM/9wJpIB+hhc09VxVgLrmTUqezKzN3YV773/axNK4iIPYjVToVTKANS4ec3st2zw2n5clXmxIEMbHIq4hJXVYeMvqHzfBO5QHD40HMTOWucu1DN9XO4mcQNM/T6UOfP+QQNA6SXJjoZ5pW+Zm50jK5qdTiRy1wfK32wsosSNdMSOUS2AsoYodbmCa6JSZ9BYhtlKwAtzNBJtwOxH+i9ElXCeCqNwqu1IXs8nKSjqucuUfU90PyBEYN9zxtEH6qnQk7uTwOypw8wtLwv6RYUcR3jHFiqcu6z93alXVO72W754bT8uSrTQmCmFhMyBdAZotnA3vIxZ5ks1Rvs1ZweDZKZmiTlUlO0uYDh3CXdRwHFz/cfcNRD/r6eBk7uBDSW2KyFQmuuSx2YKToBZx7IVD4U+O1ZLN6ayRwCxMXfIWPal2BqdPapfcAc3Nki5N03EXZp5srfHLgmgX4fw4gZhQGmcqceB1IdgAFS4GCeVJg9F1A4vmxsWo4LU++2pQgiInDuBMx6R42sHLcC9mMLn3a/Hwn7iTPA8zCAEirjKQN8OJPskE/3Z9bsC+f9XF3kGeD5CZyYJEYD/Al52oLVC7uJLX44kHJ4kEWv6B3hwmrzWN9RgvxIHMrqWf/6QH22akVzx0yP+4knXQP4L6ZiQony5ytlvlnS/oKIL7L4kvUaTq9du7mSkBx8ehdM+7ZurKHAMRVZcjyXh5JebJtU4IgJgeORIxngxR8Jz2QhGXMh5/6MP8PDfFPbBDlLpqCJdJxExM8X3nhKrN3gaQuaL+PP6nsMJtLsK5evHD47N+3nQ3m18vqYIaTaypYxB7+6kEzF3eSsEYbcMnhgpHvQVN0SHJ1RRQRaZVPrquTeL+RNzRcwAbOpGo1nPg6CzD1PQ0k/5vN1l3FbLavFxDpHil+axuAGAC/ErjqJB3xADvH/3MmKhCT0u3X1nPyz8y6UPhTpS7TMdUqqxwQf8dEDN/LyGmZ5WuV4Pd9UueaSQ+xdMQ/SjE9uvibbO5lO5yUJ5s2JQhi8uBIxBQs0frZ3fVSECIA5FnEJF5mgklYyfJMDzCzsZlYSnbb7yLr287S4mJCvccL312W78pqtUybp8OXqXqbMw+uY7Enh3qprtl1mNVRwZLMq5gM6fQb8wWsLVm8LvhKNDlQutV5UHZWRNh18brgq4LU5VMH3Xoe5gUFUv9hTG74l2wlkXr5bzbpqM/haQCKZZCTPMGOCWuUsnPLQ66k2pXgcW6NcVJmdxHgVpWV16FeUKX7WRyMevWeOv4mm3vZDiflyaZNCYKYPLiKi4vTY12I0UDt4uAze7sVQ+pdidWb3enjVLJZfaNORyOgTiuuLP2+LJnS0WO1OkktaqyuW71HDMDKo99bQ19Gu7Lo89WT6w7PxPiDW+UmgtuUIIjJy6QVMQRBjB4kYgiCGA9M+rdYEwRBEAQxOSFLDEEQBEEQExKyxBAEQRAEMSEhEUMQBEEQxISERAwxZlQ3nUJ41Z6xLgZBEAQxQaGYGBXVTacQ6z+LrkMPyZ+jXYfRc3Kbo9/6QjWW30fOvyanCwBz1h1AYqhXc4wf7/1gJ6JdhzX5VzedQs/JbYh2HUbdlig+fnMdol2HbctUvrQFgXAjOvYuQWndZpQv32F7vr6MZuWs3dSJ3vf+E31tu+XrVtfRnHUHEOv7i2mdhVftQbDqftsycPrO7HJU7wRBEMTXl+v62oHqJrYVacfeJdcz25wordsMoajM8UDKr6l8aQtKF21F27MBwzlORNGXnW+hfGkLOrqUOipf2gIx1odo12GU1m1GvP9cRgFjhhi7irMvVJp+N2fdAdPjvR/sxE337Ic/VIuOvUvQ9cd/wk337AcAWchwwqv2oLiiAV92Wr+MKd5/LmP7127qtP2eIAiCIACHIqZuS1TzOdb7PiIdvzYMYhMRK4vIlMo1EPzTDdfOMRMpAFC6aCs+fnMdAKNlxwl9bbtRUvMgAuFG+VhwfpMsPvwzFsMXqjGUS22Z0Vtd6rZEMdh9zHEZ1ES7DqPt2QBqN3WifGkLek5uQ8/xJ1C+fIem/UvrNiMwe6VlvXDMyp5PCoNVKP+Hp1BcsQJuTxFSiSEMff5ndB97DNci5wEAgXAjpi98GEUz6yH4p5taoOwsaz3Hn0Bf225H6QSr16O07hEUBhfI5RnsPorO339/dCogA7w8/rJbATBhe7X9eXx++mdjUh6CIIiR4NgSE+8/h1j/WRR4bkBxxQqUL98Bd+HUSfnwK63bjOKKBnmw4mRy49Ru6kTfmV3y9x17l6B2UydK6zY7EnyBcKNs5eD/8oG0bksUPcefQLDqfk0ZzMrU17YbfW27De6k4ooGWwEROf+aaXnang1oLDg8fTVmx8wYbUvMjNt+jCmVazBw9kXEBz6Ef8ZiTK28G6GajbIFLDj/ByiuWIHhLz+B4J9umZYYu4ro5SPGa4h0OE6n7Bb2Xob+v76AxGA3plSuwZTKNbIgvN5UrPj/kIxfRd+ZXUgMdiNY/T3MrN+Goc9O52TdIwiCGEscixi1RaEwWIW53/0Dpi98WCNiwqv2YGrl3XB7iiDGriLy0V7TB3Xl3a9iSuUa01ly3ZaoZqDjVgW1oAiEG1G+tAW+UA1SiSH0//UFhP5uE77o/L1hJjx75S6U1G40CBI7yhY/DgDwFFfIx7hlxOpBH161B4J/OkoXbUXpoq2G9Jzkza0epXWbUbb4cYhDvRBjfbi0f62cBwD4gtWIdh3OWCY9ubiTBruPoW5LVI5Rqd3UaRiwfaEazTWbWSTU547UEmPXpv5QLeL953D5yFaLXwORj36FrkMPZYwTEk0sdNmmoxdsYnwAxRUNSCZyq4Nc+rOaT97+vzT9JR7pwE337Me0OZljrAiCIMYbOcXEXIucx5cfH0BJ7UYEq9cj0rFPDtqMnH8Nsc/fg3/GYpQu2opkIqoROkJRGdLJGHqOPwFfyQKU1G5ERcMz8kDthPKlLfBOuRF9Z3YhmYhi2px1cHuKTM/1TmWDtlqQ2OEP1UIc6kX08hEIN8yUj/uC1RBjVy1/13XoIcsBr7rpFMqXtmTMm8fTxPvP4ewLlahuOmWwnsT7z8nXEpjdiHj/uYzp8lgcPbWbOmWhaVb/0a7DiHYdRvnSFgTnN8mC1C7olsc9WZEPS4xdm4qxPhRXNNhav/I1WGeTTiDciMDsRgTnN+HLzrdytmBm25/16Mss+EtzSocgCGI8kHNgb3zgQ5aAj70dMDB7JQa7j2kGcn+oFlNvvNPwwD7/a+WVtN6plSiacZvjfAPhRvhCNRg4+6I8kA5/0YnwHb8wPf/S/rWO3TmAYnHi1hD5WmYsRrz/rKM0+G+51YMP2tVh+wG+5+Q2+Zq49UM/4HMXEU4C/tKbEbMoUyDcKFtHeo4/AQCmMT56y5HZDF9dLrPf6LEqE5AfS4xdm3Yfewxz7vkNypfvQOk3H8XfLv42Z7eNUFRmWAKeTXwTR22pifefyzk+Cci+P2ci8H+wN4f+7dL+vKRHEARxPcnb6iTBP9005kJvKRCHejWfE0O9llYUM3zBapauJKIAMEuQhYgBjKtonNDXthtlix+XB4zA7JWIfLTX8nyzQFB1XXAhYQe3xHDUYmGw+xgu7V+L6OXD7LgU48KDiNVwEdV3ZhcC4UY5PkbvTlJbYuzgriZurRlrSwxg3abXIudx7qValC9twbS596J00VZMm3svLr35j7LL0imCf7phSXguIobHC/GgWi5ochUi+RIwwer1mFp5N77sfItcSQRBTEhyFjFm5uzB7mOG5bVifMA2nQLPDbkWIa/MWXcAvlCNxooQ+WgvyhY/Ll+r3WCvHpj1lhhOSc2DtmXoObkNicFulC/foVnlU910CrG+vwBg7oDB7mMoX77Dcqm1OrCXI9wwE+JQryGmRS2UrMSJL1RrK+CcohcAgXAjwnf80lBPVnE72cCtR9wKkq3LEnAmuLIh0rEPkY59qNsSRXFFw5iu7iut24yZ3/p/kYxfHbOVUgRBECMlJxFTGKxCcH4TUokh+UEsxq5C8Jdm9WAuDFahuGIFYr3vW57jK1mg+cxFkfp4sHq9bT6ZzO/BqvvRd2aXIT6g5+Q22S3Td2aXbR75YkrlGgBMuHTsXcIChnX71XzZ+RaKKxqymj37Q7WI9Z9FoKjMVKxYWVAC4UYI/umIXlbyysWdxONqzr5QqdkwL3r5iHytcvp1m1FS86CtgHDqUulr243Sbz46bmI/CoNVI05jJO6kwmAVZtz2YwSr7seXnW+RgCEIYkLjWMT4Q7UIr9ojL7F2e4o0A/vV9ucxs34bqr53FF988gekrn0Bd+FUw9LNAm8xSus2w1NcgWlz7wUAXHn3Kfn7WO/78Jfdisq7XwUAeKfcCIAN7vFIById+zDrW/+KaVXfQ3I4imQiiqk33mlZ7jnrDqC4ogGe4gpTK0NxRYM8qOtjVsKr9sguIh6HMhKczOq5taC0brPsjlJbZbhlQYxdRemirYhePuxIzPhCNRg49xICs1dmVebA7Ea21Fi9hDsHd1JwfpPpcuWuQw9hzroD8pJjvpRcjPVhzroDptYTuzble/PEPn8PAItl8gTCGFQtHy9f2gLhhpnwFJWxc6S+LX71WVbxM07Smb1yF4a/6pHvh2lzmPsv17iYTP05E1XfOw63pwiJaBeSia80MT+5uMoIgiDGEscixheqkQd0s83uePBuaMEDmFnPHq6pxBC6j/6LJh1PIIzy5Tvk5dW9R/5Zt8fJcyi7pZmJlv5z6P1gJ8J3/ALFFQ1IDPUi2nUYV959CmW3NKN00VZ5iTXfvEvP8BedQEUDEoPdpt9bbc6mFxDhVXs0S40zoQ+izWYbfe7y4UuV67ZE5T1cuNWo5+Q2hFftwU337M+43Da8ag/i/eeUOB8LS4qZGAqEGx0HNHPErz4z5A9YD5Jq4QYo7rDqplOmVge7NhVjfQjMXinHsoixq4Yl3zw4nMP7drz/XFZC1Uk63qmVKKndKJ8T7z+Hz0635GxJydSfM8HjzzyBMIKBsOY7EjEEQUw0JsW7k3hA7Ejft8OtCL5QjWVaPIBXv8Gc3Q66+nJancO/N9tnhS9h14subplRp6XeNK/vzC55F+Fo12HLYF6rVyLohZvZ7/VxNpne62T3DiW7PWYIgiAIQs2EFDHcjA8Avmk3wV92K8TYVVx8486sV6AQBEEQBDExua4vgMwXajN+ItqFwe5jml1/CYIgCIKY/ExISwxBEARBEIR7rAtAEARBEASRCyRiCIIgCIKYkJCIIQiCIAhiQjLpRYxvO/tTf/Y2K5/9+wBhdeY09Od4mwHPBpNzWwH3wtzLS0xMPI9k7kfEyBlv9TzeykMQXzfGTMR4m5mAKDrE/gqWjU4+7npAPKF8ds0FUtK7I90LgeQpwPuYVujoEU+wc9QM7wQ8D2gFCxdH7m/kp+yEEffCkQ8avlb2Z4WwWumXRYe0oteMgmWA57uAd/PolIdgjLSeneK0j12v8hD25OOZkC/G072c7XMsW0YjzVxwtMTa1wq45xmPi2+zwTxbvM2AcBeQusBEBACkLmWfTiY8G4D0ACAeZJ/dCwFXCZD6VMqzHRhuB8R3AN/T7PtUuzEd8SDgXsDqIf6ocjzxCuD9PhBvZ3kVLAFiFq9xcs0CPD8EhG8B8AGIA6m/ANdagfQVpXzCd4CCm1k5zerXqi0AYPgZqawO0gFYO6Q+ZL8RVjOhxtPIJ3ZlHlqVXVrCt1nfyXcZ1STbWD0ARvFqev4J1m+SF0avTE4RVgPCHYq4Tg+weyyX+3S8cb3q2WkfG0/tnomiQ7oDJs+fiUo+nwn+FwFXOZA6DcSfHHl6Y0m2z7GJiiMRkzwFpC4C7rlsMEqdBlL9ikUjWwqWAOkerSAYDQqq2CCuv4F9T5ufz4/Hf2QUM8M7FVeR/vfq9Pn/9TeBZz0grAASbwDpT5goElayASfxMjtH+DYTOanLrNxW8IFJDxdnTtIpWMZu/ETMOp98YlXm8Uj6CiBKD3anN3/8R6NXHqd47gM8D7N7K/E8kB4EhGWsn4nvmAv0icZ4qGc14608dqQusOc4ALhDzEpdiIk/WOcL90JJwFxgFvuJTi7PsYmIIxHDB1lvMxMx4gmj6uUmtNSnbLAGAPEoMNxiTI9bB6zwNrMHL3ySJeV1IPG68TzPI8yca2U90N+cvlZ2E+c6K+WiS2898LWyAZrXkxnuuezmSDwnHThoLIf4DjvGrSJWpPvtr8FJOu6bpLQ+sU5HDbemZGs54WQqs2sWE3oFS7TCK/EKq1duveOohaPa0qS+5vQAkL5oPdv0bpP6ao6zUn2ZUheMwjzTdZmWB9b3jh3CfdLk4CfKdYgHWRnU12V3f/H6E4+ysqTa2YRFWKGUyck5AGsjdZ2YWfucPDec1DPARJywlg1EACtX4jfMYqLOHzDvG077mNPyZHqOObn2bPpPJvTPPt92JmRsy/yWNh/XLKDwScmyGmfX47kPEI8oaTtpd6d55eOZ4JSCpdI17QUK/41N9JIntOdk6mNm+F8E0l8p9eF0rLTrP/zah1Yp/489CBTU5WZRz9QW7oWA9xFtu+sxO0ffN5zklS153bHXFWJBNuLbbNAWVgDpblZA90JtrIg7pPgx04NKJ/BsUFxNqYusA3seZufoG6WgQsq3zFn53PMA8XfZXZP6wTciE2OEPTCE1dadK18zZSfpuKS6G023TDZ41kvt3q612CTPsH/Fd5jlT1jG6pGbSQHFAsX/zwWyu0KabQZNxEUIcMdZOq4bmRjOdlbKywRYi8VM16UpT4SVR1imvXecIKxmD/rEK0Yhpv7s9P5yh1g9CncByVfY+cIK7YPWyTlOsHtuAA7rmVuhBqT29zNrpHcLEJOeLZn6htM+5qg8Dus507U77T/5gA+G4tvs+twLWNwfhpRBq/BJwD1b6me9gPsWMPf4KOSVr2eCUwrmSSEOJ1g/KrhNK06c9DE9rllM8CSP6o5navcM/Sf1IYC7WPrwS+WtY/UIMFeSU5y0hfcRpd0xBBT8vUk6+nMkoZJtXtmSXxFTBMSb2UPTNQvwv8QaC1D8lhx3PeCVZgG84wCAcDtrEP5g4e4bYZlxwI0/aS8K1PAAJO9j1g8es9mNeJD98cBfK+uGe57UGBLpAW18zLVWwFfBfutZD4h/yl19ukLGgKpsZx3ub7BZu1NG6vrTlzndr1P6kvn22v82t4ak2tmfe4F089sIwWGViOPWOr01AtC6AgoqAPfNWV2SXCbAxuKV4bo4riIgJgko8SCbVfJ7JxvSvfbfO72/Ut3KgzLxsvTQ1cU1OTnHCXbPDcBZPQtrpetqVuo5uUwba5epb2TTxzKWx2E9Z7p2p/3HCe65qsUHkjspdVr5vmAJ+yw/Sw6y3xT8PRtg3AulieDbyr3ralOsCdmQKS9eXmDkzwQnuGax60u8wT6nLzJRoMZJH9Pj+aFU1g90+WVod6f9p6BOepZf1E7ms+krTts98YbS7qnPgELVohbLc/4tu7xyIa8iJnVZqTx9JQ7v1Jobrcx9PKhKTrNdGmyD5nk67bi88mAyK+fCxMnshosaNU7cVOkrQGyjpLBvZ4JHuF1r+neKq0QrCIEcRMw8bT2PNvoypy5oRUzyCCuT/yVl9pFLHAcPauZWP9cN7N+COsU/DDARpSbVD7hzmFFmdm6xRAAAIABJREFUwul1pS7nP28zsr2/rgd2zw2nuMqZSV79e72J32nfyAdO6znTtefrvgBYOmqRmWpnkyu5zCWAq94YQ5iSApd5valjIXNurwx5Afm99kwIS6U8T0r/ngc89drFHk76GKBM2NQxpPoxI1O7Z+o/akuLK8RcNq7ZAPzaOnSC03ZXhx4Y7i0H5zjJKxcm5Asgs8WzgVVe7EnWubzN2kHfs1Eyb+Vwc3g2KA8H7qO0I/Ey++PCqfDR7F1UVj54p6iXs3OXnutG5V8zq8VIyVTmxOtAsoP5pQvmSUHPd7EAVacK3TUL8P07kB5SzM/ukOK/tsXvLI9sycd1ZYNT1+pkxF1k/d2I+sYYks/+wyeOrlmA/+cAYsb7PHVauyUFwFwYo0GmvK7nvVPwTfav8G0A34b8PChYpB0X7PoYRz9h019jPuDtxu/39KAUXiGtfM2W8dTu2TLuREy6RxsZziPG0xZWAyfuJM8Dkp8O0iojaQO8+JNsr5pMQadWcDXJg6g8G4xBbVaIB5lbaSxmwDyoV+3S43i+y9R0vmemTuDm4QQUE6uVmdFsOXxBHQAfkNit9AnPBmPwoh7XLGk1l4WIdefg1lGTzXXliniQ7VcirAHEP1qL0Gzvr3zChfJokO5h7kArAZ5L37DacsFpefJVz/nuP+krgPgucwOprzE9ACBo/TzlA0227Wh2fqa8OCN9JjiFu5L1Fu6COpY3kLmPyWWWnv9cLHo2Zu/qctJ/0gNsBW66n1lmhO9I+Xebp2n1HMul3fX7ujk5x0leueBIxHg2SP5uqVKFZcwPyfcYySfin5jo4C6agiXScRM1y6PrXWXW8SW+VqPrIi5ZZIoO5RasqxcvHG5l8W1n4kgdE8OvR95ob4EU8KVapSXXs9TZuA9bHz+SiUzp8D81mfaJGenqJLM4HkC14mMbANVyb97X9HtwJP/MHjSFP1Vm1OkYW/XFbyRBunlcZYpfW1jGgv1k0/ANUjBsGXPrAcDwi8bypXskscfL51cCVwuWAa5i1TXeoFi2eB06va58kHhdund+xu6jdC8rn2u2Us/Z3F8jJdUurVjYxj5zk7O+LTLhpJ7FAyzw0f9zNkDzOud9Ppu+YdfHHJcnT/U8Wv1H/B0TMXyfK4CtfvE8zGIvkv/N6sxVzKwhqXZpX5wLgGcNgCFVYK8OJ+2eKa9srj1Te2WiYBmYwNVZePSrnzL1MT3pK0DiLWlDxObsJspO+k+6ny3QSJ5neblns+NmW1nYPcectHu6R2l3s8BeJ+c4ySsXHImYgiVaX6q7XgqkAoA8ixgeICisZHmmB1jnMhtYk92sLFbBjL7tLC0uJtR7vKQusAGZ72ZotyRNvRTR25x5IDcVRRFWj/ym4BHu6o5tqGfJTaUXYZnIVzr5xCyOB1Cu310EuFUBgrx+9A+i5AlmVRPWKOnxmVryhLRaZiWzMKV7gOFfsgA0dz0g9CuBna5yKSiTL69+2vwmGv4lW32gXgrJ8TRp61lOE0pfcnpd+SDxMrsXhDu0QeZqf3M299eIy/MbwONjdZe6oCxd1bdFJpzUs7xEfK020JRbYLPpG3Z9zHF58lTPo9V/Uu1sAudWxX2o69DzsHRiHEj9h/K7a9vZCiXPA7Bcauuk3Z3klY9nghMK/k+p3Lpr4eLIcx/7LlMfMyPxHDtXWAkk9jl30zvqP3HANQ+AFB+TuiydazIe2j3HnLTF8C9Zv1e3uz6I3/Qc3St4nOSVLa7i4uJ07j8fv3g2sE4dW69YEfQrhtSod5VVb3anTgcw2fnSBrNN8wiCICYTdgs1iK8vng1KKMdoTp4nrYghCIIgRh8SMQSghDEAYPswLTQuSR8Nxl1gL0EQBEEQEwt1GEO6h7krr8e7ucgSQxAEQRDEhMQ91gUgCIIgCILIBRIxBEEQBEFMSEjEEGNGddMphFftGetiEARBEBMUiolRUd10CrH+s+g69JD8Odp1GD0ntzn6rS9UY/l95PxrcroAMGfdASSGejXH+PHeD3Yi2nVYk3910yn0nNyGaNdh1G2J4uM31yHaddi2TOVLWxAIN6Jj7xKU1m1G+fIdtufry2hWztpNneh97z/R17Zbvm51Hc1ZdwCxvr+Y1ll41R4Eq+63LQOn78wuR/VOEARBfH25rquTqpvYVoIde5dcz2xzorRuM4SiMscDKb+m8qUtKF20FW3PBgznOBFFX3a+hfKlLejoUuqofGkLxFgfol2HUVq3GfH+cxkFjBli7CrOvlBp+t2cdQdMj/d+sBM33bMf/lAtOvYuQdcf/wk33bMfAGQhwwmv2oPiigZ82fmWZRni/ecytn/tpk7b7wmCIAgCcChi6rZENZ9jve8j0vFrwyA2EbGyiEypXAPBP91w7RwzkQIApYu24uM31wEwWnac0Ne2GyU1DyIQbpSPBec3yeLDP2MxfKEaQ7nUlhm91aVuSxSD3cccl0FNtOsw2p4NoHZTJ8qXtqDn5Db0HH8C5ct3aNq/tG4zArNXWtYLx6zs+aQwWIXyf3gKxRUr4PYUIZUYwtDnf0b3scdwLXIeABAIN2L6wodRNLMegn+6qQXKzrLWc/wJ9LXtzphOJuvXZ6db8Pnpn+Xhqp0TrF6P0rpHUBhcINfPYPdRdP7++9e1HARBEPnAsSUm3n8Osf6zKPDcgOKKFShfvgPuwqnX/SF8PSit24ziigZ5sOJkcuPUbupE35ld8vcde5egdlMnSus2OxJ8gXCjbOXg//KBtG5LFD3Hn0Cw6n5NGczK1Ne2G31tuw3upOKKBlsBETn/mml52p4NaCw4PH01ZsfMGG1LzIzbfowplWswcPZFxAc+hH/GYkytvBuhmo2yBSw4/wcorliB4S8/geCfbpmWGLuK6OUjxmuIdGSVDr93OFMr70ZKHBqTe6fsFvYCq/6/voDEYDemVK7BlMo1skAlCIKYSDgWMWqLQmGwCnO/+wdMX/iw5kEcXrUHUyvvhttTBDF2FZGP9po+GCvvfhVTKteYzpLrtkQ1Ax2fzaoFRSDciPKlLfCFapBKDKH/ry8g9Heb8EXn7w0z6tkrd6GkdqNBkNhRtvhxAICnuEI+xi0jVgImvGoPBP90lC7aitJFWw3pOcmbWz1K6zajbPHjEId6Icb6cGn/WjkPAPAFqxHtOpyxTHpycScNdh9D3ZaoHKNSu6nTMGD7QjWaazazbKjPHaklxq5N/aFaxPvP4fKRrRa/BiIf/Qpdhx7KaCkRTSx0uaSjvncC4UYEq+7HYPdRy/PtyKU/q9ELSDE+gOKKBiQTo2cdIwiCGC1yiom5FjmPLz8+gJLajQhWr0ekY58ctBk5/xpin78H/4zFKF20FclEVCN0hKIypJMx9Bx/Ar6SBSip3YiKhmfkgdoJ5Utb4J1yI/rO7EIyEcW0Oevg9hSZnuudygZttSCxwx+qhTjUi+jlIxBumCkf9wWrIcauWv6u69BDlgNeddMplC9tyZg3j6eJ95/D2RcqUd10ymA9ifefk68lMLsR8f5zGdPlsTh6ajd1ykLTrP6jXYcR7TqM8qUtCM5vkgWpXdAtj3uyIh+WGLs2FWN9KK5osLV+5RJPlEs68UiHfD9wps1hrsa/XfxNTnlm25+tCIQbEZjdiOD8JnzZ+daktKgSBDH5yTmwNz7wIUvAVwIACMxeicHuY5qB3B+qxdQb7zQ8IM//WnkFqHdqJYpm3OY430C4Eb5QDQbOvigPpMNfdCJ8xy9Mz7+0f61jdw6gzJq5NUS+lhmLEVe5BOzgv+VWDz5oV4ftB/iek9vka+LWD/2Az11EOAn4S2/WuCnUBMKNsnWk5/gTAGAa46O3HJnN8NXlMvuNHqsyAfmxxNi1afexxzDnnt+gfPkOlH7zUfzt4m9zdpMIRWWGJeDZxDdxEagmEL6dWSk79uVUpmz7sxlqy1G8/1zO8VIEQRBjTd5WJwn+6aYxF3pLgTikfU94YqjX0opihi9YzdKVRBQAZgmyEDGAcRWNE/radqNs8ePygBGYvRKRj/Zanm8WCKquCy4k7OCWGI5aLAx2H8Ol/WsRvXyYHZdiXHgQsRouovrO7EIg3CjHx+jdSWpLjB3c1cStNWNtiQGs2/Ra5DzOvVSL8qUtmDb3XpQu2oppc+/FpTf/UXZZOkXwTzcsCc9GxOgJVq+HJxDGwNkXc04DyK0/63/f17ZbDvLlgmYyBOoTBPH1ImcRY2bOHuw+ZlheK8YHbNMp8NyQaxHyypx1B+AL1WisCJGP9qJs8ePytdoN9uqBWW+J4ZTUPGhbhp6T25AY7Eb58h2aVT7VTacQ6/sLADa7H+w+hvLlOyyXWqsDeznCDTMhDvUaYlrUQslKnPhCtbYCzil6ARAINyJ8xy8N9WQVt5MN3HrErQ7ZuiwBZ4IrG6bN/UcAwN8u7c9bmiMh0rEPkY59qNsSRXFFA4kYgiAmHDmJmMJgFYLzm5BKDMkPPjF2FYK/NKsHYWGwCsUVKxDrfd/yHF/JAs1nLorUx4PV623zyWR+D1bdj74zuyD4SzXHe05uk90yfWd22eaRL6ZUrgHAhEvH3iUsYFi3X82XnW+huKIhq9gOf6gWsf6zCBSVmYoVKwtKINwIwT8d0ctKXrm4k3hczdkXKjUb5kUvH5GvVU6/bjNKah60FRBOXSp9bbtR+s1HDW07FhTNrEci2jXimJyRupPUFAar8pIOQRDEWOBYxPhDtQiv2iMvsXZ7ijQD+9X25zGzfhuqvncUX3zyB6SufQF34VQMfXZa89Au8BajtG4zPMUVmDb3XgDAlXefkr+P9b4Pf9mtqLz7VQCAd8qNANjgHo90INKxD7O+9a+YVvU9JIejSCaimHrjnZblnrPuAIorGuAprjC1MhRXNMiDuj5mJbxqj+wi4nEoI8HJrJ5bC0rrNsvuKLVVhlsWxNhVlC7aiuhlY9yFGb5QDQbOvYTA7JVZlTkwu5EtNVYv4c7BnRSc32S6XLnr0EOYs+6AvMSXLyUXY32Ys+6AqfXErk353jw8mNY/YzE8gTAGVcvHy5e2QLhhJjxFZewcqW+LX32WVfxMNunMqP8JBP/0EYvhTP05E7NX7sLwVz3y/ckDjSkuhiCIiYhjEeML1cgDutlmdzx4N7TgAcysZw/XVGII3Uf/RZOOJxBG+fId8vLq3iP/rNvj5DmU3dLMREv/OfR+sBPhO36B4ooGJIZ6Ee06jCvvPoWyW5pRumirvMTaX3arabmHv+gEKhqQGOw2/d5qcza9gAiv2qNZapwJfRBtNtvoc5cPX6pctyUq7+HCrUY9J7chvGoPbrpnf8bltuFVexDvP6fE+VhYUszEUCDc6DigmSN+9Zkhf8A6nkQt3ADFHVbddMrU6mDXpmKsD4HZK+VYFjF21bDkmweHc3jfjvefy0qoZpNOcflSAED/uZHFw2Tqz5nwTq1ESe1G+XO8/xw+O91CriSCICYkk+LdSTwgdqTv2+FWBF+oxjItHsCr32DObgddfTmtzuHfm+2zwpew60UXt8yo01Jvmtd3Zpe8i3C067BlMK/VKxH0ws3s9/o4m0zvdbJ7h5LdHjMEQRAEoWZCihhuxgcA37Sb4C+7FWLsKi6+cWfWK1AIgiAIgpiYXNcXQOYLtRk/Ee3CYPcxza6/BEEQBEFMfiakJYYgCIIgCMI91gUgCIIgCILIBRIxBEEQBEFMSEjEEARBEAQxIZn0Isa3nf2pP3ublc/+fYCwOnMa+nO8zYBng8m5rYB7Ye7lJQiCIAjCGWMmYrzNTEAUHWJ/BctGJx93PSCeUD675gIp6d2R7oVA8hTgfUwrdPSIJ9g5aoZ3Ap4HtIKFiyP3N/JTdoLg+FrZ33hAWK3ct0WHtJOCfDAaaRIEMTlxtMTa1wq45xmPi2+zwTxbvM2AcBeQusBEBACkLmWfTiY8G4D0ACAeZJ/dCwFXCZD6VMqzHRhuB8R3AN/T7PtUuzEd8SDgXsDqIf6ocjzxCuD9PhBvZ3kVLAFiFq9xcs0CPD8EhG8B8AGIA6m/ANdagfQVpXzCd4CCm1k5zerXqi0AYPgZqawO0nHNAgofBdw3K+URj+TWnpnQX3t6ABCPAonnlHOKDmmvAVAGbV7n+s9mOOmrTvOyquehVdb5W+F/EXCVA6nTQPzJ7H8/nki2sboDjOKeIAjieuJIxCRPAamLgHsue7CnTgOpfsWikS0FS4B0j/1glA8Kqtggzgctju9p8/P58fiPjGJmeKfiKtL/Xp0+/79+sPKsB4QVQOINIP0JE0XCSkC4A0i8zM4Rvs0G+tRlVm4r0gOK+FPDxZmTdAr/H3YtiVeAdK9UnruAdEwrLvKB54fs2sW3WZ8RlgGe77Lv9HkJyxRhkQvZ9NVMeVnVc7a4F0oC5gKzBE500lcAURLeJGIIghhLHIkYPsh6m9nAIJ4wPvz5TDb1KRuwADbbHm4xpsetA1Z4m9kAL8/aXwcSrxvP8zzCBkP1jFqNfsbra2UDXK7WBi669DNxXysb7Hg9meGeywYxedA+aCyH+A47Jqy2HxzS/fbX4Cgdn1QeXuaDTMQUzAMSZqdLlolsrRDuhZKAOaqUWTzI0hNWaEVMuoe5/1yzFOtUtjjpq07zylTPTilYCiAOJPYChf/GXKfJE9pzPPcBwlomdgAmohO/MZ6nxv8ikP7KaKnKdA/a3V/cSjq0Svl/7EGgoI71Jat7zQpDXm9p7xP3QsD7iGT1ipvf52bneO4zWg4z5UUQxOQjrzExrhCLBxHfZgOksEIJfnUvZIMqD5B1h5TP6ngYzwbJ1XRZETqeh82DbwsqpHzLnJXPPS9765Ha/28XN5ORCMvfLojYzJWVC07SSX0KuGezwcA1iwlCAEj+d37KwCmolvL7QJf/RSZm1TFFyTYmLoQ78lsGM65nXgXzJNfpCTa4Ftym/d5zH+vj8LE+Lx5lfcW7xTpN1yzJuvOp7rjNPQhkvr/4/eGaBcAvlbeOWeoAVm9O4SJIPMLET/IUiyPz3Kc65xHWDxOvMMFRUGeSjv6cJayuss2LIIjJR15fO+AqAuLNbGbrmgX4X2IPVUBycdylnOuuB7z17P/8AQ8Awu3swclnl9x9Y2b6jz/JHr5OZoY8UND7mLV1gj8k1YgHJcuBJGCsrBvueeyhyUkPaONjrrUCvgr2W896QPxT7rNEV8gY+JitxWC4BUg/wgY1z8NgM9znzWfCQO6uP9ds8+OpDwHcxQZctegS/8T6wPWYQWfKS1/P6f7sy+WaJbnt3pDSuGgcqIW1Up9vVqxCyWX2cWKeH7J/9eLQ7h4EnN9fBXWsbdIXtZOEbCxkBUuYO0/umweZRbLg71k/cy9k903iDaVeU58BhSpha3nOv2WXF0EQk5O8ipjUZeUhp3/YDe/UBlZaBQXz4Ec5zXY2Y0bQPE+npm3+kEPQOCBzYZI8kzkdLmrUOHFTpa8AsY3STPh2JniE24H4T7J3nbhKtIIQyF7EeDYwV5x4FECMWcY8G4D04MhiUkaK+EdWN6O1Wi2bvPT1rHG/OURYyv5NnpT+PQ946rVB5K5y1g7qfmDmRuKiSh3vo28ru3uQ52V3f6ktLa4Qs2y4ZgPws+vPBlcJ4Ko3xqTxdPgqvvQnynf663ZyjpO8CIKYnEzIF0Bmi2cDe8jFnmSDwP/P3vsHt1Gleb9fSS1ZMlISWZGTaBS9mASb2BM8gZDMrpN1gsGEwECGGpj4vrwhS7a4lEl2y8zlZTfL7q1aWE9ldyF1KyQ1wwx5gWIrmYGaybIZyAQ8SS5JvZPMQK7xxIPzA7OOxwE7tiEylmK1pPvH6dO/1C21ZNmOzfOpcsnqPjp9zunTfb79PM857WrRDvrOzZL5vQB3jnMTG1DsNyqxBNlIvMb+uHAqeSL/2Sqpc+MLirYtYIO3Pl7C/bzUFkUUMemLxtu5e0LvDklfYoOsM8faPcUg17HG284A4PgW+xTuAHAHAI+0fZm2v9lLc+elF1VilniZQuHCh1tf0iOS21aawZYvqVOZ5UyPjKeE18axCIK4NrjmFrtL92lncPCZHRg2Tp9roTqADdiJ19n/YzuZ1YG7hzz7Cw/gLD3M8h57gYmXxOtS7IyF9TzEQ9ktTBOJfZH0T0y3I8bcEcUk2SUd8xZdGRYzt4bhlPbjbOq32g0yUUz0sew3s0/hbulPCrhVu5TSfVIZFmTPK3WO9bPYIwDiTHDmi5XrKz3EZvalByXLjBR/kuo1ztNu0nbpIQB+xXrJ/7glhQsM2/XKb/RWMStprByLIIiZiSVLjHOTFDAo3fyEVexJOvXH4rsexN8wYcBdNI6V0naDm5H7OWmGSbm5md+9O9MNEJcsMqWHC1u3w2idEUCxsrifY+JIHRPD6yMvtLeEDR5J1SwtuZ2lQcG+mJUz31iMXPkkj0tBrWvZNj7F2r5C62pQU+jspFQHy1NYAyDG6m+/RZo5ZDJDTTzEBmhbGSufGqN4IEARofn21fEcKxeOVQDcmbFGPAhVLsNBFpfk+TEg/hayuDQ77+lLQOJt5g7UWxVzYeX6Sg8CtjBzfaUvsaBawHi6OZ/l5douldujWPfEN1m93M+zgPH0CGDzMmGb6lD6oXM9gFH25/gzbf5W0lg5FkEQMxNLIsaxUrvwl30FM+GIAFBkEZN4jQ0ewlp2zPQQGwSMBqBkLytLut84L/dzLC8uJtRrvPCnWj7zKNvUUS6WADZo5BrIDUXRMGtHPnilhzLjgjLaWXJT5RuLYSWfq88Drs3S7A2+2N1RIPG/rB/HKld3A85Rafrr3cZ11yMeVdaSUWMUDwQoeRXSVws9Vi4cf8E+9YGlyd+xfJ3fY/v4fuFexVIDKNZDIxI/YmmFtUBiv/W4KkvXVxyw3QhAio9JXZTSGlxnYz9ls6jUU7rlY6nq5XxMyTv1L9rfO5ukoHhp+rR+kUHDNLpXe1g5FkEQMw+b1+tNT3UhJgLnJkBYzwQMtyLoZwypUa/Qql7sTp0PkBk4mA2jRfMIghgfzk2Ki5jWgSGIrzczVsQQBDEz4C5CALCHmRVGPyWdIIivJ1+L2UkEQUxf1C7CdB+LsVK/c4wgiK8vZIkhCIIgCGJacs1NsSYIgiAIgrACiRiCIAiCIKYlJGKIKaOq6SQijXunuhgEQRDENIViYlRUNZ1EbPAMeg4/Kn+P9rSh78R2S791B6pN9w+ffUPOFwAWbTiIxGi/Zhvf3v/hTkR72jTHr2o6ib4T2xHtaUPt1ig+eWsDoj1tWcsUqmuFL9KArn0rEaxtRmj1jqzp9WU0KmfNlm70//5fMdC+R663uo0WbTiI2MBHhm0WadwLf+WDWcvAGTi9y1K7EwRBEF9fJnV2UlUTW/Kza9/KyTxsQQRrmyGUllseSHmdQnWtCC7bhvYXfRlprIiiK91vI1TXiq4epY1Cda0QYwOI9rQhWNuM+GBnTgFjhBi7jDMvVxjuW7ThoOH2/g934ob7DsATqEHXvpXoefevcMN9BwBAFjKcSONeeMP1uNL9tmkZ4oOdOc9/zZburPsJgiAIArAoYmq3RjXfY/0fYLjr5xmD2HTEzCIyq2I9BM/cjLpzjEQKAASXbcMnb20AkGnZscJA+x6UVT8CX6RB3ua/qUkWH555y+EOVGeUS22Z0VtdardGMdJ7zHIZ1ER72tD+og81W7oRqmtF34nt6Hv/aYRW79Cc/2BtM3wL15q2C8eo7MWkxF+J0J8/C294DezOUqQSoxj9/HfoPfYkrg6flctqZJXqe/9pjYXJzLLG01nJZ7KJNO5F7PPfa8o3leUhCIKYSCxbYuKDnYgNnoHDeR284TUIrd4Be8lsfH7qhxNZvikhWNsMb7g+4+afy41Ts6UbA6d3yfu79q1EzZZuBGubLQ0ivkiDbOXgn3wgrd0aRd/7T8Nf+aCmDEZlGmjfg4H2PRnuJG+4PquAGD77hmF52l/0aSw4PH81RtuMmGhLzLzb/hazKtZj6MwriA/9EZ55yzG74h4EqjdnWMB4Gs6Vnvc0+8XYZUQvHsmsw3BXXvlMFv6qjfBXPoh04qspOT5BEMRkY1nEqC0KJf5KLH7g15i79DGNiIk07sXsintgd5ZCjF3G8Mf7DF0nFff8DLMq1hs+JddujWoGOqOnSV+kAaG6VrgD1UglRjH4h5cR+OYWfNn9qwyrx8K1u1BWszmvp9Hy5U8BAJzesLyNW0bMBEykcS8Ez1wEl21DcNm2jPysHJtbPYK1zShf/hTE0X6IsQFcOHCvfAwAcPurEO1py1kmPYW4k0Z6j6F2a1SOUanZ0g3BM1eTxh2o1tTZKLZGnXa8lphs59QTqEF8sBMXj2wz+bVCfOiPWc+LaGChKyQfqxTSV9V45t4sl4cgCOLrQEExMVeHz+LKJwdRVrMZ/qqNGO7aLwdtDp99A7HPfw/PvOUILtuGZCKqETpCaTnSyRj63n8a7rIlKKvZjHD9C/JAbYVQXStcs67HwOldSCaimLNoA+zOUsO0rtls0FYLkmx4AjUQR/sRvXgEwnXz5e1ufxXE2GXT3/UcftR0wKtqOolQXWvOY/N4mvhgJ868XIGqppMZ1pP4YKdcF9/CBsQHO3Pmy2Nx9NRs6ZaFplH7R3vaEO1pQ6iuFf6bmmRBmi3olsc9mVEMS0y2cyrGBuAN11uyfnnD9fDMWw4AiP7XYQx37c+afqLzybev6imZswhAZqwSQRDETKXgwF7+tCe4ywAAvoVrMdJ7TDOQewI1mH39XRkup7M/V17V65pdgdJ5t1k+ri/SAHegGkNnXpEH0rEvuxG58yeG6S8cuNeyOwdQLE7cGiLXZd5yxAfPWMqD/5ZbPfigXRXJPsD3ndgu14lbP/QDPncR4QTgCd6MmEmZfJEG2TrS9/7TAGAY46O3HBlZAdTlMvqNHrMyAcWxxGQ7p73HnsSi+36J0OodCH7rCXxx/j8yBJe7bAkAwDP3m0juM1aTAAAgAElEQVSOjUAoLYe/8kG4ZldkCG79FHB1/7aaTzHqZQXXrOuRiPYU9FuCIIjpSNFmJwmeuYYxF3pLgTjar/meGO03taIY4fZXsXxVJvPhrv2mIgYo7Ml0oH0Pypc/JQ8qvoVrMfzxPtP0RoGg6rbgQiIb3BLDUYuFkd5juHDgXkQvtrHtUowLDyJWw0XUwOld8EUa5PgYvTtJbYnJBnc1cWvNVFtiAPNzenX4LDpfrUGorhVzFt+P4LJtmLP4flx467uyy/KLCwfwxYUDsnXKzD0qeOZmTAlXixir+eTDeKwo7kB1wQHcBEEQ05GCRYyRyXuk91jG9FoxPpQ1H4fzukKLUFQWbTgId6BaY0UY/ngfypc/Jdc122CvHpj1lhhOWfUjWcvQd2I7EiO9CK3eoZnlU9V0ErGBjwAwF89I7zGEVu8wnWqtDuzlCNfNhzjanxHTohZKZuLEHajJKuCsone3+SINiNz504x2MovbyQduPeIxVWqXpb7Nrg6fRfTikQzBkktwWc1nMvBXbZT/D9Y2A1AsRe6yJSjxV8oijiAIYqZQkIgp8VfCf1MTUolR+clRjF2G4Anm9SRZ4q+EN7wGsf4PTNPwGzGHiyL1dvUN3IhcJnp/5YMYOL0Lgieo2d53Yrvslhk4vSvrMYrFrIr1AJhw6dq3kgUM69arudL9Nrzh+rzWivEEahAbPANfabmhWDGzoPgiDRA8cxG9qByrEHcSj6s583KFZsG86MUjcl3l/GubUVb9SFYBYdXtMtC+B8FvPaE5t7Vbo7jS/Ta6f/V9eZuztBypxGjO/NQUKx81hbqTeFCvN1wPb7hes6+sZjMLPiYRQxDEDMOyiPEEahBp3CtPsbY7SzUD++WOlzB/xXZUPnQUX376a6Sufgl7yWyMfnZKM9g6XF4Ea5vh9IYxZ/H9AIBLv31W3h/r/wCe8ltRcc/PADA/P8AG9/hwF4a79mPBt/8BcyofQnIsimQiitnX32Va7kUbDsIbrofTGza0MnjD9fKgro9ZiTTulV1EPA5lPFhZ5I9bC4K1zbI7Sm2V4ZYFMXYZwWXbEL3YZknMuAPVGOp8Fb6Fa/Mqs29hA5tqrJ7CXYA7yX9Tk+F05Z7Dj2LRhoPyGjR8KrkYG8CiDQcNA46znVO+Nk/s898DYLFMTl8EI6rp4/HBTnjDa7Bw7S55GnauRfqMKFY+VuqVC33cEmA8s48gCGImYVnEuAPV8oButNgdjwEILHkY81ewm2kqMYreo3+jycfpiyC0eoc8vbr/yF/r1jj5EcpvaWGiZbAT/R/uROTOn8AbrkditB/RnjZc+u2zKL+lBcFl2+Qp1p7yWw3LPfZlNxCuR2Kk13C/2eJsegERadyrmWqcC30QbT7L6HOXD5+qXLs1Kq/hwq1GfSe2I9K4FzfcdyDnIBVp3Iv4YKcS52NiSTESQ75Ig+WAZo741WcZxwcy3UkctXADFHdYVdNJQ8tEtnMqxgbgW7hWdumIscsZU74/PfQ/EK5/AXMqH5IXxMs2LdyMYuVjpV4EQRBEJjPi3Uk8IHa879vhVgR3oNo0Lx7Aq19gLtsKuvpymqXh+40GQj6FXS+6+NO2Oi/1onkDp3fJqwhHe9pMg3nNXomgF25Gv9fH2eR6r1O2dyiNRwQQBEEQXy+mpYgJ1bXKa7i459wAT/mtEGOXcf4Xd1HwIkEQBEF8TZjUF0AWC75WDAAkoj0Y6T2mWfWXIAiCIIiZz7S0xBAEQRAEQdinugAEQRAEQRCFQCKGIAiCIIhpCYkYgiAIgiCmJTNexLifY3/q764W5btnPyCsy52HPo2rBXBuMki7G7AvLby8Mx3n47nbmyAIgiCsMGUixtXCBETpYfbnWDUxx7GvAMTjynfbYiAlvTvSvhRIngRcT2qFjh7xOEujZmwn4HxYK1i4OLJ/ozhln2k4VgHOBwBXc+F52JdOvAgS1in9svSwVvR+XZiMdiYIghgvlqZYu3cD9hszt4vvsME8X1wtgHA3kDrHRAQApC7kn08unJuA9BAgHmLf7UsBWxmQ+pN0zA5grAMQ3wPcz7P9qY7MfMRDgH0Ja4f4E8r2xOuA6/tAvIMdy7ESiJm8xsm2AHD+JSB8G4AbQBxIfQRc3Q2kL7E0wrpMsQQAYy8odTA7F/p0vL7CdwBHJWALAbFHlGMVC/du9qluFzOSx1n7Js8VfjzhDtZ31PUsFM8rrF1Sp4D4M6pytrO2BIzPx7VK6WHt91QHIL5bWFsVs50JgiAmCksiJnkSSJ0H7IvZAJo6BaQGFYtGvjhWAuk+awPfeHBUMtGiv7m7nzdOz7fHf5ApZsZ2Kq4i/e/V+fP/9QOjcyMgrAESvwDSnzJRJKwFhDuBxGva/HgaTrJduz89pIg/NVycAUxUOR+Wtp8Dku8AtrnFFzH5Ev/B1B6fY18qCZhzzDqnJn0JEKV2mk4iBmD1SZ0H4GGC2bUUsHmBxJtTXTKCIIjiY0nE8EHW1cJEjHg88wmNP5Gn/sQGawAQjwJjrZn52cqYFccMVwsb4OGWLClvGt+EnY8z94TeAsFRiwhextT5wqxHgCK6Rhsz802ezBQjauyL2QCT+JG04ZB5OdKfZn8CTg9mr4OwjgmYVAdw9d9yCxdu3dHXq1hwyxsndS5TwNoWMKHnWMn6ByfxOmtXfR5q4ViIRdBRByAOJPYBJf/IXF3J4zl/pkFtOUsPAenz5pa1VAcTo87vAXAr1wZPIx5l102qgz0gCGvMr59sqPt3YgHg3gkI31Oun1xlttrOufIhCIKYDIq6Yq8twIJsxHfYoC2sAdK9bBCyL9XGitgDis89PaIMIM5NiqspdZ4Nas7HWBr9wO4IS8ctt1Y++42A+J/51UkzEJ3KFEaWGWbxOcK63CZ6+y2Aawn7P/m7AgbXOwHEmYBx1AKoZeLSyFU2GYjvKVY7M8uGc6N03ju0VqbkaW0ewirWjtzdA2gtUFZx3ChZqI6zQdhxW/7tnPqTIsbtYVauEr8i0LhbyrkRgJv15cRrgK1SEiwfKnnZAywv4W4g+Torm7AmfxGjJn2JCSHnA4pIy1Vmq+2cKx+CIIjJoLgiphSIt7Cbp20B4HmVCRtA8bFz7CsA1wr2Px9MAEC4nQ0q/GbI3TfCqszBP/6MNVEAKMGZrifNB1L+1K9GPMT+eOCvWdyK/UbFfQOwOqjjY67uBtxh9lvnRkD8TeaxbNezT0clkP6KtZ1wN5B4SWuJsgUyg03Vlgge2+P+IXOZyPV7ydiiNdEDT6pDEVBmbW+XXDpmliOeh32JJJTHEathW8DaKPEL9j19XhJ7ecJjqjjcMmhbwOrA3VLCd1j/uPpPrJ/blzKBYl+iiLtUr/T/3ZLQCZjHPuUDd0vavNbKbLWdc+VDEAQxGRRVxKQuKjcw/Y1sbKcy0JYeNncB8EBLOc8OFj8Dv/ExrQ5mjpVSvgZPi1yY8Kf+bHBRo8aKmyp9CYhtlixNtzPBI9wOxP9OaavkCfbHB3ybgTsAYO4WtSAEMo9tCwBXn2d5meVzLZE8wgZtz6uKFU58b2KsR0KddMwT0udZwLnCPLDbDB44zS2MtuvYp6NWialRw4V6qkNx3U32DKB8yzzR+RAEQYyHGb9ODMCEg62MWW5S5zOtGM7NTFQVMmA6N7HBV7g7M4DYiMRrTMyMvcAEW4lKUKktFgATN8mT2hgRgA3yo43aPz3JdiUvs3yuJRJvsqDfxC8AxFlMlPt5KYakyDi+xT6FO1hfsEluSccy63nYFgDufwYcN7M+lTrPXKfXGmpXa7HKPF3qThDEzOeaEzHpPu1sET6LBMPG6a08yTofZq4igFks7AHFPeTZnztQ1ozSwyzvsReYkEi8zrbxIOdsiIcyLUylhwHXdm06ewBAPP+y2QPFyWcySXWwwOf4D4DY/8m2Of7MOO14FhS038w+hbulPykQ3cylpG9LOa0bSLyiWBmT19hL1G0LAGE9gDjrb4WU2aidp0PdCYL4emDJneTcJPnoJXEhrFL8+cVeR0L8DRMG3EXjWCltNwi6dD/HYmts5eYzg9y7pVlBqv3xZ9gTeOnhwoJ1ucVFPysq8Rr7cz/HxJE6JobXR15obwkTZ0nVLK3UOTYtNv24Mg3bvoIFZ+ZD6pQUc9TCjpcrn/HOTjKK0QEUYehYpcRkAMz1wMUnbz/XdgAxJQ3va/o1ZZK/Y8Kj5O+VAOB0TDXrKweOVWADsC4+SD8rh5Puk9qSl8/Dgm3TI2y/IC3SaCtXRJCwSgmCtX9DcbUI67RB7BOBfbF0LjzKmkRcwFspM7feZWvnfPIhCIKYSCyJGMdKbZChfYUU9AcARRYxPKhRWMuOmR5iA46RWEr2srKk+43zcj/H8uJiQr3GC3fJ8FVZzaZp83zsUhCyqyX3YG8oioZZO/KBMj2UGRd09TnmXnKuh7wgXiHTh6/uBkogTVO/2/hYxcQoRgdQjuds0vYfW0gJ8JUXIiwF7GuUNLzMenGSPM4GZWG9csxUB5CwWFbHX7BPfWwQH7SdurihsZ8Crq3aZQN4OcR3WBu7VjCxM/ZToGSpNAttkKVTt4vrSW0Q+0Rgv1Fpa/1id1bKzIN1s7VzPvkQBEFMJDav15ue6kJMBM5N7AYc26hYGvQzhtSoV8JVL3anzgewFvfCMVo0j5g4zGaOcSZqHZyJZqbWiyAIYrzMWBFDfP2wLcg+VXq6LqE/U+tFEAQxXkjEEARBEAQxLbnmZicRBEEQBEFYgUQMQRAEQRDTEhIxBEEQBEFMS0jEEFNGVdNJRBr3TnUxCIIgiGkKBfaqqGo6idjgGfQcflT+Hu1pQ9+J7Tl+ydK6A9Wm+4fPviHnCwCLNhxEYrRfs41v7/9wJ6I9bZrjVzWdRN+J7Yj2tKF2axSfvLUB0Z62rGUK1bXCF2lA176VCNY2I7R6R9b0+jIalbNmSzf6f/+vGGjfI9db3UaLNhxEbOAjwzaLNO6Fv/LBrGXgDJzeZandCYIgiK8vRX0BZC6qmtjSn137Vk7mYQsiWNsMobTc8kDK6xSqa0Vw2Ta0v+jLSGNFFF3pfhuhulZ09ShtFKprhRgbQLSnDcHaZsQHO3MKGCPE2GWcebnCcN+iDQcNt/d/uBM33HcAnkANuvatRM+7f4Ub7jsAALKQ4UQa98IbrseV7rdNyxAf7Mx5/mu2dGfdTxAEQRCARRFTuzWq+R7r/wDDXT/PGMSmI2YWkVkV6yF45mbUnWMkUgAguGwbPnlrA4BMy44VBtr3oKz6EfgiDfI2/01NsvjwzFsOd6A6o1xqy4ze6lK7NYqR3mOWy6Am2tOG9hd9qNnSjVBdK/pObEff+08jtHqH5vwHa5vhW7jWtF04RmUvJiX+SoT+/Fl4w2tgd5YilRjF6Oe/Q++xJ3F1+KxcViOrVN/7T2ssTGaWtb73nwaArJatz0614vNTPxxvdfLCSr0IgiBmEpYtMfHBTsQGz8DhvA7e8BqEVu+AvWT2pN+oJ4NgbTO84fqMm38uN07Nlm4MnN4l7+/atxI1W7oRrG22NIj4Ig2ylYN/8oG0dmsUfe8/DX/lg5oyGJVpoH0PBtr3ZLiTvOH6rAJi+OwbhuVpf9GnseDw/NUYbTNioi0x8277W8yqWI+hM68gPvRHeOYtx+yKexCo3pxhAeNpOFd63tPsF2OXEb14JLMOw11w+6vY/9J1wZldcQ9S4uiUXhe56kUQBDFTsCxi1BaFEn8lFj/wa8xd+pjmZh1p3IvZFffA7iyFGLuM4Y/3GbpOKu75GWZVrDd8Sq7dGtUMdPzpUi0ofJEGhOpa4Q5UI5UYxeAfXkbgm1vwZfevMqweC9fuQlnN5ryeRsuXPwUAcHrD8jZuGTETMJHGvRA8cxFctg3BZdsy8rNybG71CNY2o3z5UxBH+yHGBnDhwL3yMQDA7a9CtKctZ5n0FOJOGuk9htqtUTlGpWZLNwTPXE0ad6BaU2ej2Bp12vFaYrKdU0+gBvHBTlw8ss3k1wrxoT9mPS+igYWOw0WM+rrwRRrgr3wQI715vrFTopC+akSuehEEQcwUCoqJuTp8Flc+OYiyms3wV23EcNd+OWhz+OwbiH3+e3jmLUdw2TYkE1GN0BFKy5FOxtD3/tNwly1BWc1mhOtfkAdqK4TqWuGadT0GTu9CMhHFnEUbYHeWGqZ1zWaDtlqQZMMTqIE42o/oxSMQrpsvb3f7qyDGLpv+rufwo6YDXlXTSYTqWnMem8fTxAc7ceblClQ1ncywnsQHO+W6+BY2ID7YmTNfHoujp2ZLtyw0jdo/2tOGaE8bQnWt8N/UJAvSbEG3PO7JjGJYYrKdUzE2AG+43pL1yxuuh2fecgBA9L8OY7hrf9b0auLDXXJf58xZxNyIX5z/peV81OTbV80YT70IgiCmEwUH9nJzteAuAwD4Fq7FSO8xzUDuCdRg9vV3ZZjWz/5ceV2xa3YFSufdZvm4vkgD3IFqDJ15RR5Ix77sRuTOnximv3DgXsvuHEB5subWELku85YjrnIbZIP/lls9+KBdFck+wPed2C7XiVs/9AM+dxHhBOAJ3qxxZajxRRpk6wiP4TCK8dFbjoysAOpyGf1Gj1mZgOJYYrKd095jT2LRfb9EaPUOBL/1BL44/x8ZgstdtgQA4Jn7TSTHRiCUlsNf+SBcsysyBLd+Cjjv31zgqfFFbmcWyAJFQ759VY/VehEEQcwUijY7SfDMNYy50FsKxNF+zffEaL+pFcUIORZB5fMf7tpvKmKAzFk0Vhho34Py5U/Jg4pv4VoMf7zPNL1RIKi6LbiQyAa3xHDUYmGk9xguHLgX0YttbLsU48KDiNVwETVwehd8kQY5PkbvTlJbYrLBXU3cWjPVlhjA/JxeHT6LzldrEKprxZzF9yO4bBvmLL4fF976ruyy/OLCAXxx4YAsQszco4JnbsaUcDNrm79qI5y+CIbOvJKz7IXUywpW60UQBDFTKFjEGJm8R3qPZUyvFeNDWfNxOK8rtAhFZdGGg3AHqjVWhOGP96F8+VNyXbMN9uqBWW+J4ZRVP5K1DH0ntiMx0ovQ6h2aWT5VTScRG/gIALMAjPQeQ2j1DtOp1urAXo5w3XyIo/0ZMS1qoWQmTtyBmqwCzip6AeCLNCBy508z2sksbicfuPWIx1SpXZb6Nrs6fBbRi0cyBIsVwcWZs/i7AJiQmCqs1osgCGKmUNCKvSX+SvhvakIqMSo/OYqxyxA8QXkA5X/ZTOsl/kp4w2sQ6//ANA03kXO4KFJv91dtzFreYG1z1v3+ygcRG/gow2rUd2I7xNF+BJdtK8ogboVZFesBKBaNSOPejPVquFDMZ60YT6BGFmgDp3eh/UWf5s8stsYXaYDgmYvoReVYwWXbULs1avhnNi05VNcqW1j4jK1oTxuiF49kWG+Ctc05LTq5zilnoH0PEtEeCJ6gvK12axQV9/xMk85ZWo5UYtRSnkaUzl+BRLSnoPV71FitlxETUS+CIIhrGcuWGE+gBpHGvfIUa7uzFAOnd8n7L3e8hPkrtqPyoaP48tNfI3X1S9hLZmP0s1OaG7vD5UWwthlObxhzFt8PALj022fl/bH+D+Apv1W+GbtmXQ+ADe7x4S4Md+3Hgm//A+ZUPoTkWBTJRBSzr7/LtNyLNhyEN1wPpzdsaGXwhutlC4Q+ZiXSuFcelHkcyniw8lTPrQXB2mbZHaW2ynDLghi7jOCybYhezIzNMMIdqMZQ56vwLVybV5l9CxvYVGP1FO4C3En+m5oMpyv3HH4UizYclNeg4VPJxdgAFm04aBhwnO2c8rV5eMCtZ95yOH0RjKimj8cHO+ENr8HCtbvkadi5FunLxrwVfwfBM1dzPRRCrr6ai2LXiyAI4lrHsohxB6rlAd1osTvucw8seRjzV7AbcCoxit6jf6PJx+mLILR6hzy9uv/IX+vWOPkRym9pYaJlsBP9H+5E5M6fwBuuR2K0H9GeNlz67bMov6UFwWXb5CnWnvJbDcs99mU3EK5HYqTXcL/Z4mx6ARFp3KuZapwLfRBtPsvoc5cPn6pcuzUqr+Hir3xQzivSuBc33Hcg55TcSONexAc7lTgfk8BcIzHkizRYDmjmiF99lnF8wDyeRC3cAMUdVtV00jDQNds5FWMD8C1cK7tQxNjljCnfnx76HwjXv4A5lQ/JC+JlmxaeC2+oDgAw2Dm+eJhcfTUXxa4XQRDEtc6MeHcSD4gd7/t2uBXBHag2zYsH8OoXmMu2gq6+nGZp+H6jgYdPYdeLLm6ZUeelXjRv4PQueRXhaE+baTCv2SsR9MLN6Pf6OJtc73XK9g4lGnQJgiAIq0xLEROqa5XXcHHPuQGe8lshxi7j/C/ukmegEARBEAQxs5nUF0AWC75WDAAkoj0Y6T2mWfWXIAiCIIiZz7S0xBAEQRAEQRQ0xZogCIIgCGKqIRFDEARBEMS0hEQMQRAEQRDTkhkvYtzPsT/1d1eL8t2zHxDW5c5Dn8bVAjg3GaTdDdiXFl7emY7z8dztTRAEQRBWmDIR42phAqL0MPtzrJqY49hXAOJx5bttMZCS3h1pXwokTwKuJ7VCR494nKVRM7YTcD6sFSxcHNm/UZyyzzQcqwDnA4Cr8JX1YV86vUSQezf7M0NYp1wDpYe1ArsYTESeE13m6cB064cEMVOxNMXavRuw35i5XXyHDeb54moBhLuB1DkmIgAgdSH/fHLh3ASkhwDxEPtuXwrYyoDUn6RjdgBjHYD4HuB+nu1PdWTmIx4C7EtYO8SfULYnXgdc3wfiHexYjpVAzOQ1TrYFgPMvAeHbANwA4kDqI+DqbiB9iaUR1mWKJQAYe0Gpg9m5UKezLQBKngDsNyvHEo8Udq5ywQdodbuYkTzO2jd5rvDjCXewvsPboxCyteFoY+H5FkKynZ03wPjcTyWeVwBbCEidAuLPKNuv5TJno/Sw9nuqAxDfLawvFaMfEgQxfiyJmORJIHUesC9mN//UKSA1qFg08sWxEkj3WRv4xoOjkokW/c3L/bxxer49/oNMMTO2U3EV6X+vzp//r7/xOzcCwhog8Qsg/SkTRcJaQLgTSLymzY+n4STbtfvTQ4r4U8PFWcn/xcqZeB1I90vHuhtIx4DEj4zrPlnEfzC1x+eYteGkl+MSIEoi9loSBPalkoA5x6yXaq7VMlshdY7dy+BhDxSupYDNCyTenOqSEQRRCJZEDB9kXS1MxIjHM59A+BN56k9ssAYA8Sgw1pqZn62MWXHMcLWwAR5uyZLypvFNxvk4c0+oLRVq1CKClzF1vnCLBBdd+qd19242IOrFiBr7YnYDlUXEIfNypD/N/oSXHsxRB7d0LF6eQ0zEOG4EEkbJJcvERFkhuOWNkzqXKWBtC5jQc6xk/YOTeJ3VQ5+HWjgWYhHM1YZW+rPacpYeAtLntZY1Na7tUj4GFjirZFwXb2v7nH0p4HpcsjLFxzcwO+qkPPYBJf/IXIHJ4zl/piFX+6j3pzqYWHd+j9WPtzVPIx5l7ZfqYA9Qwhrz+0s21Nd/YgHg3gkI31PaKleZrfbDfPoGQRCFU9QVe20BFmQjvsMGbWENkO5lN1r7Um2siD2g+JTTI8oN0rlJcTWlzrNBzfkYS6Mf2B1h6bjl1spnvxEQ/zO/OmlutKcyhZFlhll8jrAutwnafgvgWsL+T/4u/8Ej9Sf2lOn8HiCeAIT7pbz+d/7FLgbie4rVzuzJ3blROu8dWgtJ8rQ2D2EVa0fuzgAUC1Sxydaf+XG5GLeHWblK/AYCLQDY46zMtuuZ8C5Bfn2JD57iO6wd7EtYTBZGlQHY9ThgX8iEH0YBx58VXnfHjZK79zgbhB23FdYPs7UPd0s5NwJws2s98Rpgq5QEy4dKXvYAy0u4G0i+zsomrMlfxKhJX2JCyPmAItJyldlqP7TaNwiCGB/FFTGlQLyF3RxsCwDPq+wGDig+ZI59BeBawf7nN0sAEG5nN01+sXP3jbAqc/CPP2NNFABK8KHrSfOBlD/1qxEPsT8e+GsWt2K/URpUJNJD2viYq7sBd5j91rkREH+TeSzb9ezTUQmkv2JtJ9wNJF7SPlXbApnBlGqrwlgrkH6cCULnY2BP1C+ZP5lP9I011aG458za3i65LK7+m/HTKs/DvkQSFuOMRdC3YXrQ4Hxk6c+8TGMqtyO3DNoWZNZB7UZzhKV4pTxwrGQiWj7Ph1ibOf6MnVf7UtYHE79QiazPgJICZsrZFkjuyF+w7+nzgKM2/3xytQ93SwnfYWW/+k/sPmBfygSKfYkiflO90v93S0InYB7XlA/cbWvzWiuz1X6YT98gCKJwiipiUheVC1R/oY7tVG7ApYfNXQA8kFDOs4PFz8BvfEyrgxkfBGDwNMSFCX/qzwYXNWqsuKnSl4DYZsnSdDsTPMLtQPzvlLZKnmB/fMC3GZi7AeZuUQtCQHts5yZ2wxSPAoixp1jnJmNr1rVC8ggblDyvKlY48T3jQOtioG9DjfuNb8vSnwFpsP2OYmG0Xcc+HbVKzAjABJIm30HA7s6/vLYVBsGpUpA0L4MmlipPywlHqJN+f0L6PAs4V5gHvpthtX305U11KK7NyZ4BlG+ZJzofgiCyMy1fAJkvzk1sEIg9w56+XS26QX+zZKYvYMB0bmKDr/1GNijmiitJvMb+uHAqeUJxK+iPn77EXCt6wWIUU8KxLWACSR8v4H5equc1KmISbwLJLhaL4bhRCno2sEIVi2xtaAXbAsD9z0B6VHF/2QNMhOfEU9gxU6e0ywUATJgWG8e32KdwB4A7IJfXscz6NTKu9plE1K7oYpV5utSdIGYC15yISfdpZ0PwWRLpU8bprbiTnA9LcQKQZhlJC+DFn2Fr1eQMlDWBPxXzwGLnJrbNygApHpJiAVQWptLDmeLDHgAQt14m+yLpn5huR4y5R65luKk+AcV9w90levK1ChQbRy0AN5DYo/Q/5ybmJp9op/gAACAASURBVM2GbQGLVzIruz1gvD09BMBv3te5mOEuSaDwtZe4q0svnh21xoHhRmUutH0mE9sCQFgPtgTBIcnqk2eZjfrhdKg7QcwULIkY5ybJBy2JC2GV4q8u9pO9+BsmOriLxrFS2m5gGnc/x24MtnLzmUHu3ZmugrhkkSk9XFiwrl68cLiVxf0cE0fqmBheH3mhvSVMnCVVs7RS59gAl35cmYZtXyG5hSySPM6EoLCWiTM+xdq+QuumUzPe2UlGMTqAIgwdq5SYA4CZ1rmbgLefazs0wov3Nf2aMsnfscG15O+Vp9xCpo7nKnMuuGgQJKFgK1fiRoRVLLBTdgtK9bWVMxciAIy9YpBnnxQrxtvCowha8U0W3+R+ngVop0dYmya7pGBo6bw71wMYRcGBvY5VYAOwzgKmn5WTq8xW2gdg7hbuahHWaYP8JwL7Yum8e5Q1m/gDTj7nNFs/zCcfgiDGhyUR41ipDaKzr5CC2gCgyCKGB+0Ja9kx00PshmoklpK9rCzpfuO83M+xvLiYUK/xkjrHBm2+6qjZNG2eD3+KcrXkHuwNRdEwa0c+EKSHMuOCrj7H3EvO9VAWqStg+vDV5wHXZmW6KuJMCCX+V375WMUoRgdQyu1s0vYfW0gJ8JUXIiwF7GuUNLx99OIkeZwNOsJ65ZjcelPMMucieVyaLbOWBain+4Cxn7JAWvsKQBhUAjvl+vLp1c8bD2JjPwVcW7VTujnyFOB7pWBtSPn9i/b3ziYpwFyaYp1v8KvjL7THk+srDdpOXXyWWZmttA+gPQeuJ7VB/hMBd/0CmYvd5XNOs/XDfPIhCGJ82Lxeb3qqCzERODexG0xso2Jp0M8YUqNexVW92J06HyAzsDIbRovmEQRBEARRHGasiCEIgiAIYmYz499iTRAEQRDEzIREDEEQBEEQ0xISMQRBEARBTEtIxBAEQRAEMS0hEUNMGVVNJxFp3DvVxSAIgiCmKTQ7SUVV00nEBs+g5/Cj8vdoTxv6Tmy39Ft3oNp0//DZN+R8AWDRhoNIjPZrtvHt/R/uRLSnTXP8qqaT6DuxHdGeNtRujeKTtzYg2tOWtUyhulb4Ig3o2rcSwdpmhFbvyJpeX0ajctZs6Ub/7/8VA+175Hqr22jRhoOIDXxk2GaRxr3wVz6YtQycgdO7LLU7QRAE8fVlUl87UNXElrbs2rdyMg9bEMHaZgil5ZYHUl6nUF0rgsu2of1FX0YaK6LoSvfbCNW1oqtHaaNQXSvE2ACiPW0I1jYjPtiZU8AYIcYu48zLFYb7Fm04aLi9/8OduOG+A/AEatC1byV63v0r3HDfAQCQhQwn0rgX3nA9rnS/bVqG+GBnzvNfs6U7636CIAiCACyKmNqtUc33WP8HGO76ecYgNh0xs4jMqlgPwTM3o+4cI5ECAMFl2/DJWxsAZFp2rDDQvgdl1Y/AF2mQt/lvapLFh2fecrgD1RnlUltm9FaX2q1RjPQes1wGNdGeNrS/6EPNlm6E6lrRd2I7+t5/GqHVOzTnP1jbDN/CtabtwjEqezEp8Vci9OfPwhteA7uzFKnEKEY//x16jz2Jq8NnAQC+SAPmLn0MpfNXQPDMNbRAZbOs9b3/NAba98BftRHB2sfhKb8VABOJlztewuenfiin5WlK/Evk8oz0HkX3r74/QS1gDd4GnrnfhNMXwcf/fqvcPgRBENMFy5aY+GAnYoNn4HBeB294DUKrd8BeMltzw54pBGub4Q3Xy4MVJ5cbp2ZLNwZO75L3d+1biZot3QjWNlsSfL5Ig2zl4J98IK3dGkXf+0/DX/mgpgxGZRpo34OB9j0Z7iRvuD6rgBg++4Zhedpf9GksODx/NUbbjJhoS8y82/4WsyrWY+jMK4gP/RGeecsxu+IeBKo3yxYw/03/Hd7wGoxd+RSCZ65pXmLsMqIXj2TWYbgLABBe8/8gGb+MgdO7kBjphb/qIcxfsR2jn52Sz0f5LewFTYN/eBmJkV7MqliPWRXrZUE4FXBrIcDOx8jZN+DyLSQRQxDEtMOyiFFbFEr8lVj8wK8xd+ljGhETadyL2RX3wO4shRi7jOGP9xneqCvu+RlmVaw3fEqu3RrVDHTcqqAWFL5IA0J1rXAHqpFKjGLwDy8j8M0t+LL7VxlP1AvX7kJZzeYMQZKN8uVPAQCc3rC8jVtGzARMpHEvBM9cBJdtkwcIdX5Wjs2tHsHaZpQvfwriaD/E2AAuHLhXPgYAuP1ViPa05SyTnkLcSSO9x1C7NSrHqNRs6c4Y+N2Bak2djSwb6rTjtcRkO6eeQA3ig524eGSbya+B4Y//HT2HH80ZJyQaWOjUfPrO/6Fp+/hwF2647wDmLNqgEbKaPOND8IbrkUwU1gaF9Gc1wdpmBJdtQ6z/A/zXu4+RcCEIYlpTUEzM1eGzuPLJQZTVbIa/aiOGu/bLQZvDZ99A7PPfwzNvOYLLtiGZiGqEjlBajnQyhr73n4a7bAnKajYjXP+CPFBbIVTXCtes6zFweheSiSjmLNoAu7PUMK1rNhu01YIkG55ADcTRfkQvHoFw3Xx5u9tfBTF22fR3PYcfNR3wqppOIlTXmvPY/Ak5PtiJMy9XoKrpZIb1JD7YKdfFt7AB8cHOnPnyWBw9NVu6ZaFp1P7RnjZEe9oQqmuF/6YmWZBmC7rlcU9mFMMSk+2cirEBeMP1Wa1fhcQTWclH8ARN0/oiDfAtbID/piZc6X67YAtmvv1Zj7/qIaQSo/ivdx/DrMgdQOQOxIe7itYmBEEQk0nBgb3xoT+yDNxlAADfwrUY6T2mGcg9gRrMvv6ujBv22Z8rryt2za5A6bzbLB/XF2mAO1CNoTOvyAPp2JfdiNz5E8P0Fw7ca9mdAygWJ24Nkesybznig2cs5cF/y60efNCuimQf4PtObJfrxK0f+gGfu4hwAvAEb0bMpEy+SINsHel7/2kAMIzx0VuOjJ7w1eUy+o0eszIBxbHEZDunvceexKL7fonQ6h0IfusJfHH+Pwp22wil5RlTwLNZZnz/jb3e/IsLBzTb1Raf+GBnwfFJQP79WY+n/FbE+j/Aovt+CacvIm//7FTrjHQNEwQxsyna7CTBM9cw5kJvKRBH+zXfE6P9plYUI9z+KpavJKIAMEuQiYgBMmfRWGGgfQ/Klz8lDxi+hWsx/PE+0/RGgaDqtuBCIhvqWAVAKxZGeo/hwoF7Eb3YxrZLMS48iFgNF1EDp3fBF2mQ42P07iS1JSYb3NXErTVTbYkBzM/p1eGz6Hy1BqG6VsxZfD+Cy7ZhzuL7ceGt7+btOhE8czOmhJuJGH/VRsyuuAdXut/OsGrweCEe5MsFTaFCZLwB9YIniItH/hrRnjZT1zBBEMR0oGARY2TOHuk9ljG9VowPZc3H4byu0CIUlUUbDsIdqNZYEYY/3ofy5U/Jdc022KsHZr0lhlNW/UjWMvSd2I7ESC9Cq3doZvlUNZ1EbOAjAMyFMdJ7DKHVO0ynWqsDeznCdfMhjvZnxLSohZKZOHEHarIKOKvoBYAv0oDInT/NaCezuJ184NYjbgXJ12UJWBNcADvf87/9fyMZv5x11tFw134Md+1H7dYovOH6KZvdN3JJcS9eHT6L6MUjltfvIQiCuJYoSMSU+Cvhv6kJqcSofCMWY5cheIJ53ZhL/JXwhtcg1v+BaRp32RLNdy6K1Nv9VRuzHieX+d1f+SAGTu/KiGnoO7FddssMnN6V9RjFYlbFegBMuHTtW8kChnXr1VzpfhvecH1ecQyeQA1ig2fgKy03FCtmFhRfpAGCZy6iF5VjFeJO4nE1Z16u0CyYF714RK6rnH9tM8qqH8kqIKy6VAba9yD4rSeyxqsUSom/EvNu+1v4Kx/Ele63LU2bLvFXjvu443EnAYCztDzjeyoxOt5iEQRBTDqWRYwnUINI4155irXdWaoZ2C93vIT5K7aj8qGj+PLTXyN19UvYS2ZrppsCgMPlRbC2GU5vGHMW3w8AuPTbZ+X9sf4P4Cm/FRX3/AwA4Jp1PQA2uMeHuzDctR8Lvv0PmFP5EJJjUSQTUcy+/i7Tci/acBDecD2c3rChlcEbrpcHdX3MSqRxr+wi4nEo48HKUz23FgRrm2V3lNoqwy0LYuwygsu2IXqxzZKYcQeqMdT5KnwL1+ZVZt/CBjbVWD2FuwB3kv+mJsPpyj2HH8WiDQflKcd8KrkYG8CiDQcNrSfZzilfmyf2+e8BsFgmpy+CEdX08VBdK4Tr5suDOe/b4lef5RU/U/nQ+7A7S5GI9iCZ+EoTP8OtTgvX7sLYV33y9TBnEXP/FRoXk6s/52Kk9xi84XpEGvfKAfi5FigkCIK4VrEsYtyBanlAN1rsjvvTA0sexvwV7OaaSoyi9+jfaPJx+iIIrd4hT6/ul3zznIH2H6H8lhYmWgY70f/hTkTu/Am84XokRvsR7WnDpd8+i/JbWhBctk2eYs0XHNMz9mU3EK5HYqTXcL/Z4mx6ARFp3KuZapwLfRBtPsvoc5cPn6pcuzUqr+HCrUZ9J7Yj0rgXN9x3IOd020jjXsQHO5U4HxNLipEY8kUaLAc0c8SvPss4PmAeT6IWboDiDqtqOmlodch2TsXYAHwL18ruETF2OWPKNw8O5/C+HR/szEuo8lgupy8CvypIVl1X1+wKlNVslrfHBzvx2anWgi0pufpzLnqPPYlw/QuYXXEP/JUPGrYPQRDEdGFGvDuJB8SO93073IrgDlSb5sUDePULzGVbQVdfTrM0fL/RoMKnsOtFF7fMqPNSL5o3cHqXvIpwtKfNNJjX7JUIeuFm9Ht9nE2u9zple4cSDagEQRCEVaaliOHuAABwz7kBnvJbIcYu4/wv7qLFuwiCIAjia8KkvgCyWKjdAYloD0Z6j2lW/SUIgiAIYuYzLS0xBEEQBEEQ9qkuAEEQBEEQRCGQiCEIgiAIYlpCIoYgCIIgiGnJjBcx7ufYn/q7q0X57tkPCOty56FP42oBnJsM0u4G7EsLLy8xc3E+nruvEV9PqG8QRGFMmYhxtTABUXqY/TlWTcxx7CsA8bjy3bYYSEnvjrQvBZInAdeTWqGjRzzO0qgZ2wk4H9YKFi6O7N8oTtkJBWGd0ldKD2uFaD5pio19qbXBx7EKcD4AuJonvkzTDattOF3Itx8Wo29MpzaciuuUmLlYmmLt3g3Yb8zcLr7DBvN8cbUAwt1A6hwTEQCQupB/PrlwbgLSQ4B4iH23LwVsZUDqT9IxO4CxDkB8D3A/z/anOjLzEQ8B9iWsHeJPKNsTrwOu7wPxDnYsx0ogZvIaJ9sCwPmXgPBtAG4AcSD1EXB1N5C+pJRP+A7guJmV06h9zc4FAIy9wMrqWAU4v6sIrPQQIL4JJN7Upne1MEEnHmI3FteTSh7FRlgHCHdqy5Q8ab3/JNtZ2YBMQZlPmmIj3MH6cq42Sx5nfSt5bnLKZUa2/jPaOLll4Vhtw2yUHmaf6v7r3s0+1dfsZJBvPyxG3yhmG8oY3KOKwVRcp8TMxZKISZ4EUucB+2J2A0ydAlKDikUjXxwrgXTfxN9cHJVMDOgvTvfzxun59vgPMsXM2E7FVaT/vTp//n/qFBB/Rtnu3AgIa4DEL4D0p0wUCWvZwJ54jaUR7mAiJ3WRldsMLgD0cHFW8j9ZmsTrQLqfHcP5GJDsUurlWMVueomY+XGKhfN77PjpPiDxEpAeAYRVrP7ie8bCUU/6EiBKN1KzG5+VNFNJ/AdTXQKGWf+ZCQirJkaE50Mh/fBa6Rupc+xeDwD2ALNkl0B7Lxsv1/p1SkwvLIkYPsi6WpiIEY9n3ij4U0/qT2ywBgDxKDDWmpkftzKY4WphAxzc5lYEgPmRnQ+YWw/0F557N7tAC7EeAYro0j+xunezQYG3kxH2xewGkfiRtOFQZjnE99g2bhUxIz2YvQ7xv9cKg9SfmPBy1Cnb7TdIeX1qno8a/gRfyNO68D1JtP6d8kQnHmLWKfUTntXzXgwyjvV25vlzfg8Q7gVsIfY91QEkfsmenLk1kaMWsmoLmj5d6pyxeM9V93yur1xk6z+OVUDJPzIBrG4P93NsQIs9opyzXG2Yq8xW29ByvfpYGfX9iqO+rtJDQPq81srA94tHWXlTHexhTViT2dZW+k8urPQN2wL2AORYqX2w4een2G2ovz/y855R7jzPe+pUfhYd5ybmrr/6T+x605dH3Q+JrzdFXbHXFmBBNuI7bNAW1gDpXtbB7Uu1sSL2gOLDTY8oHdW5SXE1pc6zi9f5GEujFyqOsHTccmvls98IiP+ZX53UNz69dSUvhtnFJ6wzf1K0YpGwgj4f2+zMNDap7Sb6qVVYx26+idczbzrq7/mc9/HCb/ziO8yaaF/CbpgYVYSDbD0akgS3h1nJXFuB2HHJgvRH9uRvX6GYxwHFIgYo6QBzYWq17tmur2KRPM7q7KgFEqrt9ptZv9IImBxtmKvMVtvQctnbAQe01k01qT8pD0/2sGRl8GcKB3uApRPuBpKvs/MirMkUX7nqngtLfWOj1Dc6tNaz5GltHsVqw1zkdd7jrDz2Jew3zlHrolt8V7oG12lFjG2xth8SRHFFTCkQb2EdzLYA8LzKOjOg+Gw59hWAS1L4qXNKRxVuZzdRfmPh7hsjM3H8meyiQA0PHnM9aX7D0D99Aixv8ZAS+GtmJbHfKF3MEukhbXzM1d2AO8x+69wIiL8pfPCxBTKD4bI9cTluY59J1Rua7d9gT65WGa/rL92ffX8+5328OFYyQSq32SE2wDr+TLkRC/dK5WlRbpjJVUrsVqqD/dmXSIN0FmHKRaVZv7Na92zXVz7o+096UNsXkx+xQZtbNByrALiZSOBYacNcZbbahvkg/oa1p6GIkWLgONySq7fcpHolcXE3y8cW0MYRWa17Lqz0Dfti9nn134wH7mK3oX2xaoKC5E5KnVL253PeYz9QpQmzh4Axi+VIX2LxOPabVcdeJVnx3y6wcsSMpKgiJnVRudD0F9zYTqXjlx42N3XaQtqLJtUhDbZ+42NavWj5xQeDJy8uTPjTTTa4qFFjxU2VvgTENktP3bczwSPcrnWxWMVWphWEQHb3gLCWmcPVFhoe23StkO95H9exygDbisxYqZQqsNIWYm2mPjfqJ8Kilsdi3bNdX3kdT9d/Uud0Iub/ZSJGqGMDk+MvAMS1aay0YTHLbBXxXXZtGc125IHz3CJsu459OmqVGA0rWK17MUgeYdeq51XFUmc1jqwQ7DdqBVuqgz2AcfI575rvvfkvPSEeZw+6zk2s7/GHMfHd/PIhZjbT8gWQ+eLcxC6+2DPsKcPVoh30nZsl82gBNwbnJuXCF+7OHTOSeI39ceFU8kT+LiqzuAo9wjo2bTM9pDXjqm/w3KVnu175NIspGA9WXX6TReqUduo9wNw3auylk1eeySRX/5FdSt+SRMzN7Kk4Ix8LbTjZpC+xcjl1041tCwD3PwPpUcUtYw8o8U75Mll1T7zJAvIddYDjRmkywN0sQH4i4sX4w6VtAeD5MYBY5r1gsuouHmL3Zu7adNSSK4nI5JoTMek+5vfk2JeyG03axGpgxZ3kfJi5igBplpG0AF78GbZWTa5AWTP00zqdm9g2KyJDPMTcShNiaVig+NKNgj95UK/apcdxPsCCffN5Ms2GeIgJKWE9e4IyuwHle97tFtwoZmnSQwD82ftNuo+Zsq0KOrPp+VbIt+6TQfIjZv7nyxKI/592v5U2zJfxtKEa8bgk3kfZtQ2wARBuILFHKbNzU2bQqhXyrbuVvpoN7jJKQHHJmbmuitWG6UuA+FtmkVPnabXu9oW67wEAcZO0WdpHPMruScI6yTr6G6s1IL4uWBIxzk2SX1i60QqrmA+WrzFSTMTfMNHBXTSOldJ2A1M+j1S3lZvHl7h3Z5rL45JFpvRwYcG6RmtSAIqVxf0cE0fqmBheH3mhvSXsokyqZmnJ7Sxd1Nw/rY9ZyIXnx2AzB/oAxLTxD2M7lXKqybVOzHhmJyXelM7pD9n5TfcDNi9gW6iIx3zOO5+F4trO6gdPplDLlkZ8kwXOup8Hkv+bPUXavNop6OJBlsbzY3YzhzQVPSN+5HdMLJb8vfKEn44ps9Acq1jeHNt1ivWLt3M+dS8GRjFVgFbIi//JBjDX42CuJN2AaaUNrZKrDfOFP8HbyhQRwy0FgmSFtJVLwkbalk8QbD51z9YPrfQN+XcS/B6sX1Om2G0IqPqAtBZWPnVPj7I04rtSvI4utkZOl+NaTp5gIsYp3UvJlUTosSRiHCu1flL7CimIDACKLGJ4IJ2wlh0zPcRMp0YDa7KXlcUsaNT9HMuLiwn1Gi+pc2xA5qtGZlvkTT3N0NWSeyA3FEXDrB15LAKf9aIeODLaWXJT6UVYTtzswxYCBJ25vNDp5eMh8ZpqvRpV8LPaj57PeR/7KZslpJ62m08adfCu8zFpYxxI/YtxGp4HoFj0OMnjbJuwXjm3/KkZAJxN2nNqCylBnLxu+dS9GBjFVAHavsHjcsxip6y0oVVytWEh8Cd49THEd1gbu1awuo39FChZKs0azGPdq3zqnq0fWukb9lLArup//L6hFycT0YapDnbu7SsUa4zVuqcHWRyMemanOraGk+talgOXl5IriTDG5vV601NdiInAuYld0LGNihVBP2NIjXolU/Vid+p8AINVLbNgtGgeQRDETKbYKyXzNWMmajVxYnozY0UMQRAEMfkUQ8QI65ibzxZWZu8Vc9VgYuZwzQX2EgRBEF9v7EukBRYvAqLB+l0EwSFLDEEQBEEQ0xL7VBeAIAiCIAiiEEjEEARBEAQxLSERQ0wZVU0nEWncO9XFIAiCIKYpFBOjoqrpJGKDZ9Bz+FH5e7SnDX0ntlv6rTtQbbp/+Owbcr4AsGjDQSRG+zXb+Pb+D3ci2tOmOX5V00n0ndiOaE8bardG8clbGxDtactaplBdK3yRBnTtW4lgbTNCq3dkTa8vo1E5a7Z0o//3/4qB9j1yvdVttGjDQcQGPjJss0jjXvgrH8xaBs7A6V2W2p0gCIL4+jKps5OqmthSkl37Vk7mYQsiWNsMobTc8kDK6xSqa0Vw2Ta0v+jLSGNFFF3pfhuhulZ09ShtFKprhRgbQLSnDcHaZsQHO3MKGCPE2GWcebnCcN+iDQcNt/d/uBM33HcAnkANuvatRM+7f4Ub7jsAALKQ4UQa98IbrseVbvPXzMYHO3Oe/5ot3Vn3EwRBEARgUcTUbo1qvsf6P8Bw188zBrHpiJlFZFbFegieuRl15xiJFAAILtuGT97aACDTsmOFgfY9KKt+BL5Ig7zNf1OTLD4885bDHajOKJfaMqO3utRujWKk95jlMqiJ9rSh/UUfarZ0I1TXir4T29H3/tMIrd6hOf/B2mb4Fq41bReOUdmLSYm/EqE/fxbe8BrYnaVIJUYx+vnv0HvsSVwdPgsA8EUaMHfpYyidvwKCZ66hBSqbZa3v/acx0L4H/qqNCNY+jhL/EvlYI71H0f2r709Y/czIZWn77FQrPj/1w0ksEUEQxMRj2RITH+xEbPAMHM7r4A2vQWj1DthLZs/IG2OwthnecL08WHFyuXFqtnRj4PQueX/XvpWo2dKNYG2zJcHnizTIVg7+yQfS2q1R9L3/NPyVD2rKYFSmgfY9GGjfk+FO8obrswqI4bNvGJan/UWfxoLD81djtM2IibbEzLvtbzGrYj2GzryC+NAf4Zm3HLMr7kGgerNsAfPf9N/hDa/B2JVPIXjmmuYlxi4jevFIZh2GuwAA5bewFxAN/uFlJEZ6MatiPWZVrJfF3lTAr1PO7Ip7kBJHZ+R1ShAEYVnEqC0KJf5KLH7g15i79DHNzTHSuBezK+6B3VkKMXYZwx/vM7yZV9zzM8yqWG/4lFy7NaoZ6PgTplpQ+CINCNW1wh2oRioxisE/vIzAN7fgy+5fZTxRL1y7C2U1mzMESTbKlz8FAHB6w/I2bhkxEzCRxr0QPHMRXLYNwWXbMvKzcmxu9QjWNqN8+VMQR/shxgZw4cC98jEAwO2vQrSnLWeZ9BTiThrpPYbarVE5RqVmS3fGwO8OVGvqbGTZUKcdryUm2zn1BGoQH+zExSPbTH4NDH/87+g5/GhO64VoYKFToxdjYnwI3nA9konC6ldIX9Wjvk59kQb4Kx/ESK/By6UIgiBmAAXFxFwdPosrnxxEWc1m+Ks2Yrhrvxy0OXz2DcQ+/z0885YjuGwbkomoRugIpeVIJ2Poe/9puMuWoKxmM8L1L8gDtRVCda1wzboeA6d3IZmIYs6iDbA7Sw3TumazQVstSLLhCdRAHO1H9OIRCNfNl7e7/VUQY5dNf9dz+FHTAa+q6SRCda2G+9TweJr4YCfOvFyBqqaTGdaT+GCnXBffwgbEBztz5stjcfTUbOmWhaZR+0d72hDtaUOorhX+m5pkQZot6JbHPZlRDEtMtnMqxgbgDddntX4VEk+UDV+kAb6FDfDf1IQr3W8XbPXIt6+qiQ93ydceZ84i5tb84vwvCyoPQRDEtU7Bgb3xIfbKV8FdBgDwLVyLkd5jmoHcE6jB7Ovvyripn/258lpW1+wKlM67zfJxfZEGuAPVGDrzijyQjn3ZjcidPzFMf+HAvZbdOYDyJMutIXJd5i1HXGWmzwb/Lbd68EG7KpJ9gO87sV2uE7d+6Ad87iLCCcATvFnjOlDjizTI1pG+958GAMMYH73lyMgKoC6X0W/0mJUJKI4lJts57T32JBbd90uEVu9A8FtP4Ivz/1Gwa0coLc+YAq4XqmprTnyws+DYIyD/vqqGC041vsjtzCLatb/gMhEEQVzLFG12kuCZaxhzobcUiKP9mu+J0X5TK4oRbn8Vy1cSUQCYJchExACZs2isMNC+B+XLn5IHFd/CtRj+eJ9peqNAUHVbcCGRDW6J4ajFwkjvMVw4cC+iF9vYdinGhQcRq+EiauD0LvgiDXJ8jN6dpLbEOMWGeAAAIABJREFUZIO7mri1ZqotMYD5Ob06fBadr9YgVNeKOYvvR3DZNsxZfD8uvPVd2WVpFcEzN2NKuF7E8FggHuTLBU2h7qBiBcv7qzbC6Ytg6MwrRcmPIAjiWqRgEWNk8h7pPZYxvVaMD2XNx+G8rtAiFJVFGw7CHajWWBGGP96H8uVPyXXNNtirB2a9JYZTVv1I1jL0ndiOxEgvQqt3aGb5VDWdRGzgIwDsiXuk9xhCq3eYTrVWB/ZyhOvmQxztz4hpUQslM3HiDtRkFXBW0QsAX6QBkTt/mtFOZnE7+cCtR9xSkq/LErAmuDjDXfsx3LUftVuj8Ibrp3zm3pzF3wUAfHHhwJSWgyAIYiIpSMSU+Cvhv6kJqcSofLMWY5cheIJ53bxL/JXwhtcg1v+BaRp32RLNdy6K1Nv9VRuzHieXid5f+SAGTu+C4Alqtved2C67ZQZO78p6jGIxq2I9ACZcuvatZAHDuvVqrnS/DW+4Pq/YDk+gBrHBM/CVlhuKFTMLii/SAMEzF9GLyrEKcSfxuJozL1doFsyLXjwi11XOv7YZZdWPZBUQVt0uA+17EPzWExnndiIo8VeOO49C3Ul6SuevQCLaU/T4H4IgiGsJyyLGE6hBpHGvPMXa7izVDOyXO17C/BXbUfnQUXz56a+Ruvol7CWzMfrZKc2N1OHyIljbDKc3jDmL7wcAXPrts/L+WP8H8JTfiop7fgYAcM26HgAb3OPDXRju2o8F3/4HzKl8CMmxKJKJKGZff5dpuRdtOAhvuB5Ob9jQyuAN18uDuj5mJdK4V3YR8TiU8WDlqZ5bC4K1zbI7Sm2V4ZYFMXYZwWXbEL2YGQthhDtQjaHOV+FbuDavMvsWNrCpxuop3AW4k/w3NRlOV+45/CgWbTgoT0vmU8nF2AAWbThoaD3Jdk752jw8wNUzbzmcvghGVNPHQ3WtEK6bD2dpOUsj9W3xq8/yip9ZuHYXxr7qk/s6D6QtNC4mV1+1yrwVfwfBM3fShDdBEMRUYVnEuAPV8oButNgdD94NLHkY81ewG3AqMYreo3+jycfpiyC0eoc8vbr/yF/r1jj5EcpvaWGiZbAT/R/uROTOn8AbrkditB/RnjZc+u2zKL+lBcFl2+Qp1p7yWw3LPfZlNxCuR2Kk13C/2eJsegERadyrmWqcC30QbT7L6HOXD5+qXLs1Kq/hwq1GfSe2I9K4FzfcdyDnlNxI417EBzuVOB8TS4qRGPJFGiwHNHPErz7LOD6Q6U7iqIUboLjDqppOGlomsp1TMTYA38K1ciyLGLucMeWbB4dzeN+OD3bmJVRdsytQVrNZ/h4f7MRnp1oLtqTk6qtW8YbqAACDnRQPQxDEzGZGvDuJB8SO93073IrgDlSb5sUDePULzGVbQVdfTrM0fL/ROit8CrtedHHLjDov9aJ5A6d3yasIR3vaTIN5zV6JoBduRr/Xx9nkeq9TtncoZVtjhiAIgiDUTEsRw90BAOCecwM85bdCjF3G+V/clfcMFIIgCIIgpieT+gLIYqF2BySiPRjpPaZZ9ZcgCIIgiJnPtLTEEARBEARB2Ke6AARBEARBEIVAIoYgCIIgiGkJiRiCIAiCIKYlJGIIgiAIgpiWTNnsJFcL4FgJ2NhLsHH1n4Dk8akqDUEQBEEQ0w1LIsa9G7DfmLldfAcY25n/QV0tgHA3kDoHJKVV6lMX8s8nG45VgPO7gH0p+54eAsQ3gcSbBmVZC8BtnMZKPrYFQMkTgP1mlg/igPhbYKwVBEEQBEFMEJZETPIkkDoP2BczMZM6BaQGgdQfCzuoYyWQ7gPiTxT2eyuU/E8mOBKvA+l+QLgTcD4GJLuAVAdL49zExJT4DqsLT5P6TLEKWcmn5BnAvpAJm3Q/YF/C8kWsMJFHEARBEERuLImYxGvs09XCRIx4HBAPadO4d7PP1J8AYQ37XzxqbI2wlTHhYEYu6wjH+TjgfAAYeyGzPPG/V0QGL5f7ecBRp2wX1jMxxYVGsh3w/BhwrlNETK58bAukNjmqtBMOAY5a9kcQBEEQxMRQ1JgYW4BFCovvMKuNsAZI97LB3b4UsH9DSWsPAMI69n96RBEN3DqSOsesP46VzPKRHskUKo6wdNzyzLKohQcA2GYblFclphyrWBlSFwFb2Ho+slCJabenvzJ2wREEQRAEURyKK2JKgXgLkL7ELBSeV5mwAQDhDsnFImFfAbhWsP9T5xQRI9zOrC/c1WRfyiwfwioDa8szTAjptxvhuI19JqW3FDtWKftc25ngSrwu1SNkPR/xEOBqZqLNtoDV3bGKuZcIgiAIgpg4iipiUhfZIA4on5yxnYrbpvSweVCwLcRibuQ8O5jLB37jY1oSMKuYe0o8qlhWbF6DhKP55wMwV5fzYSbaAFbe1MXc5SIIgiAIonCm5Qsg80FYxywl6SFtfI54CHA9yf4fa1X2OdZKosliPgBzlyVPK+4yHjcjHi1+fQiCIAiCYFxzi92l+wDbYuW7fank3hk2Ts/javTYFrAAYdeTbLpzbLPBsYa0wbe2BcwNlO7NLx+AWWbEQ0zAlPwAbJr1f2arKUEQBEEQ48GSJca5SQralcSFsIpNI0790Zo7Jx/E3zDXjHu3EtgLsBlRetzPsdgaW7lqZpCE58dgs5v6AMSYEOFwN5Z4lM1ucrUoU6zh1h7LSj72pSzmh09BR5y5mPRBwQRBEARBFA9LIsaxUjvTxr5CmoUEAEUWMYnXmGAS1rJjpoeAxEvGYinZy8qS7jfIyM0+bCFA0AXqcvGR+BFg80jTue82OZaFfOzfUGZUiUeZBYYEDEEQBEFMLDav15ue6kIQBEEQBEHkyzUXE0MQBEEQBGEFEjEEQRAEQUxLSMQQBEEQBDEtIRFDEARBEMS0hEQMQRAEQRDTEhIxBEEQBEFMS2a8iHE/x/7U39UL1nn2m6/6q/6NPo2rhS0CmJF2N1v8jiCudZyP5+77BEEQ1zJTJmJcLUxAlB5mf+q3ShcT+wrtCry2xWx1XoCJjeRJ9koBtdDRIx5X3rPEGdvJVhZWCxYujvg7lAhrCOuUflB6WCsyJwr70okZwCer/OPFsUparbp5qktijYk6XxN5rMks82QyU+tFTE8srdjr3q1dsZdj9ibqXLhalBVukyfZttSF/PPJhXMTW4WXr8BrXwrYytj7jQC2qu5YByC+x17YaF9qvNKueIi9ZsG9G4g/oWxPvA64vg/EO9ixHCuB2EbjstgWAM6/BIRvg60CHAdSHwFXdytv/LYvBYTvAI6bWTmN2tfsXADA2AtKXfmrFMRD0ssrn9TuLxZW6vX/s/f+wVFVef73u2/f2+kOHbDTJJBM6C8RSIBszKCYOBsowCgD6DqMpTPkGQtZ2fKxEHa/0cd1l2F3q77jZovdVer7RagZR3lGv2zhzPjMsC6DDBqBR3hWmFEqZmAMqLFCDJqQZKVjuknf7n7+OPfcH933dt/u3CQEP68qKvTt2+d8zrnn3vM+n/M552Yj3s5sA9LF4ngh3sXaoNP1kQ+ZrunI6vHJM36StfX4xfFJ32mcuF5226pTbeN6amOFR42fEx2A/GZ+tl1P5SIIWyImfpq9x4i/GyhxBkgMaB6NXHE3sHcR6QXBeOCuYmIg9Qb2Pmt+Pj8efTJdzIzu0qaKUn+vT5//P3EGiO7QjksbAHElEPsVkPyUiSJxFXtfE3/vk3gXe8AmLjG7rUgOauJPDxdn7mXsIROLWKfhFHbKlY3kZUBWOpGJEjHXG1bXdDyJPjmx+U02TrTVqUziInuOw8eeM55awOVn73kjiKmKLRHDb3BPCxMx8sl0Fe7dw/4mPmMPCoC9R2i0NT097mWwwtOivM/Iq3hSXjO/0aTHmEvcysOgFxHcxsRH+XmPAE10pY6OvXtYB5TpQSjMZw+R2I+VA0fS7ZDfYse458SK5EDmMgg3K+d9an2OHu4JyGfUb6dcgMk1PZxfx2EnHekBQLxXefs5mCCN/Zp5H7gXkKMXoKmer2x5CbWA5zHjSz/zJds1dZUBBTuMeUkPAPIx7XeFR9m14O3UzAOXWn79+RyzezlxRvNY8HTl4+z7RAcb1Igr0+/5bHWY7bmRy/XKRra2ajcv/f2ZHASSHxm9OXbTsXO9XGVMfLkbjAOb2P7c7x/9sy9WBnh3AeIDWrt1qlzZ0iEIJ7ElYuziCiovhnyDPTDElUCyh91sQq0xVkQIavOqyWHWwQBsWoZPNfG3WEuPsnNShYq7Qsm31J59wgL2csZc0N+Qqd6VnBhi8TniGms3rFMvjXQp9TIh7l4b5eIPP/kN5r0TFrF4Iozk1vHbSUd6QGkvg4pQ5qPOrUDkJBOKiT8qb2Kv16axAM2TZTcvz2OAMId1KBgB3N+yX5ZcKdih5ZXsA4Rbob6cNBd4+YHMQtkVBIQoqx9hEasLacQoUIQgqx9xLRDfz+5ZcWW6AMl23TM9N+xeL1tkaat280p8pg3ChAp2bkFAEyNO2ixtUJ6HHUZPXfxsbumkkrzMxKJ0P/Pcxk86V65s6RCEkzgrYgqBaAu7QVxlgO9l9oACtHlUjlAPeOrZ/xMXNREj3sk6IN7g+fSNuCz9wRPdkbnz1MODLT1PWD+8zUY38hH2jwf+WnlJhAXKA1ohOWiMj7m2B/BWsN9KGwD57fxd2K5gevCofkQpfINN19llLA8XO+VyNzABqNp4hHVW7m/lJmLspCPeq7SfFm3kF1+mxVwlOtg/YZHScVq0nWx5CbXsmsd+pZU38TlQkOfKtNRrmhzQ0uV5yW9ox1ztmuciF3j5gSwiphCI8OmmI6wzEu8ARvVp9SiCaK329nl9bI/d657puWH3etkhW1u1mxePpeNwj7CrjJXBSZuF+Yrt/+q8J4N7al1+9tepcmVLhyCcxFERk7ikNdLUxjq6y+hGtXIFu8rZg09Ns0PpkAPmedp9QPAHKkxGBFyY2BndcFGjx840VfIyENmkeJruZIJHvBOI/m3uN7ar2CgIgRQRs8BYh+OJnXK5igFXvUlwYY5BpXbScZWzEaa+TuMnkTPZ8uJeRf2UXT756PNLneZRRYySlz4Gbbw7g8SllM89uW8dYPe6Z3puOIlT9yAPwOfXxTWN/XXXabFdThE/xu5n38uad1p+yzmvrR6nyjWR9UMQjoqY6xVpI3ugRnaw0a6nxdjpS5sUl3ceDwZpI3vICAtYJ5QtriT2CvvHhVPB47lPUZnFMXD0S9X5dJ1rrvZ3vEZD2cqVOGNc6g6wKcJcsZOOUJh7uvnm5RSZrulUZiLr0C5juQddZYD3H4HkiDa9IwS1+CvHbX0NiHcC7kbAvUAJRF4LxF4Ye0CufhreqXJNdP0QxHUnYpK9bC8XjlDLboCkhWfBznSS9JAStwBllZGyAV50B9urJltQpRV8hMkD8aSN6cF6VshHmEvbysOULzyoVz9dx5HuZ56D8RwNmZUrOcg+2/WaCUHz43bSSfYCwi32xZrVsvpsefGOmAtEYPz2OjLLyw65nq9HmJPyOQggmlsauV53O1hdr3zIdg+a5eWuA+AFYnu1ckkb2f1mhV2bra4Xn8aJQZtuy3UqNi2vMkBcByCqbcPgRLnyqR+CGAu2RIy0UZnvVsSFuIzNi/J9SJxEfpuJDj5F425Qjpu46r3PsJvDVWodX+LdY3TNA0y8eFoUwZFHsG6qeOHwEZ73GSaO9DExvDzqRnuLmDiL61ZpqfWsdOLCfGanPj4iG9wGPdn2iRnL6iQ75ZJfY8G23meB+H+yTtnlZyPM1IdgslcRYNsBRAD4tEBRO+nIh9g5vp8A8rtKGkivw/jv2Ii24IfaiDEZ0VauZMsrfpLZKq0DMIIxB/aaxTkBTFzHT7I2zPNSA3tTSHQoK6a2s8/cnS8uY8GWiQ4mtHgMBMBc/dxjp28byRFWdvlNJQaiPvcpylyuezayXS872Gmr2fLiglJUBKurVOm4YaxnOzbbuV7qfaDAn8H57O/Dnyc82B1ebXDnVLlySYcgnMCWiHE3GAP2hHolsAsAHBYxPEBQXMXyTA4y16lZ5xvvYbYk+8zT8j7D0uJiQr/HS+Ii67T5LrGZNoLjYglgD4Fsnb2pKBpi9cjjHvjqGb0HKK2elWmqVBF2XWGjXPqgW+lR5WAUSPxzenKjL7KVRPrltrmkoz9HH/jKH9ac+El2TFyn2c5Hu3bzGn0RkJqVgG5l2bPVpnXZMItzArR6vPYMW6GkzyuV2K8Byasse74IxA4ABX+vrMgZYMGWUrPRRle5FuBrEDEDLA5GvzLv2p7cypTLdc9GtutlCxttNVte8ZPKiqxVzNOZ7GXtoKDWWM92bLZzvYRCQNC1Y25zLuKNw58n3A79ZndOlSuXdAjCCVx+vz852UaMB9JGdpNFNmiehtQVQ3r0u6bqN7vTpwOkBylmwmzTPIJwikwB8mOB791yI8boEARxY3HDihiCuNEhEUMQxNedG/4t1gRBEARB3JiQJ4YgCIIgiCkJeWIIgiAIgpiSkIghCIIgCGJKQiKGmDSqm08jtHrfZJtBEARBTFEoJkZHdfNpRAbOofvoI+rncHcbek9tt/Vbb3Cx5fdDF36ppgsA89YfQmykz3CMH+97fxfC3W2G/KubT6P31HaEu9tQtzWMT15fj3B3W0abyhtbURRqQueBBpTUbUH58p0Zz0+10czOms1d6Pv9v6C/fa9abn0dzVt/CJH+D0zrLLR6HwJVD2a0gdN/dreteicIgiC+vkzoaweqm9n2jp0HGiYy27woqdsCsbDUdkfKy1Te2IqSJdvQ/nxR2jl2RNHVrsMob2xFZ7dWR+WNrZAj/Qh3t6GkbguiA+ezChgz5MgVnHup0vS7eesPmR7ve38Xbr7vIHzBGnQeaED3m3+Bm+87CACqkOGEVu+Dv2IFrnYdtrQhOnA+6/Wv2dyV8XuCIAiCAGyKmLqtYcPnSN97GOr8RVonNhWx8ohMr1wH0TczrewcM5ECACVLtuGT19cDSPfs2KG/fS+KFz+MolCTeiywsFkVH75ZS+ENLk6zS++ZSfW61G0NY7jnhG0b9IS729D+fBFqNnehvLEVvae2o/edp1G+fKfh+pfUbUHRnFWW9cIxs91JCgJVKP/TH8FfsRKCVIhEbAQjX/wOPSeewLWhCwCAolATZtY+isLZ9RB9M009UJk8a73vPI3+9r220rFzzkRSEKhCxYrnUDjrdrV+vuz6zaTaRBAEkS+2PTHRgfOIDJyDW5oGf8VKlC/fCaFgBr4480/jad+kUFK3Bf6KFWpnxck2jVOzuQv9Z3er33ceaEDN5i6U1G2xJfiKQk2ql4P/5R1p3dYwet95GoGqBw02mNnU374X/e1706aT/BUrMgqIoQu/NLWn/fkigweHp6/H7JgZ4+2JmXX732B65ToMnvsZooN/hG/WUsyovAfBxZtUD1hg4Q/gr1iJ0aufQvTNtExLjlxB+NKx9DIMddpOx25eE8V/u/sF+EpvQ//Z3YgN98A3aykCVQ8iGfsKl45tm2zzCIIgcsK2iNF7FAoCVZh//28xs/ZRg4gJrd6HGZX3QJAKIUeuYOjDA6ZTJ5X3/BzTK9eZjpLrtoYNHR33KugFRVGoCeWNrfAGFyMRG8HAH15C8E82m44o56zajeKaTWmCJBOlS58CAEj+CvUY94xYCZjQ6n0QfTNRsmQbSpYYO4PSpU/Zypt7PUrqtqB06VOQR/ogR/rx8cF71TwAwBuoRri7LatNqeQznTTccwJ1W8NqjErN5q60ztgbXGwocyZvgxOemEzX1BesQXTgfMYOeejDf0P30UeyxgnJJh66XNOxm5dd8mnPelxuH6ID5w33ZaDqQfhKasdsG0EQxESTV0zMtaELuPrJIRTXbEKgegOGOl9VgzaHLvwSkS9+D9+spShZsg3xWNggdMTCUiTjEfS+8zS8xYtQXLMJFSueUztqO5Q3tsIzfS76z+5GPBbGTfPWQ5AKTc/1zGCdtl6QZMIXrIE80ofwpWMQp81Wj3sD1ZAjVyx/1330EcsOr7r5NMobW7PmzeNpogPnce6lSlQ3n07znkQHzqtlKZrThOjA+azp8licVGo2d6lC06z+w91tCHe3obyxFYGFzWrHlynolsc9WeGEJybTNZUj/fBXrMjo/connijfdJzKi5Nre05l9Oqn8FesxKz6v8V/Xfx/UPpNJva+/PS3jtlIEAQxUeQd2BsdZO+zF73FAICiOasw3HPC0JH7gjWYMffbaVNOF36hvZbVM6MShbNut51vUagJ3uBiDJ77mdqRjn7ZhdDdPzU9/+OD99qezgE0jxP3hqhlmbUU0YFzttLgv+VeD95pV4cyd/C9p7arZeLej9QOn08R4RTgK7kFEQubikJNqnek952nAcA0xifVc2Q2wtfbZfabVKxsApzxxGS6pj0nnsC8+36N8uU7UfLNx/FfH/173qucxMLStCXgkx07kmt7TqXrN9/HnFW7Ubrkv2N2/XYkYiP4/EzrDTktTBDEjY9jq5NE30zTmItUT4E80mf4HBvps/SimOENVLN0FREFgHmCLEQMkL6Kxg797XtRuvQptcMomrMKQx8esDzfLBBUXxdcSGSCe2I4erEw3HMCHx+8F+FLbey4EuPCg4j1cBHVf3Y3ikJNanxM6nSS3hOTCT7VxL01k+2JAayv6bWhCzj/cg3KG1tx0/zvoGTJNtw0/zv4+PXvqlOWdhF9M9OWhE+2iAHya8+c8sZWFNdswtWuw4jHvoJUWIrSJf8diWtf3hCB+gRBfL3IW8SYubOHe06kLa+Vo4MZ03FL0/I1wVHmrT8Eb3CxwYsw9OEBlC59Si1rps5e3zGnemI4xYsfzmhD76ntiA33oHz5TsMqn+rm04j0fwCATU8M95xA+fKdlkut9YG9HHHabMgjfWkxLXqhZCVOvMGajALOLmYrd0J3v5hWT1ZxO7nAvUc8FiXXKUvAnuCaShQEqlCyZBuudh1G12++rx6v+t5x23FbBEEQ1xN5iZiCQBUCC5uRiI2oDz45cgWirySnB2FBoAr+ipWI9L1neY63eJHhMxdF+uOB6g0Z88nmfg9UPYj+s7sh+koMx3tPbVenZfrP7s6Yh1NMr1wHgAmXzgMNLGA4Zb+aq12H4a9YkVO8hS9Yg8jAORQVlpqKFSsPSlGoCaJvJsKXtLzymU7icTXnXqo0bJgXvnRMLauaft0WFC9+OKOAsDul0t++FyXffDzt2k5l8p1OKiy9FQAQj31lOB4fHUaBaN8bShAEcb1gW8T4gjUIrd6nLrEWpEJDx36l4wXMrt+Oqu8dx5ef/haJa19CKJiBkc/PGDpbt8ePkrotkPwVuGn+dwAAl9/9kfp9pO89+EpvQ+U9PwcAeKbPBcA69+hQJ4Y6X0XZHX+Hm6q+h/hoGPFYGDPmftvS7nnrD8FfsQKSv8LUy+CvWKF26qkxK6HV+9QpIh6HMhbsjOq5t6Ckbos6HaX3ynDPghy5gpIl2xC+1GZLzHiDizF4/mUUzVmVk81Fc5rYUmP9Eu48ppMCC5tNlyt3H30E89YfUveg4UvJ5Ug/5q0/ZOo9yXRN+d48kS9+D4DFMklFIQzrlo+XN7ZCnDYbUmEpO0dp2/JXn+cUP2MnHafyslP2bPB7Z0blPShvbFWXWPsrVuS9jxBBEMRkYlvEeIOL1Q7dbLM7HhgYXPQQZtezh2siNoKe439lSEcqCqF8+U51eXXfsb9M2ePkxyi9tYWJloHz6Ht/F0J3/xT+ihWIjfQh3N2Gy+/+CKW3tqBkyTZ1ibWv9DZTu0e/7AIqViA23GP6vdXmbKkCIrR6n2GpcTZSg2hz2UafT/nwpcp1W8PqHi7ca9R7ajtCq/fh5vsOZl1uG1q9D9GB81qcj4UnxUwMFYWabAc0c+SvPk/LH7COJ9ELN0CbDqtuPm3qdch0TeVIP4rmrFJjWeTIlbQl3zw4nMPbdnTgfE5C1U46TuXFydaes3Hp2F+i7I6/Q/BPNqub3V3tOoze/+/v8kqPIAhiMrkh3p3EA2LH+r4d7kXwBhdbpsUDeFM3mMu0g26qnVbn8O/N9lnhS9hTRRf3zOjT0m+a1392t7qLcLi7zTKY1+qVCKnCzez3qXE22d7rlOkdSpO9oy1BEAQxdZiSIoa76AHAe9PN8JXeBjlyBR/96ts5r0AhCIIgCGJqMqEvgHQKvYs+Fu7GcM8Jw66/BEEQBEHc+ExJTwxBEARBEIQw2QYQBEEQBEHkA4kYgiAIgiCmJCRiCIIgCIKYktzwIsb7DPun/+xp0T77XgXENdnTSD3H0wJIG03O3QMItfnbSxBOID2WvV0TEwNdC4IYPyZNxHhamIAoPMr+uZeNTz5CPSCf1D675gMJ5d2RQi0QPw14njAKnVTkk+wcPaO7AOkho2Dh4kj4hjO2f90Qap152DuVzlTFvQyQ7gc8W/L7vXcP+2eFuEa7bwuPGgcFNzq5ln2s1wKYWu3569w2iMnB1hJr7x5AWJB+XH6Ddea54mkBxLVA4iITEQCQ+Dj3dLIhbQSSg4B8hH0WagFXMZD4TMmzAxjtAOS3AO+z7PtER3o68hFAWMTqIfq4djy2H/B8H4h2sLzcDUDE4jVOrjJA+nNAvAOAF0AUSHwAXNsDJC9r9ol/BrhvYXaa1a/VtQCA0ecUW22k414GSN/VRFhyEJBfA2KvWdVm/tgpOwCId7F2wa9XvjiVzljxbAfElUDk4ZRyrmGiOPbC+NR3/CRrx/GLzqcNAPF21taAdHE/HhQeZX95+wY0kaW/HyeCXMvuxLVwoj3zOlSxuAfHykS3DYKwJWLip4HER4Awn3WgiTNAYkDzaOSKuwFI9o7/A8hdxTrx1BvY+6z5+fx49Ml0MTO6S5sqSv29Pn3+/8QZILpDOy5tYB1a7FdA8lMmisRVgHg3EHuFnSPexTr6xCVmtxXJQU386eHizE4OMsTaAAAgAElEQVQ6BX/N0ontB5J9zA7pUSDeaS7kxoKdst+IxP9fVm6x0ShWBPYexnERMJzok+OXdvIyICsd30R2VOKyyRem+ZR9PK9FLiQusuc4AAhB5qUugPE5NVYmq20QX19siRje0XhamIiRT6Y/TPjIKPEZe3ADgHwcGG1NT497B6zwtLBODt7MHgLpMeaq1Y/Q9KTenN497CbOx3sEaKJrZHV6uvHTmTtkYT57iMR+rBw4km6H/BY7xkfqViQHMpfBTjrRHxrFSuIzJs7cjeYihnuAUstuh2xl5545jl4U6r1I+vIkB4HkR8aRpN10Co8ye/j15Onq25GrjIkvd4NRCMb22xde8ZMAooCrynjcXWWs42zl0n+f6GCjXekBAF7jPZZafn0Z7ealh3uSxjJqT7uXD+cnXJO9rNN1lZnbYLcO5eOsTIkONhATV6Y/p5yw2c61yNbG7LZnu6Q++7zPsDpNsztD2c2e84kzubUNaSObir/2P5R7JMWeVM8lQWTC0R17XUEWZCO/wToucSWQ7GE3gVBrjBURgto8b3JYa8zSRm2qKfERu8GlR9k5qULFXaHkW2rPPmEBIP9HbmUydCBnxjBqGWI3qLjGejTplAfETjqp57hmOJO3KVnKLr/FvHriMnYed0cDmneJ/5+LX6FCGUkGtM7Bbjp2kDYo7bDD6PWKn80tncQHbFqP4yoDXOWA/K79cnEXvbQBgJfdE7FXmDgSVwKJ91m98vID1uI1W16qnUFAiLJ8XXPZYCHXUTvvhOU3mF3CItZ5YSR3L1S8HXDD2ntnt1xCkJ0nrgXi+9lzRlyZLgTHarOda5GtjTnZnu1gt+z6tiEsYr+RRswHrGbIbzIRLq0xihjXfFYXJGCIXHBWxBQC0RbWCF1lgO9l1uABbV6XI9QDHmUUkLioNWbxTjYC4A8fPn1j5kqO7sgsCvTwADPPE9YPFbNRtnyE/eOBv1beDWGBcsMrJAeN8THX9gDeCvZbaQMgv53/VIormB4wl693ieO+nf2NW7xZeSxTf9nKnuhg/4RFigjOIPJGdeKLe+L46NxuOnYQ5iu2/+vYHqrxC4BUr8VbiXcrx3X1nK1c3EUv/hlrZ3wEK9SyDlhYBOCIVn4gg4jJkpce/TSIuwIQbkFOuBuY8Ffb5hFWr+5v5TeVJr/Nng+mIsZmuRI9irhYqwjBoDHGzCmb7VyLbG3MyfbM81MXHyjTSYkz2vd2y+4qBCJP6s6pYNPXozbtSF5m4l7fntzLFA/94TwLR3xtcVTEJC5pN2PqTTm6y+jOt3KHusqNN1aig7mSETDP0+6NzW9QmIzOuDCxM8rmokaPnWmq5GUgsknxNN3JBI94JxD929w7SVexURACYxMx7mXMhSwfdz4eBnCu7DxgmXv0XNMU++u0eXiniB9jnZvvZc0rKL+Ve/3Ib7Ly8mk6dxUTuPp0ci0XF/yJjtyn9+zmlRww/i4xAAje3PJyFQOu+vSYtESeQa5qXZqsZHSqbThtcyacamN2ERYYBVuigw0wOHbLnriU8rkn920l5JNsECttZGKSD6LkN3NLhyCm5Asgc0XayG7QyA42EvG0GDt9aZPiQs3j4SFt1B4O4trsnUrsFfaPC6eCx3OfojKbX88XcQ1b/pkctO8OzpexlN1VBnj/EUiOaK53IchE77jY+hoLcnY3Au4FSiDy2txXFCUvs+vlXgDEwEaf+qmkiSzXmPLy5Zdn4oxxiwOATQ3nQ/IyS09KWW7sdB06aXMmnGpjduEDR1cZ4PsJgEj6IGKiyi4fYc9ddx27L9x1NJVE5Md1J2KSvWxulCPUsodR8oz5+Xamk6SH2FQRoKwyUjbAi+5ge9VkC5S1InXpp7QxPWjUCvmIEuNg4WEab3hQobjWOgB7vMhWdrOl7u46AF4gtle73tLG9MDEbOmY4Zprfpy782PQpkfzmQqJdwDSOsWD4GUxLJx8ypUv+eblKlNWu1nUpRA0P54cBBBwdkWRfFIR3SOat8jJOszVZquy2yWXNma3PWcjeZkJaXGlMU27ZRfmpHwOAohanJuhfuTjbMpPXKPEib1ttwQEoWFLxEgblbljRVyIy9g8beKPzi95lN9mooNP0bgblOMn08/l0eyuUuv4Eu8eZWWM7vuo4pEpPJpfsK7ZvhWA5mnwPsPEkT4mhpdH3WhvEbtx47pVWmo9Kzc+n8NODuQWP2MnHd9PwFYg9AKIGGNszATdWFYn2Sk7AMR/x0RVwQ+1EXUywlY18dGgqEwluEqVzks5lvhMexhnSgdQ4gxq2eobQJuC0Kfj2c7qhcPbfj77fST+AOB+QGoGEDW2GTvl4jbyKRJxjTEYnuNeBrj82mfXNC14Xj6SWx3y37pK2dQfAIz+LL1sfNWQWl8+TRDLr7GgfO+zQPw/Wf4u/9iW8fMRvKtYEzF269BW+jnYnKns2a4FYL+NZWvP+SD/BxMxfJ+rXMqeHGHnyG8q8TopsTXqeRnqB2BxYdL9yoAGNJVE5IctEeNuMM6lCvVKoBkAOCxieLCduIrlmRxk7lUzsRTvYbYk+8zT8j7D0uJiQr/HS+Ii65D5zpJWy7R5OnxU52nJ3pGbiqIhVo88liU5mB4XlFbPyjRVqgjLhq10lPgGVzkgprjdxxoknIaNsgOsU47tB8R12rl8lBo/qawqWcXm0pO9wOiLQEGtsvJpQAvszJQOAMR+DUheZWXPRSB2ACj4e2M6QiEgrNRs4zbn03HET7LfCwvSO0I75QKMMVCeJ4zB8Byp2XjdXeVaUKl8JLc6VH/Ll1c/ay48Rl8EPFuN2ypwuDdBvJd1joCS3j/brTlz+AieY6dcdve0ysXmTGXPdi0A+20sW3vOh0QHEx6CLujcbtmTAywORr9q85rJDs+Z6ke1oUPLn6aSiHxw+f3+5GQbMR5IG9lNH9mgeRFSVwzp0e+Eq9/sTp8OYLLzZQbMNs0jCIKYqji9UzLfMybTIJIgMnHDihiCIAjCWZwQMeIaNs3nqtBWozq5azDx9eK6C+wlCIIgblyERWyVXuISIOewAzZBmEGeGIIgCIIgpiTCZBtAEARBEASRDyRiCIIgCIKYkpCIISaN6ubTCK3eN9lmEARBEFMUionRUd18GpGBc+g++oj6Odzdht5T22391htcbPn90IVfqukCwLz1hxAb6TMc48f73t+FcHebIf/q5tPoPbUd4e421G0N45PX1yPc3ZbRpvLGVhSFmtB5oAEldVtQvnxnxvNTbTSzs2ZzF/p+/y/ob9+rlltfR/PWH0Kk/wPTOgut3odA1YMZbeD0n91tq94JgiCIry8TujqpupltN9l5oGEis82LkrotEAtLbXekvEzlja0oWbIN7c8XpZ1jRxRd7TqM8sZWdHZrdVTe2Ao50o9wdxtK6rYgOnA+q4AxQ45cwbmXKk2/m7f+kOnxvvd34eb7DsIXrEHngQZ0v/kXuPm+gwCgChlOaPU++CtW4GqX9atoowPns17/ms1dGb8nCIIgCMCmiKnbGjZ8jvS9h6HOX6R1YlMRK4/I9Mp1EH0z08rOMRMpAFCyZBs+eX09gHTPjh362/eiePHDKAo1qccCC5tV8eGbtRTe4OI0u/SemVSvS93WMIZ7Tti2QU+4uw3tzxehZnMXyhtb0XtqO3rfeRrly3carn9J3RYUzVllWS8cM9udpCBQhfI//RH8FSshSIVIxEYw8sXv0HPiCVwbugAAKAo1YWbtoyicXQ/RN9PUA5XJs9b7ztPob9+LQPUGlNQ9hoLAIjWv4Z7j6PrN98etfJkoCFShYsVzKJx1+3VhD0EQxHhj2xMTHTiPyMA5uKVp8FesRPnynRAKZuCLM/80nvZNCiV1W+CvWKF2Vpxs0zg1m7vQf3a3+n3ngQbUbO5CSd0WW4KvKNSkejn4X96R1m0No/edpxGoetBgg5lN/e170d++N206yV+xIqOAGLrwS1N72p8vMnhwePp6zI6ZMd6emFm3/w2mV67D4LmfITr4R/hmLcWMynsQXLxJ9YAFFv4A/oqVGL36KUTfTMu05MgVhC8dSy/DUCcAoPRW9sKpgT+8hNhwD6ZXrsP0ynWq2Jto5q753/BMn6va45u1FIGqBxFavS8nIU0QBDFVsC1i9B6FgkAV5t//W8ysfdQgYkKr92FG5T0QpELIkSsY+vCA6cO88p6fY3rlOtNRct3WsKGj414FvaAoCjWhvLEV3uBiJGIjGPjDSwj+yWZ82fWbtIf1nFW7UVyzKU2QZKJ06VMAAMlfoR7jnhErARNavQ+ibyZKlmxDyZJtaenZyZt7PUrqtqB06VOQR/ogR/rx8cF71TwAwBuoRri7LatNqeQznTTccwJ1W8NqjErN5q60jt8bXGwos5lnQ3/uWD0xma6pL1iD6MB5XDq2zeLXwNCH/4buo49kjROSTTx0elLFmBwdhL9iBeKx/MqXT1vlFASq4A0uxtWuw4Z7zl/WAH/Z9T99SxAEkQ95xcRcG7qAq58cQnHNJgSqN2Co81U1aHPowi8R+eL38M1aipIl2xCPhQ1CRywsRTIeQe87T8NbvAjFNZtQseI5taO2Q3ljKzzT56L/7G7EY2HcNG89BKnQ9FzPDNZp6wVJJnzBGsgjfQhfOgZx2mz1uDdQDTlyxfJ33UcfsezwqptPo7yx1fQ7PTyeJjpwHudeqkR18+k070l04LxalqI5TYgOnM+aLo/FSaVmc5cqNM3qP9zdhnB3G8obWxFY2Kx2jpmCbnnckxVOeGIyXVM50g9/xYqM3q984okyURRqQtGcJgQWNuNq1+G8vZO5tlU900N3AQDisa8Mx+OjwxkDzgmCIKYyeQf2RgfZa2FFbzEAoGjOKgz3nDB05L5gDWbM/XbaQ/3CL7RXt3pmVKJw1u228y0KNcEbXIzBcz9TO9LRL7sQuvunpud/fPBe29M5gOZx4t4QtSyzliI6cM5WGvy33OvBO+3qUOYOvvfUdrVM3PuR2uHzKSKcAnwltyBiYVNRqEn1jvS+8zQAmMb4pHqOzLwAervMfpOKlU2AM56YTNe058QTmHffr1G+fCdKvvk4/uujf897akcsLE1bAp4qVPXenOjA+bxjj4Dc26qe/va9mH3HP8AXrEFBoArXhi4gUL0Bnulz87aHIAjiesex1Umib6ZpzEWqp0Ae6TN8jo30WXpRzPAGqlm6iogCwDxBFiIGSF9FY4f+9r0oXfqU2qkUzVmFoQ8PWJ5vFgiqrwsuJDLBPTEcvVgY7jmBjw/ei/ClNnZciXHhQcR6uIjqP7sbRaEmNT4mdTpJ74nJBJ9q4t6ayfbEANbX9NrQBZx/uQblja24af53ULJkG26a/x18/Pp31SlLu4i+mWlLwlNFDI8F4kG+XNDkG/Q+lmD5gT+8hJIl27DwB+8BAGLhboxe/TTv9AiCIK538hYxZi7v4Z4Tactr5ehgxnTc0rR8TXCUeesPwRtcbPAiDH14AKVLn1LLmqmz13fMqZ4YTvHihzPa0HtqO2LDPShfvtOwyqe6+TQi/R8AYFMhwz0nUL58p+VSa31gL0ecNhvySF9aTIteKFmJE2+wJqOAs0uqACgKNSF094tp9WQVt5ML3HvEPSW5TlkC9gQXZ6jzVQx1voq6rWH4K1ZMysq93lPbEb7Upgn9oU7cfN/BjEveCYIgpjJ5iZiCQBUCC5uRiI2oD2s5cgWirySnh3dBoAr+ipWI9L1neY63eJHhMxdF+uOB6g0Z88nmog9UPYj+s7sh+koMx3tPbVenZfrP7s6Yh1NMr1wHgAmXzgMNLGA4Zb+aq12H4a9YkVNshy9Yg8jAORQVlpqKFSsPSlGoCaJvJsKXtLzymU7icTXnXqo0bJgXvnRMLauaft0WFC9+OKOAsDvt0t++FyXffDzt2o4HBYGqMaeR73QSh8cxFYWaMGfV/0IiNoIrHS+M2S6CIIjrEdsixhesQWj1PnWJtSAVGjr2Kx0vYHb9dlR97zi+/PS3SFz7EkLBDIx8fsbQ2bo9fpTUbYHkr8BN878DALj87o/U7yN978FXehsq7/k5AKhz+tMr1yE61ImhzldRdsff4aaq7yE+GkY8FsaMud+2tHve+kPwV6yA5K8w9TL4K1aonXpqzEpo9T51iojHoYwFO6N67i0oqduiTkfpvTLcsyBHrqBkyTaEL7XZEjPe4GIMnn8ZRXNW5WRz0ZwmttRYv4Q7j+mkwMJm0+XK3Ucfwbz1h9RlyXwpuRzpx7z1h0y9J5muKd+bJ/LF7wGwWCapKIRh3fLx8sZWiNNmQyosZecobVv+6vOc4mfmrNqN0a961bZ+0zw2tZdvXEy2tpqNolATAgt/AF+wxrByz+lAZoIgiOsF2yLGG1ysduhmm93x4N3goocwu549gBOxEfQc/ytDOlJRCOXLd6rLq/uO/WXKHic/RumtLUy0DJxH3/u7ELr7p/BXrEBspA/h7jZcfvdHKL21BSVLtqkPal/pbaZ2j37ZBVSsQGy4x/R7q83ZUgVEaPU+w1LjbKQG0eayjT6f8uFLleu2htU9XLjXqPfUdoRW78PN9x3MuiQ3tHofogPntTgfC0+KWWdXFGqyHdDMkb/6PC1/IH06iaMXboA2HVbdfNrUM5HpmsqRfhTNWaXGssiRK2lLvnlwOIe37ejA+ZyEqmdGJYprNqmfowPn8fmZ1rw9Kdnaaja8gWoEqh5EdOA8rnYdxpWOF0jAEARxQ3NDvDuJB8SO9X073IvgDS62TIsH8KZuMJdpB91UO63O4d+b7bPCl7Cnii7umdGnpd80r//sbnUX4XB3m2Uwr9UrEVKFm9nvU+Nssr3XKdM7lDLtMUMQBEEQeqakiOHTAQDgvelm+Epvgxy5go9+9e2cV6AQBEEQBDE1mdAXQDqFfjogFu7GcM8Jw66/BEEQBEHc+ExJTwxBEARBEIQw2QYQBEEQBEHkA4kYgiAIgiCmJCRiCIIgCIKYkpCIIQiCIAhiSjJpq5M8LYC7AXCxl2Dj2v8A4icnyxqCIAiCIKYatkSMdw8gLEg/Lr8BjO7KPVNPCyCuBRIXgbiyS33i49zTyYR7GSB9FxBq2efkICC/BsReM7FlFQCv+Tl20nGVAQWPA8ItLB1EAfldYLQVBEEQBEGME7ZETPw0kPgIEOYzMZM4AyQGgMQf88vU3QAke4Ho4/n93g4Ff80ER2w/kOwDxLsB6VEg3gkkOtg50kYmpuQ3WFn4OYnPNa+QnXQKdgDCHCZskn2AsIili0h+Io8gCIIgiOzYEjGxV9hfTwsTMfJJQD5iPMe7h/1NfAaIK9n/5ePm3ghXMRMOVmTzjnCkxwDpfmD0uXR7oj/URAa3y/ss4G7UjovrmJjiQiPeDvh+AkhrNBGTLR1XmVInx7V6whHAXcf+EQRBEAQxPjgaE+MKskhh+Q3mtRFXAske1rkLtYDwDe1cIQiIa9j/k8OaaODekcRF5v1xNzDPR3I4Xai4K5R8S9Nt0QsPAHDNMLFXJ6bcy5gNiUuAq8J+OqpQiRiPJ78yn4IjCIIgCMIZnBUxhUC0BUheZh4K38tM2ACAeJcyxaIg1AOeevb/xEVNxIh3Mu8Ln2oSapnnQ1xm4m3ZwYRQ6nEz3Lezv3HlLcXuZdp3nu1McMX2K+Uot5+OfATwbGGizVXGyu5exqaXCIIgCIIYPxwVMYlLrBMHtL+c0V3atE3hUeugYFc5i7lR0+xgUz4ImOdpS8AsY9NT8nHNs+Lym5w4kns6AJvqkh5iog1g9iYuZbeLIAiCIIj8mZIvgMwFcQ3zlCQHjfE58hHA8wT7/2ir9p17lSKabKYDsOmy+FltuozHzcjHnS8PQRAEQRCM626zu2Qv4JqvfRZqlemdIfPzeVxNKq4yFiDseYItd45sMslr0Bh86ypj00DJntzSAZhnRj7CBEzBk2DLrP8jU0kJgiAIghgLtjwx0kYlaFcRF+Iytow48Ud70zm5IL/Npma8e7TAXoCtiErF+wyLrXGV6lYGKfh+Ara6qRdAhAkRDp/Gko+z1U2eFm2JNbzGvOykI9SymB++BB1RNsWUGhRMEARBEIRz2BIx7gbjShuhXlmFBAAOi5jYK0wwiatYnslBIPaCuViK9zBbkn0mCXnZH1c5IKYE6nLxEfsx4PIpy7nXWuRlIx3hG9qKKvk488CQgCEIgiCI8cXl9/uTk20EQRAEQRBErlx3MTEEQRAEQRB2IBFDEARBEMSUhEQMQRAEQRBTEhIxBEEQBEFMSUjEEARBEAQxJSERQxAEQRDElIREDEEQBEEQU5JJe3eSp4VtoucqZp+v/Q/tTdYEQRAEQRDZsCVivHuMO/ZyrN5EnQ1Pi7bDbfw0O5b4OPd0MiHUAuKfAe5bmFCystXTouzY62U79sqvsVcG5HKOqwwoeBwQbmHnIArIx/KrG4IgCIIg7GFLxMRPs/cY8XcDJc4AiQH2vqF8cDewdxFFH8/v93YQ7wLEO4DEJc3bk4q0kYkp+Q3t3UnSo0Dic80rZOecgv+LiabYfvYKBGER+00ywl5tQBAEQRCE89gSMfzlip4WJmLkk+nvMvLuYX8TnwHiSvZ/+Tgw2pqeHveMWGHHOwIA0mPsBY6jz6XbI7/FPCHiGvYGajPEdUxMcY9JvJ298FFaowkUO+fAy7xK6ksojzAR414AxKyLSRAEQRDEGHA0sNcVZC9DlN9gnbq4knkyAGV6Zw37BwBCUPvsXqalwT0fiUua0JEe1X6nx12h5Fua/p2dFzC6ipkoAZgNycuK56Yit3MSnwHCHEB6gE0tSY+x4/H/zG4DQRAEQRD54Whgr6sQiLawjt5VBvheZsIGUKZ31mrnCvWAp579P3FR5/m4k3lf+FSTUAt4nwXEZenelugOJm7M3nCdDb1w8mxngiu2XylHuf1zAOZtSj7GBJj0KIAoexu2mfeIIAiCIAhncFTEJC4xAQNofzmju7QpmcKj1oG2rnIWc6Om2cGmcxAwzzMfAQMALr/JwZHczwEU8XI/mz5DhHmZpI1Acjh/+wiCIAiCyMzXdp8YvbgYbQVGVmuek2Sv/XNcZYD0kBb/M7qLeYgSFwFp0/iXgyAIgiC+rlx3IibZC7jma5+FWmXqZsj8fLNYGdt5DQLuOu2zq4zFtiR77J8jzFO+iKQkHmHTawRBEARBjA+2ppOkjUrQriIuxGVsGXHij85Pl8hvM8+Gdw9b1u1uUI6bbITnfYbF1rhKdSuDUm1WYnKE+WzVU3JAO1c+zqaBPC3a8ml4jXllOyd+kgkvcRVLmy+xFuqN02IEQRAEQTiLLRHjbjBudifUMxeODAAOi5jYK0x8iKtYnslBFiRrJpbiPcyWZJ8Nmxcoe9zolkLHfgy4fMpy7rXmedk559qzgGcTW52kbnZ3HIj932OvD4IgCIIgzHH5/f7kZBtBEARBEASRK9ddTAxBEARBEIQdSMQQBEEQBDElIRFDEARBEMSUhEQMQRAEQRBTEhIxBEEQBEFMSUjEEARBEAQxJbnhRYz3GfZP/9nTon32vZp911/vM+nneFq0N3Qbzt3DdhkmiOsd6bGx7XhNEAQx2UyaiPG0MAFReJT9078x2kmEeuMOvK75bOddgImN+GnA84RR6KQin2Tn6BndxXYW1gsWLo6Ebzhj+9cFcY3WDgqPGkXmeCHUjk8HPlH2jxX3MmUn6i2TbYk9xut6jWdeE2nzRHKjlouYmtjasde7x7j7LcfqTdTZ8LQA4lq2e278NDuW+Dj3dLIhbWQ77PLddYVawFUMJD5T8uwARjsA+S3A+yz7PtGRno58hL1KwLsHiD6uHY/tBzzfB6IdLC93AxDZYG6LqwyQ/hwQ74C6q2/iA+DaHu2N30ItIP4Z4L6F2WlWv1bXAgBGn9PKyl+TIB9hDxzPE8bvncJOubIRb2e2AelicbwQ72Jt8Hp4y3imazqyenzyjJ9kbT1+cXzSdxonrpfdtupU27ie2ljhUePnRAcgv5mfbddTuQjCloiJn2bvMRLmK1v3nwESA5pHI1fcDex9Q3pBMB64q5gYSL2Bvc+an8+PR59MFzOju7SpotTf69Pn/0+cYW+z5kgbAHElEPsVkPyUiSJxFXsXE38NgngXe8AmLjG7rUgOauJPDxdn7mXsIRNLfSnlOGCnXNlIXgZkpROZKBFzvWF1TceT6JMTm99k40RbncokLrLnOHzsOeOpBVx+IPbaZFtGEPljS8TwG9zTwkSMfDJdhXv3sL+Jz9iDAmDvDxptTU+Pexms8LQo7yryKp6U18xvNOkx5hK38jDoRQS3MfFRft4jQBNdqaNj7x7WAWV6EArzlfc2/Vg5cCTdDvktdox7TqxIDmQug3Czct6n1ufo4Z6AfEb9dsoFmFzTw/l1HHbSkR4AxHuVt5+DCdLYr5n3gXsBOXoBmur5ypaXUAt4HlO8KNGxdQbZrqmrDCjYYcxLegCQj2m/KzzKrgVvp2YeuNTy68/nmN3LiTOax4KnKx9n3yc62KBGXJl+z2erw2zPjVyuVzaytVW7eenvz+QgkPzI6M2xm46d6+UqY+LL3WAc2MT2537/6J99sTLAuwsQH9DarVPlypYOQTiJLRFjF1dQeTHkG+yBIa4Ekj3sZhNqjbEiQlCbV00Osw4GYNMyfKqJv8VaepSdkypU3BVKvqX27BMWAPJ/5FYm/Q2Z6l3JiSEWnyOusXbDmk1l5YNLqZcJcffaKBd/+MlvMO+dsIjFE2Ekt47fTjrSA0p7GVSEMh91bgUiJ5lQTPxReRN7vTaNBWieLLt5eR4DhDmsQ8EI4P6W/bLkSsEOLa9kHyDcCjYlkiO8/EBmoewKAkKU1Y+wiNWFNGIUKEKQ1Y+4FojvZ/esuDJdgGS77pmeG3avly2ytFW7eSU+0wZhQgU7tyCgiREnbZY2KM/DDqOnLn42t3RSSV5mYlG6n3lu4yedK1e2dAjCSWYsVScAACAASURBVJwVMYVAtIXdIK4ywPcye0AB2jwqR6gHPPXs/4mLmogR72QdEG/wfPpGXJb+4InuyNx56uHBlp4nrB/eZqMb+Qj7xwN/rbwkwgLlAa2QHDTGx1zbA3gr2G+lDYD8dv4ubFcwPXhUP6IUvsGm6+wyloeLnXK5G5gAVG08wjor97dyEzF20hHvVdpPizbyiy/TYq4SHeyfsEjpOC3aTra8hFp2zWO/0sqb+BwoyHNlWuo1TQ5o6fK85De0Y652zXORC7z8QBYRUwhE+HTTEdYZiXcAo/q0ehRBtFZ7+7w+tsfudc/03LB7veyQra3azYvH0nG4R9hVxsrgpM3CfMX2f3Xek8E9tS4/++tUubKlQxBO4qiISVzSGmlqYx3dZXSjWrmCXeXswaem2aF0yAHzPO0+IPgDFSYjAi5M7IxuuKjRY2eaKnkZiGxSPE13MsEj3glE/zb3G9tVbBSEQIqIWWCsw/HETrlcxYCr3iS4MMegUjvpuMrZCFNfp/GTyJlseXGvon7KLp989PmlTvOoIkbJSx+DNt6dQeJSyuee3LcOsHvdMz03nMSpe5AH4PPr4prG/rrrtNgup4gfY/ez72XNOy2/5ZzXVo9T5ZrI+iEIR0XM9Yq0kT1QIzvYaNfTYuz0pU2KyzuPB4O0kT1khAWsE8oWVxJ7hf3jwqng8dynqMziGDj6pep8us41V/s7XqOhbOVKnDEudQfYFGGu2ElHKMw93XzzcopM13QqM5F1aJex3IOuMsD7j0ByRJveEYJa/JXjtr4GxDsBdyPgXqAEIq8FYi+MPSBXPw3vVLkmun4I4roTMcletpcLR6hlN0DSwrNgZzpJekiJW4CyykjZAC+6g+1Vky2o0go+wuSBeNLG9GA9K+QjzKVt5WHKFx7Uq5+u40j3M8/BeI6GzMqVHGSf7XrNhKD5cTvpJHsB4Rb7Ys1qWX22vHhHzAUiMH57HZnlZYdcz9cjzEn5HAQQzS2NXK+7HayuVz5kuwfN8nLXAfACsb1auaSN7H6zwq7NVteLT+PEoE235ToVm5ZXGSCuAxDVtmFwolz51A9BjAVbIkbaqMx3K+JCXMbmRfk+JE4iv81EB5+icTcox01c9d5n2M3hKrWOL/HuMbrmASZePC2K4MgjWDdVvHD4CM/7DBNH+pgYXh51o71FTJzFdau01HpWOnFhPrNTHx+RDW6Dnmz7xIxldZKdcsmvsWBb77NA/D9Zp+zysxFm6kMw2asIsO0AIgB8WqConXTkQ+wc308A+V0lDaTXYfx3bERb8ENtxJiMaCtXsuUVP8lsldYBGMGYA3vN4pwAJq7jJ1kb5nmpgb0pJDqUFVPb2WfuzheXsWDLRAcTWjwGAmCufu6x07eN5Agru/ymEgNRn/sUZS7XPRvZrpcd7LTVbHlxQSkqgtVVqnTcMNazHZvtXC/1PlDgz+B89vfhzxMe7A6vNrhzqly5pEMQTmBLxLgbjAF7Qr0S2AUADosYHiAormJ5JgeZ69Ss8433MFuSfeZpeZ9haXExod/jJXGRddp8l9hMG8FxsQSwh0C2zt5UFA2xeuRxD3z1jN4DlFbPyjRVqgi7rrBRLn3QrfSocjAKJP45PbnRF9lKIv1y21zS0Z+jD3zlD2tO/CQ7Jq7TbOejXbt5jb4ISM1KQLey7Nlq07psmMU5AVo9XnuGrVDS55VK7NeA5FWWPV8EYgeAgr9XVuQMsGBLqdloo6tcC/A1iJgBFgejX5l3bU9uZcrlumcj2/WyhY22mi2v+EllRdYq5ulM9rJ2UFBrrGc7Ntu5XkIhIOjaMbc5F/HG4c8Tbod+szunypVLOgThBC6/35+cbCPGA2kju8kiGzRPQ+qKIT36XVP1m93p0wHSgxQzYbZpHkE4RaYA+bHA9265EWN0CIK4sbhhRQxB3OiQiCEI4uvODf8Wa4IgCIIgbkzIE0MQBEEQxJSEPDEEQRAEQUxJSMQQBEEQBDElIRFDTBrVzacRWr1vss0gCIIgpigUE6Ojuvk0IgPn0H30EfVzuLsNvae22/qtN7jY8vuhC79U0wWAeesPITbSZzjGj/e9vwvh7jZD/tXNp9F7ajvC3W2o2xrGJ6+vR7i7LaNN5Y2tKAo1ofNAA0rqtqB8+c6M56faaGZnzeYu9P3+X9Dfvlctt76O5q0/hEj/B6Z1Flq9D4GqBzPawOk/u9tWvRMEQRBfXyb0tQPVzWx7x84DDROZbV6U1G2BWFhquyPlZSpvbEXJkm1of74o7Rw7ouhq12GUN7ais1uro/LGVsiRfoS721BStwXRgfNZBYwZcuQKzr1UafrdvPWHTI/3vb8LN993EL5gDToPNKD7zb/AzfcdBABVyHBCq/fBX7ECV7sOW9oQHTif9frXbO7K+D1BEARBADZFTN3WsOFzpO89DHX+Iq0Tm4pYeUSmV66D6JuZVnaOmUgBgJIl2/DJ6+sBpHt27NDfvhfFix9GUahJPRZY2KyKD9+spfAGF6fZpffMpHpd6raGMdxzwrYNesLdbWh/vgg1m7tQ3tiK3lPb0fvO0yhfvtNw/UvqtqBozirLeuGY2e4kBYEqlP/pj+CvWAlBKkQiNoKRL36HnhNP4NrQBQBAoHoDSuoeg6/0NgBM3F3peAFfnPknNZ1MnrXed55Gf/teW+kUBKpQseI5FM66XbVnuOc4un7z/fGqgowUhZows/ZRFM6uh+ibaep9A5ggnVF5DwSp0LRcBEEQ1wO2PTHRgfOIDJyDW5oGf8VKlC/fCaFgxg35YCup2wJ/xQq1s+Jkm8ap2dyF/rO71e87DzSgZnMXSuq22BJ8RaEm1cvB//KOtG5rGL3vPI1A1YMGG8xs6m/fi/72vWnTSf6KFRkFxNCFX5ra0/58kcGDw9PXY3bMjPH2xMy6/W8wvXIdBs/9DNHBP8I3aylmVN6D4OJNqgesYuX/RDx6Bf1ndyM23INA9fcwu347Rj4/Y6hHOXIF4UvH0ssw1Gk7nblr/jc80+di4A8vITbcA9+spQhUPYjQ6n05iVunCCz8AfwVKzF69VOIvpmm55Q3tiJQ9SCGLvwSkS9+r5Zr9MsuDHW+OsEWEwRBWGNbxOg9CgWBKsy//7eYWfuoQcSkjt6GPjxgOnVSec/PMb1ynekouW5r2NDRca+CXlAUhZpQ3tgKb3AxErERDPzhJQT/ZDO+7PpNWscwZ9VuFNdsShMkmShd+hQAQPJXqMe4Z8RKwIRW74Pom4mSJdtQsmRbWnp28uZej5K6LShd+hTkkT7IkX58fPBeNQ8A8AaqEe5uy2pTKvlMJw33nEDd1rAao1KzuSut8/MGFxvKbDW65+eO1ROT6Zr6gjWIDpzHpWPbLH4NfPrG/2Gos+hQJ26+7yBummcUg7KJhy6XdAoCVfAGF+Nq12HDfeAva4C/LL8p1Xzas56hD/8N3UcfyRgjFVjYjFi4Wy371e63UPW9d1C86CESMQRBXFfkFRNzbegCrn5yCMU1mxCo3oChzlfVoE0+evPNWoqSJdsQj4UNQkcsLEUyHkHvO0/DW7wIxTWbULHiObWjtkN5Yys80+ei/+xuxGNh3DRvPQSp0PRczwzWaesFSSZ8wRrII30IXzoGcdps9bg3UA05csXyd91HH7Hs8KqbT6O8sTVr3jyeJjpwHudeqkR18+k070l04LxalqI5TYgOnM+aLo/FSaVmc5cqNM3qP9zdhnB3GxuZL2xWO+JMQbc87skKJzwxma6pHOmHv2JFRu9Xal2IvpKM+VmRLZ3pobsAAPHYV4bj8dHhjEHgmci1PadiR/DyaSYA6v09evVTFMwwF8AEQRCTRd6BvdFB9j570VsMACiaswrDPScMHbkvWIMZc7+dNuV04Rfaa1k9MypROOt22/kWhZrgDS7G4LmfqR3p6JddCN39U9PzPz54r+3pHEDzOHFviFqWWUsRHThnKw3+W+714J12dShzB997artaJu79SO3w+RQRTgG+klsQsbCpKNSkekd633kaAExjfFI9R2YjfL1dZr9JxcomwBlPTKZr2nPiCcy779coX74TJd98HP/10b9nDc4u+m/steT/9fFBw3GxsDRtCXgmz0xqOv3tezH7jn+AL1iDgkAVrg1dQKB6AzzT52YvpAW5tudcCVRrb0jlHlPfzFsAAFJRaFzyJAiCyBfHVieJvpmmMRepngJ5pM/wOTbSZ+lFMcMbqGbpKiIKAPMEWYgYIH0VjR362/eidOlTaodRNGcVhj48YHm+WSCovi64kMgE98Rw9GJhuOcEPj54L8KX2thxJcaFBxHr4SKq/+xuFIWa1PiY1OkkvScmE3yqiXtrJtsTA1hf02tDF3D+5RqUN7bipvnfQcmSbbhp/nfw8evfVacs9QSqN2BG5T242nXYxLMyM21JuJWIsUpn4A8voWTJNiz8wXsAgFi4G6NXP81avkyMZ0A9H5ToicfGLxCbIAhiLOQtYszc2cM9J9KW18rRwYzpuKVp+ZrgKPPWH4I3uNjgRRj68ABKlz6lljVTZ6/vmFM9MZzixQ9ntKH31HbEhntQvnynYZVPdfNpRPo/AMCmA4Z7TqB8+U7Lpdb6wF6OOG025JG+tJgWvVCyEifeYE1GAWeXVAFQFGpC6O4X0+rJKm4nF7j3iMd+mE1ZltRtwew7/gHx6BXT1UJ2BFe2dHpPbUf4UpsmvpW4mUzL0CeT/va9aqyMviw3zVuPWLh7sswiCIIwJS8RUxCoQmBhMxKxEXVUKEeuQPSV5DRKLAhUwV+xEpG+9yzP8RYvMnzmokh/XO8CNyOb+z1Q9SD6z+5Oi2noPbVdnZbpP7s7Yx5OMb1yHQAmXDoPNLCA4ZT9aq52HYa/YkVOe8X4gjWIDJxDUWGpqVix8qAUhZog+mYifEnLK5/pJB5Xc+6lSsOGeeFLx9SyqunXbUHx4oczCgi7Uyr97XtR8s3HDde2IFCFWbf/DQJVD+Jq1+G8lzvbTYfHFhWFmjBn1f9CIjaCKx0v5JUnYL/s+SJHrhgCjwsCVfBMn4uRL343bnkSBEHkg20R4wvWILR6n7rEWpAKDR37lY4XMLt+O6q+dxxffvpbJK59CaFgRtqyVbfHj5K6LZD8Fbhp/ncAAJff/ZH6faTvPfhKb0PlPT8HADV+YHrlOkSHOjHU+SrK7vg73FT1PcRHw4jHwpgx99uWds9bfwj+ihWQ/BWmXgZ/xQq1U0+NWQmt3qdOEfE4lLFgZ1TPvQUldVvU6Si9V4Z7FuTIFZQs2YbwpTZbYsYbXIzB8y+jaM6qnGwumtPElhrrl3DnMZ0UWNhsuly5++gjmLf+kLoHDV9KLkf6MW/9IdOA40zXlO/NE/ni9wBYLJNUFMKwbvl41ffegSAVIhbuRjz2lSHuJZdlz3bSKQo1IbDwB/AFawyr6fLZrDBb2e1Q3tgKcdpsSIWlALT7Wv7qczU9HrQfWr1PXWItSIXXrfeIIIivL7ZFjDe4WO3QzTa748G7wUUPYXY9exgmYiPoOf5XhnSkohDKl+9Ul1f3HfvLlD1OfozSW1uYaBk4j773dyF090/hr1iB2Egfwt1tuPzuj1B6awtKlmxTOwW+4Vgqo192ARUrEBvuMf3eanO2VAERWr3PsNQ4G6lBtLlso8+nfPhS5bqtYW21iOI16j21HaHV+3DzfQezLrcNrd6H6MB5Lc7HwpNi1rEWhZpsBzRz5K8+T8sfsBYIeuEGaNNh1c2nTb0Oma6pHOlH0ZxVaiyLHLmStuSbx2BJRSEEUoJVcxExdtLxBqoRqHoQ0YHzuNp1GFc6XshbwADZ23M2eGA8h9/X0YHzqki/dGwbXNI0zKi8B4GqByFHruDzM603xOaWBEHcWNwQ707iAbFjfd8O9yJ4g4st0+IBvKkbzGXaQTfVTqtz+Pdm+6zwJeypoot7ZvRp6TfN6z+7W91FONzdZhnMa/VKhFThZvb71DibbO91yvQOpUx7zBAEQRCEnikpYrhLHAC8N90MX+ltkCNX8NGvvm26AoUgCIIgiBuPCX0BpFPoXeKxcDeGe04Ydv0lCIIgCOLGZ0p6YgiCIAiCIITJNoAgCIIgCCIfSMQQBEEQBDElIRFDEARBEMSU5IYXMd5n2D/9Z0+L9tn3KiCuyZ5G6jmeFkDaaHLuHkCozd9ewjmkx7JfW4K4kaA2T3zdmDQR42lhAqLwKPvnXjY++Qj1gHxS++yaDySUd0cKtUD8NOB5wih0UpFPsnP0jO4CpIeMgoWLI+EbzthO5I97GSDdD3i2TLYl9hBqb8zOZyLLdaPVobhGez4WHjUOvsxwos3faHVI3PjYWmLt3QMIC9KPy2+wzjxXPC2AuBZIXGQiAgASH+eeTjakjUByEJCPsM9CLeAqBhKfKXl2AKMdgPwW4H2WfZ/oSE9HPgIIi1g9RB/Xjsf2A57vA9EOlpe7AYhYvMbJVQZIfw6IdwDwAogCiQ+Aa3uA5GV2jnsZIH1XE0bJQUB+DYi9pqVjdS0AYPQ5ZquazgItL/ldYLTVeL6nBRBXsXPM8nKKTDaPrHY+PwCIn2TXMn5xfNJ3GvEudk/wtpp3OmsA8W5jG4qfzu8+dQKnyjVReRUeZX/5vQSw9gsY7/2JIN7O7ADSB1Gm5zvQ5ifyehGEE9gSMfHTQOIjQJjPOqPEGSAxoHk0csXdACR7x/+h4K5iooU/mDjeZ83P58ejT6aLmdFd2lRR6u/16fP/J84A0R3acWkDIK4EYr8Ckp8yUSSuYh1O7BV2TsFfs04nth9I9rHvpEeBeKfRHt4xpcLFmdTM/sZeU9JZxvJO9mh5SRuVh9Ub7DryvBKfs4eh01jZPJ5En5zY/CYb6QF2DZO9QOwFIDmsXPtVTKibCXTCHHHZ5HfkycuArAxw7IgY4OvX5gnClojhHZ+nhYkY+WT6Dc5HK4nPWIcJAPLx9NE/wISF/IZ1fnY9BNJjzH2qHzXp0YsIbmPio/xHpVx0pXoPvHtYB83ryQxhPvM8xX6sHDiSbkf0h8aOJvEZE0zuxhQRM5C5DKniMDkMFNQDGNGOietYZ8fTibcDvp8A0hpzEcO9Kfl6TrLZ7CoDCnYoHpsou97SA4B8TPtd4VFWh7x84hr2cNdff+7l4+jP15cFMLbVxBnNK8bTlY+z7xMdTLSLK9PbdFpbPWxsB9nui1R79YI4V0+n+IAyOPhbzbsnH2F1yz+b2mzi7ctkM6B4FjewAYmrWDse28/Kb7dcvK4BZkvyI6N30o49TtYhwOpQqE+vN042m51sP3aw0+adul4Ecb3h6I69riALspHfYJ22fvQv1BpjRYSgNveaHNY6Tu4hSFxkgsPdoIwuh9OFirtCybfUnn3CAkD+j9zKpH9gpXpXcmKIPRjFNdYjvNSRsmtGnnkpCLWAewkTLPJxY0elF5LuZYor+hLgqhhbnvlSsAMQ5mheKOFWsKmwHJHf0jyEmUavriAgRJkAEhaxNieNGDsYIcjqSFwLxPezNimuTO88uTdLWMTipDCSUtcZ7gtur7iMtQ8+fQBonjU7iGvYNY3tT+949Z/t3l+ZbAYUz+JaZfpC52GLn2V/7ZYr8ZnWDoUKdm5BwKQTnoA6VMvQDrhh9JLqsWuzU+0nG3bavFPXiyCuN5wVMYVAtIU9NF1lgO9l9vABtLlWjlAPeOrZ/xMXNREj3slGJPyBwKdvzNy70R2ZRYEeHhTnecL6RuejEj3yEfaPB/7qRY0eYYHyAFJIDhrjY67tAbwV7LfSBkB+O/uIy307+xs/ZTzuCqYH+aWOlAzi6yKQeF+Xri6I2rNdmebar6Rdbm7LWKf+Um1ODmjlF2oVgfmGdszVro26cyHRoYnBjCKmEIhw1/sR1hmJdwCj+rR6lM5hLbPLFTTG9rgbmLBV6/4I62Dd30oRMRnuC26vsEjppMc4hZHsy/y93fsrk80AKycAXPtXc2+F3XLxuDQO966mekEmsg4Bdn+Kd1qIGJs2O9V+smGnzTt1vQjiesNREZO4pN0gqTfK6C7jtICVi9JVzm5sNc0O5t5FwDxPuzcbf2DAZMTEO3w+KskEFzV67ExTJS8DkU3KSPhOJnjEO42uf4O9PJbhuImHptgoCIH0vLmdPMiXP9zkI4DLb2LgiMkxB0m1OXFRJ2IUD50+xsqsTpwkcSnlc0/uS+NdxYCrPj3mKpESWJnpvpho7N5f2WyOH2Mdsu9lzauTT9yNUAuIf6a1Adc09tddp8WD2LHHaeQ32T1qtmrSrs3ZsNt+nMCp60UQ1xtT8gWQuSJtZA+MyA7mDfC0GDt9aZPi0s3jhpY2soeDsIB10tliRmKvsH9cOBU8nj5FJa5hyySTg+YxRWZz3lbET7J/hUeVKRpF3HBRM9qq5eFepXRo40AuNk8lEmeMS/gBNjUzWdidWh0rsddYwLm7EXAvUILU17KAYrteBFcZ4P1HIDmiTXEIQWtv4ESSvMyurZSy3Nhpmyeq/ThxvQjieuS62+wu2cv2cuEItcoDYsj8fDt7GkgPadMlo7vYQ4dPD/lezR50akXhUZb26HNMvMT2s2M8EDET8pH0EbCrTBFZT7Al0ZFNudtkhqss/VhykI0c9ecIc1icwUTDH9quubn9Ltfz9QhzUj4HAURzSyM5CCCgeb34v7Gs7sp3o0T5CIAoi38yu96cXO+vTCQ6WKB69Ekg8n+yY+5vmZ9rVi53HQAvEPuZ5qmNO/Aieqc2m5RPAsItxmk0J23Otf0IQfPjdhnr9SKI6xFbnhhpozKfqzz8xGVs7jTxR+fnTuW3mTDgUzTuBuW42YqZZ5RVBKXW8SXePcapC4B5PjwtymqXPIJ1zfaSADQvi/cZJo70MTG8POpGe4tY5xHXrdLy/QRslUIvgIgxhiQXkSU9BuAKEwcuP/OwAMa4GPm4sjFWi7bEGl7zeub2j2V1klkcD6B0AifZNZLWARjRBfamkOhgD1fPdvaZu/PFZSz4MNHB3P/66TLXNE3o6q9VcoTFgshvKnEA9cZpFjvIr7GgWO+zQPw/tfpOXRJvh/jv2Mi44IfaCD8Z0a1ms0HsNeXe+Sd2HyX7mD2uOVr7yeX+yoRnO4CI9pk/G1L3KMlULi5eRWXKxlWqCWv9NbWLE3WoRz7CvLSuYjbQAezZbDv9HNoPXzGl1rtP50G10eaduF4EcT1iS8S4G4wBaUK9EvwFAA6LGB4AJ65ieSYHmcvTTCzFe5gtVsGM3mdYWlxM6Pd4SVxkHTLfDdNqmTZPR1CCkD0t2TtyU1E0xOqRx4UkB03igpTVOK5yQExxT+ciYtwVgHC/9jlxMb0OYz8GXD5leefazPXsBGZxPIBWrmvPsBVK0kNQl1inEvs1IHmVZasXgdgBoODvlVVfAyzYUmo2tlVXuTEeiJMcYHEw+pVn12x40Az2KDaK97LOCGC2J/45t3QAJuRi+5knhddTogOI5WLPK7r9hXRB5voYi1zur0wIhYCgC7zm7Tm1s8tUrvhJZfXOKhbkn+wFRl8ECmqN19QuTtRhKlzs6/PIZrPd/bNyaT+jLwKercYl5hw7bd6J60UQ1yMuv9+fnGwjxgNpI7sRIxs0L0LqiiE9+l1l9Zvd6dMB0oPwMmG2aR5hn0wB4GNhsnZgJQiCIJzlhhUxxNSHRAxBEASRiesusJcgCIIgCMIO5IkhCIIgCGJKQp4YgiAIgiCmJCRiCIIgCIKYkpCIISaN6ubTCK3eN9lmEARBEFMUionRUd18GpGBc+g++oj6Odzdht5T22391htcbPn90IVfqukCwLz1hxAb6TMc48f73t+FcHebIf/q5tPoPbUd4e421G0N45PX1yPc3ZbRpvLGVhSFmtB5oAEldVtQvnxnxvNTbTSzs2ZzF/p+/y/ob9+rlltfR/PWH0Kk/wPTOgut3odA1YMZbeD0n91tq94JgiCIry8T+u6k6ma2BWTngYaJzDYvSuq2QCwstd2R8jKVN7aiZMk2tD9flHaOHVF0teswyhtb0dmt1VF5YyvkSD/C3W0oqduC6MD5rALGDDlyBedeqjT9bt76Q6bH+97fhZvvOwhfsAadBxrQ/eZf4Ob7DgKAKmQ4odX74K9Ygatdhy1tiA6cz3r9azZ3ZfyeIAiCIACbIqZua9jwOdL3HoY6f5HWiU1FrDwi0yvXQfTNTCs7x0ykAEDJkm345PX1ANI9O3bob9+L4sUPoyjUpB4LLGxWxYdv1lJ4g4vT7NJ7ZlK9LnVbwxjuOWHbBj3h7ja0P1+Ems1dKG9sRe+p7eh952mUL99puP4ldVtQNGeVZb1wzGx3koJAFcr/9EfwV6yEIBUiERvByBe/Q8+JJ3BtiL3kJlC9ASV1j8FXehsAJu6udLyAL878k5pOJs9a7ztPo799L4pCTZhZ+ygKZ9dD9M009WTxvAoCi1R7hnuOo+s33x+nGsiMHZvtnEMQBHE9YNsTEx04j8jAObilafBXrET58p0QCmYYHvw3CiV1W+CvWKF2Vpxs0zg1m7vQf/b/b+/9g5u6zvz/t6QrWTISIAsbcGUtDmCDvY5LQiC7ho8hbgghaUIzSYq3GcKGnXw7BHbH6WTTpdndmW3WHXY3YfZDYdq0YZJ8s0PaZFq2pYSSOIQNzAaahC9xcWMIdcY4JvHPBjmWsK6k7x/nnvtL915dybLB8LxmGKOro3Ofc+6597zPc55z7i75+859y1G7uQul9VtsCb5ApEn2cvC/vCOt3xpF7ztPIlj1gMYGI5v6T+9B/+k9GdNJ/nCjpYAYPvuqoT2nfxjQeHB4/mqMjhkx0Z6Y2bd8F9Mr12HozAuID/0BvtlLMaPyLoRqNskesPCq/0QyPoD+U7uQGOlBsPpBzFm2HaOfndTUoxgbQPTCkcwyDHcCAIKLvgV/eBXGLn0CwTfL0J6ym9gLowZ//zwSIz2YXrkO0yvXyYJwsrFjs500BEEQVwO2RYzao1AUZblO4AAAIABJREFUrMKC+36LWXWPakRMZM1ezKi8C053McTYAIY/2mf4oK6862eYXrnOcJRcvzWq6ei4V0EtKAKRJpQ3tMIbqkEqMYrB3z+P0J9vxhddv8kYMVas3oWS2k0ZgsSKsqVPAADc/rB8jHtGzARMZM1eCL5ZKF2yDaVLtmXkZ+fc3OtRWr8FZUufgDjaBzHWj/P775bPAQDeYDWi3W1ZbdKTz3TSSM9R1G+NyjEqtZu7Mjo2b6hGU2arkXshPDFW19QXqkV8sAMXjmwz+TXwyet/pamz+HAnbrhnP2bO14pB0cBDp2b4o/9C9+FHLOON9IJNjA/BH25EMpFfHeTTnnO12U4agiCIq4G8YmIuD5/FpT8eQEntJgSrN2C48xU5aHP47KuIff4efLOXonTJNiQTUY3QEYrLkE7G0PvOk/CWLEZJ7SaEG5+VO2o7lDe0wjN9HvpP7UIyEcXM+evhdBcbpvXMYJ22WpBY4QvVQhztQ/TCEQjT5sjHvcFqiLEB0991H37EtMOrbj6B8obWrOfm8TTxwQ6ceb4S1c0nMrwn8cEOuSyBiibEBzuy5stjcfTUbu6ShaZR/Ue72xDtbkN5QyuCi5plQWoVdMvjnswohCfG6pqKsX74w42W3i99XQi+UsvzmZFLXFIg0oRARROCi5pxqetg3h7MXNuzHjs25xNvRRAEcSXIO7A3PsRe1Sp4SwAAgYrVGOk5qunIfaFazJh3R8YD++zPldepemZUonj2LbbPG4g0wRuqwdCZF+SOdOyLLkRu/4lh+vP777Y9nQMoHifuDZHLMnsp4oNnbOXBf8u9HrzTro5Yd/C9x7fLZeLeD32Hz6eIcBzwld6ImIlNgUiT7B3pfedJADCM8dF7joxG+Gq7jH6jx8wmoDCeGKtr2nP0ccy/55coX7kDpV99DH/6+L+zTtsE/oy9lvxP5/drjgvFZRlLwPOJDVF7NOKDHXnHJwG5t2eCIIhrmYKtThJ8swxjLvSeAnG0T/M5Mdpn6kUxwhusZvkOKe+7H+58xVTEAJmraOzQf3oPypY+IXcYgYrVGP5on2l6o0BQdV1wIWEF98Rw1GJhpOcozu+/G9ELbey4FOPCg4jVcBHVf2oXApEmOT5GP52k9sRYwaeauLfmSntiAPNrenn4LDperEV5QytmLrgXpUu2YeaCe3H+V9+QpyzVBKs3YEblXbjUddDAQzMrY0l4PiKGxwvxIF8uaPIVIiRgCIIgGHmLGCN39kjP0YzltWJ8yDIfl3taviYUlPnrD8AbqtF4EYY/2oeypU/IZbXq7NUds94TwympedjSht7j25EY6UH5yh2aVT7VzScQ6/8QAHP1j/QcRfnKHaZLrdWBvRxh2hyIo30ZMS1qoWQmTryhWksBZxejVTCR23+aUU9mcTu5wL1H3AtiNGVZWr8Fc279ZyTjA4arhewIrlwY7nwFw52voH5rFP5wI4kRgiCIcZKXiCkKViG4qBmpxKj8IBZjAxB8pTk9mIuCVfCHVyHW975pGm/JYs1nLorUx4PVGyzPk839Hqx6AP2ndmXERvQe3y5Py/Sf2mV5jkIxvXIdACZcOvctZwHDuv1qLnUdhD/cmFPsgi9Ui9jgGQSKywzFipkHJRBpguCbhegF5Vz5TCfxuJozz1dqNsyLXjgil1XOv34LSmoethQQdqdU+k/vQelXH9Nc26JgFWbf8l0Eqx7Apa6Dk7rcuShYNe48aDqJIAiCYVvE+EK1iKzZKy+xdrqLNR37QPtzmLNsO6oefBtffPJbpC5/AWfRjIxlqy6PH6X1W+D2hzFzwb0AgIvvfl/+Ptb3PnxlN6Pyrp8BADzT5wFgnXt8uBPDna9g7q3/iJlVDyI5FkUyEcWMeXeY2j1//QH4w41w+8OGXgZ/uFHu1PUxK5E1e+UpIh6HMh7sjOq5t6C0fos8HaX2ynDPghgbQOmSbYheaLMlZryhGgx1vIhAxeqcbA5UNLGlxuol3HlMJwUXNRsuV+4+/Ajmrz8gLznmS8nFWD/mrz9gGHBsdU353jyxz98DwGKZ3IEIRlTLx6sefAdOdzES0W4kE19q4l5ymS4qb2iFMG0O3MVl7FzSPSJ++ZlsV8XqXRj7sle+H2bOZ9N/+cbFZGvPhbDZThqCIIirAdsixhuqkTt0o83uePBuaPFDmLOMPehSiVH0vP13mnzcgQjKV+6Ql1f3Hflb3R4nP0LZTS1MtAx2oO+DnYjc/hP4w41IjPYh2t2Gi+9+H2U3taB0yTZ5iTXfuEzP2BddQLgRiZEew+/NNmfTC4jImr2apcbZ0AfR5rKNPp/y4UuV67dG5T1cuNeo9/h2RNbsxQ337M+63DayZi/igx1KnI+JJ8VIDAUiTbYDmjnil59lnB8wFwhq4QYo02HVzScMvQ5W11SM9SNQsVqOZRFjAxlLvnkMljsQQTAQ0fw+FxHDg8w5/B6JD3bIgtczoxIltZvkNPHBDnx2sjVvT0q29lwIm+2kIQiCuBq4Jt6dxANix/u+He5F8IZqTPPiAbz6DeasdtDV22mWhn9vtM8KX8KuF13cM6POS71pXv+pXfIuwtHuNtNgXrNXIuiFm9Hv9XE22d7rZPUOJdodliAIgrDLlBQx3N0NAN6ZN8BXdjPE2AA+/sUdhitQCIIgCIK49pjUF0AWCrW7OxHtxkjPUc2uvwRBEARBXPtMSU8MQRAEQRCE80obQBAEQRAEkQ8kYgiCIAiCmJKQiCEIgiAIYkpyzYsY79Psn/qzp0X57HsFENZmz0OfxtMCuDcapN0NOOvyt5coHO5vZ7+2BEEQxNTliokYTwsTEMWH2T/Xiok5j3MZIB5TPjsWACnp3ZHOOiB5AvA8rhU6esRjLI2asZ2A+yGtYOHiyPmVwthO5I9rBeC+D/BsudKW2MNZd20Krsks19VWh1ebPQRxLWJribV3N+BcmHlcfJ115rniaQGEO4HUOSYiACB1Pvd8suHeCKSHAPEQ++ysAxwlQOpT6ZztwFg7IL4JeJ9h36faM/MRDwHOxawe4o8pxxMvA55vAvF2di7XciBm8honx1zA/deAcCsAL4A4kPoQuLwbSF9kaVwrAPc3FGGUHgLE14DEa0o+ZtcCAMaelWytA4SvA64bWXnNrpOnhQk68RB72HoeV/IoJFY2j64p7Lk4yWPsWibPTUz+hUb4Grsnxlv3wlpAuF3bhpIn8rtPC0GhyjVZ5yo+rP2cagfEN/LLczLLThDXK7ZETPIEkPoYcC5gnVHqJJAaVDwaueJaDqR7tYJgInBVsU5c/2DyPmOcnh+PfydTzIztVKaK9L9X58//nzoJxJ9Sjrs3AMIqIPELIP0JE0XCatbhJF5iaYr+nnU6iZeBdB/7zv0okOzU2sM7Jj1cnAlfY2IpdYGV3wjXCvaATcSMvy80ZjZPJPHvTO75rjTu+1l7SfcCieeA9AggrGDtTHzTWKATmaTOsecdfOw+8tQBDr92MEEQxNWBLRHDO1lPCxMx4rHM0YV3N/ub+pR11gAgvg2MtWbmx70DZnha2IMXXmNvBMf9bTZlYOY9UIsIbmPq4/xHpVx06b0H3t2sg+b1ZIRzAXs4Jn4kHTiUaUf8e9qOJvUpE0yuBp2IGbQug/gm+557VwztuUHK6xPzfNRwb0q+npNsNjvmAkVPSR6bOLve7vsB8Yjyu+LDrA75dTDyHnEvH0edXl0WQNtWUycVrxjPV3ybfZ9qZ6JdWJXZpjPa6kFtO8h2X+jtVQviXD2dwv3S4OAfFO+eeIjVLf9saLOBt8/KZkDyLG5gAxK1UE68zMpvt1zqNpoeAtIfa72TduwpZB0C2mdEYi7g3cnqltdRNpsLWXaCIKwp6I69jhALshFfZ522sApI97CHmrNOGyviDCnzxekR5v4H2LQMn2pKfcweku5HWRq9UHGFpfOW2bPPuRAQf51bmdQPGr13JSeGWXyOsNbcvawfKTtm5HcqOyNuh1R3V4uru+gpwFmheKGcN4FNu+WI+KbiITQTcIDUVuNMADkXszbnHtV21M4Qa8vCnUDyZdYmhVWZnaf4OjunczGLk8KoVhRY3RfcXmEFax9jzyq/4541OwhrmZhIvJzZCao/272/rGwGJM/indKUncrDljzF/totV+pTZUDjDLO0RcFM4TkZdWhE+iITTO77mPcyeSy7zYUuO0EQ5hRWxBQD8RZ24zvmAr4X2cMHUOaHOc5lgGcZ+3/qnCJihNvYqITfyHz6RliR2eHGn7IWBWp40K3ncfPOjY8i1YiH2D8e+Gvm3XAulDowifSQNj7m8m7AG2a/dW8AxLesPTcA4LqF/U3q3hzsCGlXWAG5jzadX2GjdruM98Gqtzk9qJTfWScJzNeVY47Tyqg7F1LtioizFDHFQIxPNx1inYhwKzCmzqtHEkR3MrscIW1sj2s5E7Zy3R9iHazrL3QixuK+4PY6F0ud9DhFZbrP+nu795eVzQArJwBc/g9jz4HdcvG4NA73ruq9R5NZh3q4t9Lht2dzoctOEIQ5BRUxqQvKzae/Ccd2aqcFzNy8jnLWMch5tkudbdD4nHYfWLzDgcFIhwsTPoq0gosaNXamqdIXgdgmaSR8GxM8wm1a17/GXh7L8LaBh6ZEKwiBPETMQm09TzR6m1PnVCJG8tCpY6wm+iGeuqD73JP70nhHCeBYZhAMqgsmtrovJhu791c2m5NHWBvyvah4dfKJu+FB6LwNOKaxv656QFSd92qqQ7s2T1Y+BHE9MyVfAJkr7o2sw4k9xbwBnhZtp+/eJE0J5BH46N7IHubOhayTzhYzkniJ/ePCqeixzCkqYS1bGpweMo4pMorzyAX1cnY+peeYp/ydiJHgeG2+Wkmd1C7hB9jUzJXC7tTqeEm8xgLOXQ2Aa6EUpH4nCyi2GwDrmAt4/xVIjypTUs4QE1pXE+o6LZTNU6XsBHG1c9VtdpfuZXu5cJx10o09bJzezj4M7ofYVBHAxIszpEwP+V7JHnRqRvFhlvfYs0y8JF5mx3ggohXiocwRsGOuJLIeB8R3medmIuBBvc5lyvSa+z52zH0fGwlOJrzT50LKLrmmV+Os0H0OAYjnlkd6CEBQ8c7xf8ljWX9qbleeGyWKhwDEAWEda0dm5Hp/WZFqZ4Hq8e8Asf+HHXP9hXFao3K56gF4gcQLiqc2WYAX0Rdys0nHXFaniLM6zsfmySw7QVxv2PLEuDdK8QDSw09YweZ7+R4jhUR8iwkDPkXjWi4dN+gYvE+zjthRZh5f4t2tnboAmOfD0yKtdskjWJdPH+hXRXEvi/dpJo7UMTG8PPJGe4tZ55FUrdLy/RhsxUgvgJg2hiQXkSVfLylmwLmA5cXjUPg/Ndn2iRnv6iSjOB5AengfY9fIvQ7AqCqwV0eqnXUInu1SuSQ3vLCCBUmm2pmXiccuAMxFz4WuulzpURYLIr4hxS4sy316TXyNBcV6nwGS/8vEmMOfuSTeDsnfMU9G0feUkXk6plrNZoPEa9K98wN2H6X7mD2OCqX95HJ/WeHZDkC1PJ8/G/T78liVi4tXQfIMOsoUAa2+pnYpRB3ysnhaIC+xhlcZBOVi82SWnSCuV2yJGNdybUCjc5kUsAYABRYxPIBSWM3OmR5iLmqjjjXZw2wxC2b0Ps3y4mJCvcdL6hzrkPmOwVabvHGxBLCHW7aO3FAUDbN65HEh6SGDuCBpNY6jHBB0buVcREzG9ZKmu/RibjIxiuMBlHJdfpqtUHI/BHmJtZ7ELwG3V1r2fA5I7AOK/kla9TXIgiTdzdqyO8qVAF+NiBlkcTDqlWeXbXjQNPbwJbd3MzEDMNtT/5ZbPgATcomX2aif11OqHUjkYs9Lqv2FVEHm6hidXO4vK5zFgFMVeM3bs14wWJUreUxa/bWaBfmne4GxnwJFddprapdC1CGg3C/89+rN7nKxeTLLThDXKw6/35++0kZMBO6N7OER26B4EfQrhtSod5VVb3anzgfIDOK0wmjTPMI+VgHg44FP912LMToEQRDXE9esiCGmPiRiCIIgCCuuusBegiAIgiAIO5AnhiAIgiCIKQl5YgiCIAiCmJKQiCEIgiAIYkpCIoa4YlQ3n0Bkzd4rbQZBEAQxRaGYGBXVzScQGzyD7sOPyJ+j3W3oPb7d1m+9oRrT74fPvirnCwDz1x9AYrRPc4wf7/tgJ6LdbZrzVzefQO/x7Yh2t6F+axR//NV6RLvbLG0qb2hFINKEzn3LUVq/BeUrd1im19toZGft5i70vffv6D+9Ry63uo7mrz+AWP+HhnUWWbMXwaoHLG3g9J/aZaveCYIgiOuXSX13UnUz27ayc9/yyTxtXpTWb4FQXGa7I+VlKm9oRemSbTj9w0BGGjui6FLXQZQ3tKKzW6mj8oZWiLF+RLvbUFq/BfHBjqwCxggxNoAzz1cafjd//QHD430f7MQN9+yHL1SLzn3L0f3G3+CGe/YDgCxkOJE1e+EPN+JS10FTG+KDHVmvf+3mLsvvCYIgCAKwKWLqt0Y1n2N972O48+cZndhUxMwjMr1yHQTfrIyyc4xECgCULtmGP/5qPYBMz44d+k/vQUnNwwhEmuRjwUXNsvjwzV4Kb6gmwy61Z0bvdanfGsVIz1HbNqiJdrfh9A8DqN3chfKGVvQe347ed55E+codmutfWr8FgYrVpvXCMbK9kBQFq1D+l9+HP7wKTncxUolRjH7+O/QcfRyXh9nLaQKRJsyqexTFc5ZB8M0y9EBZedZ633kS/af3IFi9AaX134av7GYATCQOtD+Hz0/+QE5r51yTiR177JSLIAjiasC2JyY+2IHY4Bm43NPgD69C+codcBbNuCYfbKX1W+APN8qdFSfbNE7t5i70n9olf9+5bzlqN3ehtH6LLcEXiDTJXg7+l3ek9Vuj6H3nSQSrHtDYYGRT/+k96D+9J2M6yR9utBQQw2dfNbTn9A8DGg8Oz1+N0TEjJtoTM/uW72J65ToMnXkB8aE/wDd7KWZU3oVQzSbZAxZc9C34w6swdukTCL5ZpnmJsQFELxzJLMNwJwAgvOo/kYwPoP/ULiRGehCsfhBzlm3H6Gcn5eth91yThR177JSLIAjiasC2iFF7FIqCVVhw328xq+5RjYiJrNmLGZV3wekuhhgbwPBH+wynTirv+hmmV64zHCXXb41qOjruVVALikCkCeUNrfCGapBKjGLw988j9Oeb8UXXbzJGlRWrd6GkdlOGILGibOkTAAC3Pywf454Rs4d4ZM1eCL5ZKF2yDaVLtmXkZ+fc3OtRWr8FZUufgDjaBzHWj/P775bPAQDeYDWi3W1ZbdKTz3TSSM9R1G+NyjEqtZu7Mjo/b6hGU2Yrb0MhPDFW19QXqkV8sAMXjmwz+TUw/NF/ofvwI1njhEQDD52aT17/K03dx4c7ccM9+zFzviIq7Z7LLvm0ZzV27LFTLoIgiKuBvGJiLg+fxaU/HkBJ7SYEqzdguPMVOWhz+OyriH3+Hnyzl6J0yTYkE1GN0BGKy5BOxtD7zpPwlixGSe0mhBuflTtqO5Q3tMIzfR76T+1CMhHFzPnr4XQXG6b1zGCdtlqQWOEL1UIc7UP0whEI0+bIx73BaoixAdPfdR9+xLTDq24+gfKG1qzn5vE08cEOnHm+EtXNJzK8J/HBDrksgYomxAc7subLY3H01G7ukoWmUf1Hu9sQ7W5DeUMrgouaZUFqFXTL457MKIQnxuqairF++MONlt6vQnXE+nwEX+mEnYuTa3vWY8ceO+UiCIK4Gsg7sDc+9AeWgbcEABCoWI2RnqOajtwXqsWMeXdkTDmd/bny+lvPjEoUz77F9nkDkSZ4QzUYOvOC3JGOfdGFyO0/MUx/fv/dtqdzAMXjxL0hcllmL0V88IytPPhvudeDd9rVEesOvvf4drlM3Puh7/D5FBGOA77SGxEzsSkQaZK9I73vPAkAhjE+es+R0QhfbZfRb/SY2QQUxhNjdU17jj6O+ff8EuUrd6D0q4/hTx//d96rnITisowl4FaemcCfsdeb/+n8/rzOZ4dc23MhmIxyEQRB5EPBVicJvlmGMRd6T4E42qf5nBjtM/WiGOENVrN8JREFgHmCTEQMkLmKxg79p/egbOkTcocRqFiN4Y/2maY3CgRV1wUXElZwTwxHLRZGeo7i/P67Eb3Qxo5LMS48iFgNF1H9p3YhEGmS42P000lqT4wVfKqJe2uutCcGML+ml4fPouPFWpQ3tGLmgntRumQbZi64F+d/9Q15ytIugm9WxpJwMxETrN6AGZV34VLXwQmfcplMATOZ5SIIgsiVvEWMkTt7pOdoxvJaMT5kmY/LPS1fEwrK/PUH4A3VaLwIwx/tQ9nSJ+SyWnX26o5Z74nhlNQ8bGlD7/HtSIz0oHzlDs0qn+rmE4j1fwiAufpHeo6ifOUO06XW6sBejjBtDsTRvoyYFrVQMhMn3lCtpYCzi14ABCJNiNz+04x6MovbyQXuPeKxH7lOWQL2BBfArvecW/8ZyfgAun7zzXxNvuq4VstFEMS1Q14ipihYheCiZqQSo/KoUIwNQPCV5jRKLApWwR9ehVjf+6ZpvCWLNZ+5KFIfD1ZvsDxPNvd7sOoB9J/alTH333t8uzwt039ql+U5CsX0ynUAmHDp3LecBQzr9qu51HUQ/nBjTiNjX6gWscEzCBSXGYoVMw9KINIEwTcL0QvKufKZTuJxNWeer9RsmBe9cEQuq5x//RaU1DxsKSDsTqn0n96D0q8+NiFxHUXBKsy+5bsIVj2AS10HJ62jn+jppCtVLoIgiFyxLWJ8oVpE1uyVl1g73cWajn2g/TnMWbYdVQ++jS8++S1Sl7+As2hGxrJMl8eP0votcPvDmLngXgDAxXe/L38f63sfvrKbUXnXzwAAnunzALDOPT7cieHOVzD31n/EzKoHkRyLIpmIYsa8O0ztnr/+APzhRrj9YUMvgz/cKHfq+piVyJq98hQRj0MZD3ZG9dxbUFq/RZ6OUntluGdBjA2gdMk2RC+02RIz3lANhjpeRKBidU42Byqa2FJj9RLuPKaTgouaDZcrdx9+BPPXH5D3oOFLycVYP+avP2DoPbG6pnxvntjn7wFgsUzuQAQjquXj5Q2tEKbNgbu4jKWR2rb45Wc5xc9UPfgOnO5iJKLdSCa+1MTPcK9Toc5lp+x2sGOPnXIRBEFcDdgWMd5QjdyhG212x4N3Q4sfwpxl7GGYSoyi5+2/0+TjDkRQvnKHvLy678jf6vY4+RHKbmphomWwA30f7ETk9p/AH25EYrQP0e42XHz3+yi7qQWlS7bJS6z5xlx6xr7oAsKNSIz0GH5vtjmbXkBE1uzVLDXOhj6INpdt9PmUD1+qXL81Ku/hwr1Gvce3I7JmL264Z3/W5baRNXsRH+xQ4nxMPClGYigQabId0MwRv/ws4/yAeQeoFm6AMh1W3XzC0OtgdU3FWD8CFavlWBYxNpCx5JsHh3N4244PduQkVHkslzsQQTAQ0XzHz1eoc3Gyteds2LHHTrkIgiCuBq6JdyfxgNjxvm+HexG8oRrTvHgAr36DOasddPV2mqXh3xvts8KXsOtFF/fMqPNSb5rXf2qXvItwtLvNNJjX7JUIeuFm9Ht9nE229zpZvUPpSu9oSxAEQUwdpqSI4S5xAPDOvAG+spshxgbw8S/uyHkFCkEQBEEQU5NJfQFkoVC7xBPRboz0HNXs+ksQBEEQxLXPlPTEEARBEARBOK+0AQRBEARBEPlAIoYgCIIgiCkJiRiCIAiCIKYk17yI8T7N/qk/e1qUz75XAGFt9jz0aTwtgHujQdrdgLMuf3uJ6xv3t7O3R2JyoGtBEFc/V0zEeFqYgCg+zP65VkzMeZzLAPGY8tmxAEhJ74501gHJE4Dnca3Q0SMeY2nUjO0E3A9pBQsXR86vFMZ2IhNn3bXbsbhWAO77AM+W/H7v3c3+mSGsVe634sNaMX+tk2vZx3stgKnVVq/ntkFMbWwtsfbuBpwLM4+Lr7POPFc8LYBwJ5A6x0QEAKTO555PNtwbgfQQIB5in511gKMESH0qnbMdGGsHxDcB7zPs+1R7Zj7iIcC5mNVD/DHleOJlwPNNIN7OzuVaDsRMXuPkmAu4/xoQbgXgBRAHUh8Cl3cD6YuKfcLXAdeNzE6j+jW7FgAw9iyz1bUCcH9DEVjpIUB8DUi8pqS1k6ZQFB/Wfk61A+IbynXJBeFrrO3k81u7eLYDwiog9rBybQD2oPc8DiSem5h6Sh5jdZM8V/i8ASB5mrURIFOUTwT8uvN2CSgiS30fTQa5lr0Q16IQbVV/7xg9NwrBZLcNgigUtkRM8gSQ+hhwLmAdaOokkBpUPBq54loOpHsn/kHmqmJiQP8g8D5jnJ4fj38nU8yM7VSmivS/V+fP/586CcSfUo67N7COMfELIP0JE0XCakC4HUi8xNIIX2MiJ3WB2W1GekgRf2q4OCv6e5Ym8TKQ7mPncD8KJDuVctlJU0hS51gbgo+V0VMHOPwTIwbGS/J/2LUSGrT2OW9ifyfS5vh3Ji7v9EVAlDq+yeyohBUTKzrtkE/ZJ/Ja5IJ87wBwhph3uQja58t4uVJtgyDGiy0RwztZTwsTMeKxzIcSH2GlPmUdAACIbwNjrZn5cS+DGZ4W1sHDa+0hcH+buXzVIz01+pvcu5s9DPLxHgGK6Bpdk5lv8oRST0Y4F7CHUeJH0oFDmXaIb7JjfMRvRnrQugzx72mFSOpTJrxcDcpxO2n0ZXQuzCy7XdT1npgLeHcCwv3KdVWXOT0EpD/Wjja5946jFo5qj1W2fOyQPAYgDjiqtMddVdq6yXYu9fepdjbadd8PwKu9N/RlS53LFPi5lIt7ksYzas+4Bw9at28z0r2s03XMNbbBbh2Kb7MypdrZAEpYlfl8KYTNdq6FYy4blLiWawcbiZfZ+ey2Vbvon1nep1mdZthtUXaj53PqZG6yIytiAAAgAElEQVRtw72RTaFf/hfpHtHZo/dcEsRkUNAdex0hFmQjvs46bWEVkO5hN5OzThsr4gwp88XpEeWmcG9UpppSH7MHhftRlkYvVFxh6bxl9uxzLgTEX+dWJk1HdHIco59hdqMLa81HpYXygOjzcczIL81Ekb7IOiD3fWxaK3mMPVy5sHWGpdFmUOlAxDeZ509Ywb7jrm9A8UDx/1vlY5fUh2xaj+OYCzjKAfFd++fiLnr3BgBe1pYTLzFxJKwCUh+wtsDLBpiLV7vlcoQAZ5yd1zGP1XGuo3beCYuvM7uci1nnhdHcvVDJ04ALWo9jPuVyhlg64U4g+TJ7PgirMoXgeG22cy3cG6RnVLvWI5o8pc0jW1stFHbLrm4bzsXsN+5R44GmEeIbTIS712pFjGMBqwsSMMSVoLAiphiIt7DG7JgL+F5kNw6gzA9znMsAjzSaSJ1TbgrhNjaS4A8xPn1j5JKOP2UtCtTwQDXP4+YPJz6SUiMeYv944K+Zl8S5UHpwSKSHtPExl3cD3jD7rXsDIL6V38gWYHWqD7yzGt25bmF/kxZvTc6WptBTf+lP2F+Hn/3l8Ukc7mXjI/hUO/vnXCwJZQshaJWPXZJnAfcyJU5KuF06rqqfbOfiLnrh66x98BGss451wM7FAA4pZQMsREwO5VJPg7jCgPNG5IRrORPscps6xAYlrr/IbypNfIvd14Yixma5Uj2SuLhTEoIhbWxYoWy2cy2cC9jfy/9h3KbstlW7OBeoFg1I00mpk8r3dsvuKAZi31GlCbOp3TGbdqQvMnGvbk+uFZJn/WCehSOIcVJQEZO6oNzU+pt7bKdykxUfNnerOsq1N2iqnbmkETQ+p90HBL/RYTDK48KEj6Ss4KJGjZ1pqvRFILZJ8jTdxgSPcBsQ/4fcRzCOEq0gBMzP7VrB3Mzi2+aeHjtpJhoe1My9dY5pkm31ylz9ZOYjvsGuEZ9ec1UxYaqun1zPxYV6qj33aTm750oPan+XGgSc3tzO5SgBHMsMArLzDHKV69JgBWKhrlehbbYieYQJKN+LisdYfHPi7h3nQq1gS7WzQRHHbtlTF3Sfe3LfDkI8xgaf7o1MTPLBj/hGbvkQRKGYki+AzBX3Rnajx55iIxpPi7bTd2+SXLF5PITcG5WHjHBn9s4p8RL7x4VT0WO5T1EZzdMbIaxlS0TTQ+YuYztpJgL1FKBjLuD9VyA9qrjnnSEmaHPKs0D5ANKo8xzgWggkwEaf6qmkQp4rG+M6ly+/c6ZOarcmANiUbj6kL7L83LrlxoWuw0LabEXiNRYA72pg7UNYze79iVq1xgd8jrmA78cAYpkDn8kqu3iIPS9d9ey+cNXTVBJxZbnqREy6l82xcpx17KGWPmmc3s50kvshNlUESKuMpA3w4k+xvWqyBcqaoV9C6t7IjtkRGeIhKVbCxMM0HnjgoXCnRXC1jTQThWMuIKwDEGf1IKwF4AUSe5Rr6d6YGbyoxmg5vKs+93ysSLYD7nWSB8HLYlgm6lxW5Hsux1xptZuJOHeGjI+nhwAEC7uiSDwmieVRxVtUyDrM1WazstuFTxkloEydm01dmW3dkCvpi0xIC6u0edotu7NC9zkEIG6S1qJ+eDybsFaKE3vLbgkIovDYEjHujdIctCQuhBVsvjf1h8IvnRTfYqKDT9G4lkvHj2Wm5VHxjjLz+BLvbmlVkOr7uOSRKT6cX7Cu0f4XgOJl8T7NxJE6JoaXR95obzF7ACRVq7TkepYeIHwuPD2YW/yM78dgqxR6AcS08TNcrNlJo2a8q5PkeX2fslcOF5Z8xChI0w2OMqmDk46lPlUe2MnfMeFV9D1l9J6OsVVfueRjh9TvAdwHuJshCy6OnXMBbJqET5EIa7VB7BzXCiU2CGDpedC7eCi3cvHfOsrYdCUAjL2QWTa+asizHUAMgE8RsuJrLJje+wyQ/F92fod/fMvv+QjeUaKIGLt1aCv/HGy2Knu2awGofifBn4v6PWWs2mq+iL9mIobvT5VL2dOjLI34hhSvo4utkdNZ1A/A4sLc90mDMNBUEnFlsSViXMu1c7LOZVLAGgAUWMTwoD1hNTtneoi5aY3EUrKH2ZLuM87L+zTLi4sJ9R4vqXOsQ+Y7VJot0+b58NGhpyV7R24oioZZPfJYlvRQZlxQRj1L01R6EZYVKQbCUQ4IOte8fD47aQqIel5fv9ld8pi08mQ1m29P9wJjPwWK6qQVXYNK8GfyGBM/wjqlLvmIOJd87JA8xq6Tc2FmR2jnXIA2dsnzuDaIneNu1l53R7kSVCoeyq1c8m/58upnjIXH2E8Bz1btdggcedn73axzBKT8/s1uzRnDR/AcO+WyuxdVLjZblT3btQAAZzHgXKWk4feyXpxYtdV8SbUz4eFUBZ3bLXt6kMXBqFdbXjbY4dmqfmQb2pXz01QScSVx+P3+9JU2YiJwb2QPj9gGxYugXzGkRr0TrnqzO3U+gMEOmhYYbZpHEAQx2RR6p2S+Z4zV4I8gJoNrVsQQBEEQjEKIGGEtm+ZzhJVVpIXcNZgg8uGqC+wlCIIgrj6ci9kqvdQFQDTYU4sgrgTkiSEIgiAIYkrivNIGEARBEARB5AOJGIIgCIIgpiQkYogrRnXzCUTW7L3SZhAEQRBTFIqJUVHdfAKxwTPoPvyI/Dna3Ybe49tt/dYbqjH9fvjsq3K+ADB//QEkRvs0x/jxvg92Itrdpjl/dfMJ9B7fjmh3G+q3RvHHX61HtLvN0qbyhlYEIk3o3LccpfVbUL5yh2V6vY1GdtZu7kLfe/+O/tN75HKr62j++gOI9X9oWGeRNXsRrHrA0gZO/6ldtuqdIAiCuH6Z1NVJ1c1s28rOfcsn87R5UVq/BUJxme2OlJepvKEVpUu24fQPAxlp7IiiS10HUd7Qis5upY7KG1ohxvoR7W5Daf0WxAc7sgoYI8TYAM48X2n43fz1BwyP932wEzfcsx++UC069y1H9xt/gxvu2Q8AspDhRNbshT/ciEtd5q+0jQ92ZL3+tZu7LL8nCIIgCMCmiKnfGtV8jvW9j+HOn2d0YlMRM4/I9Mp1EHyzMsrOMRIpAFC6ZBv++Kv1ADI9O3boP70HJTUPIxBpko8FFzXL4sM3eym8oZoMu9SeGb3XpX5rFCM9R23boCba3YbTPwygdnMXyhta0Xt8O3rfeRLlK3dorn9p/RYEKlab1gvHyPZCUhSsQvlffh/+8Co43cVIJUYx+vnv0HP0cVwePgsACESaMKvuURTPWQbBN8vQA2XlWet950n0n96DYPUGlNZ/G76ymwEwkTjQ/hw+P/kDOS1PUxRcLNsz0vM2un7zzQmqAWvslP1qs5kgCMIM256Y+GAHYoNn4HJPgz+8CuUrd8BZNEPzwL5WKK3fAn+4Ue6sONmmcWo3d6H/1C75+859y1G7uQul9VtsCb5ApEn2cvC/vCOt3xpF7ztPIlj1gMYGI5v6T+9B/+k9GdNJ/nCjpYAYPvuqoT2nfxjQeHB4/mqMjhkx0Z6Y2bd8F9Mr12HozAuID/0BvtlLMaPyLoRqNskesOCib8EfXoWxS59A8M0yzUuMDSB64UhmGYY7AQDhVf+JZHwA/ad2ITHSg2D1g5izbDtGPzspX4+ym9hLqQZ//zwSIz2YXrkO0yvXyYJwsrFT9qvNZoIgCDNsixi1R6EoWIUF9/0Ws+oe1YiYyJq9mFF5F5zuYoixAQx/tM/woVd5188wvXKd4Si5fmtU09Fxr4JaUAQiTShvaIU3VINUYhSDv38eoT/fjC+6fpMxqqxYvQsltZsyBIkVZUufAAC4/WH5GPeMmAmYyJq9EHyzULpkG0qXbMvIz865udejtH4LypY+AXG0D2KsH+f33y2fAwC8wWpEu9uy2qQnn+mkkZ6jqN8alWNUajd3ZXR+3lCNpsxGo3t12vF6YqyuqS9Ui/hgBy4c2Wbya2D4o/9C9+FHssYJiQYeOjWfvP5XmrqPD3fihnv2Y+b89Rohq8kzPgR/uBHJRH51kE97VmOn7IW2mSAIYqLIKybm8vBZXPrjAZTUbkKwegOGO1+RgzaHz76K2OfvwTd7KUqXbEMyEdUIHaG4DOlkDL3vPAlvyWKU1G5CuPFZuaO2Q3lDKzzT56H/1C4kE1HMnL8eTnexYVrPDNZpqwWJFb5QLcTRPkQvHIEwbY583BushhgbMP1d9+FHTDu86uYTKG9oNfxODY+niQ924MzzlahuPpHhPYkPdshlCVQ0IT7YkTVfHoujp3Zzlyw0jeo/2t2GaHcbyhtaEVzULAtSq6BbHvdkRiE8MVbXVIz1wx9utPR+5RNPZCcfwVdqmjYQaUKgognBRc241HUwbw9mru1ZTy5lL5TNBEEQE0Xegb3xIfZ6WcFbAgAIVKzGSM9RTUfuC9Vixrw7Mh5+Z3+uvALWM6MSxbNvsX3eQKQJ3lANhs68IHekY190IXL7TwzTn99/t+3pHEDxOHFviFyW2UsRHzxjKw/+W+714J12dcS6g+89vl0uE/d+6Dt8PkWE44Cv9EbETGwKRJpk70jvO08CgGGMj95zZDTCV9tl9Bs9ZjYBhfHEWF3TnqOPY/49v0T5yh0o/epj+NPH/533FIhQXJaxBNzKMxP4M/Z68z+d3685rvZ6xAc78o5PAnJvz/lSSJsJgiAmioKtThJ8swxjLvSeAnG0T/M5Mdpn6kUxwhusZvlKIgoA8wSZiBggcxWNHfpP70HZ0ifkDiNQsRrDH+0zTW8UCKquCy4krOCeGI5aLIz0HMX5/XcjeqGNHZdiXHgQsRouovpP7UIg0iTHx+ink9SeGCv4VBP31lxpTwxgfk0vD59Fx4u1KG9oxcwF96J0yTbMXHAvzv/qG/KUpV0E36yMJeFmIiZYvQEzKu/Cpa6DGd4OHi/EA2a5OMhXiExGQH2hbSYIgpgI8hYxRu7skZ6jGctrxfiQZT4u97R8TSgo89cfgDdUo/EiDH+0D2VLn5DLatXZqztmvSeGU1LzsKUNvce3IzHSg/KVOzSrfKqbTyDW/yEANh0w0nMU5St3mC61Vgf2coRpcyCO9mXEtKiFkpk48YZqLQWcXfQCIBBpQuT2n2bUk1ncTi5w7xH3KOQ6ZQnYE1wAu95zbv1nJOMDlit4hjtfwXDnK6jfGoU/3DglBMFUtJkgiOuHvERMUbAKwUXNSCVG5YeaGBuA4CvN6SFXFKyCP7wKsb73TdN4SxZrPnNRpD4erN5geZ5s7vdg1QPoP7UrI6ah9/h2eVqm/9Quy3MUiumV6wAw4dK5bzkLGNbtV3Op6yD84cac4ht8oVrEBs8gUFxmKFbMPCiBSBME3yxELyjnymc6icfVnHm+UrNhXvTCEbmscv71W1BS87ClgLA7pdJ/eg9Kv/qYZbxKvhQFqzD7lu8iWPUALnUdtLUEuShYNe7zTsZ0kppC2EwQBDER2BYxvlAtImv2ykusne5iTcc+0P4c5izbjqoH38YXn/wWqctfwFk0Q7PcFABcHj9K67fA7Q9j5oJ7AQAX3/2+/H2s7334ym5G5V0/AwB4ps8DwDr3+HAnhjtfwdxb/xEzqx5EciyKZCKKGfPuMLV7/voD8Icb4faHDb0M/nCj3KnrY1Yia/bKU0Q8DmU82BnVc29Baf0WeTpK7ZXhngUxNoDSJdsQvdBmS8x4QzUY6ngRgYrVOdkcqGhiS43VS7jzmE4KLmo2XK7cffgRzF9/QF6+y5eSi7F+zF9/wNB7YnVN+d48sc/fA8BimdyBCEZUy8fLG1ohTJsDd3EZSyO1bfHLz3KKn6l68B043cVIRLuRTHypiZ/hXqeK1bsw9mWvfD/MnM+m//KNMcnWnrNhp+yFtpkgCGKisC1ivKEauUM32uyOB++GFj+EOcvYwzCVGEXP23+nyccdiKB85Q55eXXfkb/V7XHyI5Td1MJEy2AH+j7YicjtP4E/3IjEaB+i3W24+O73UXZTC0qXbJOXWPMNx/SMfdEFhBuRGOkx/N5scza9gIis2atZapwNfRBtLtvo8ykfvlS5fmtU3sOFe416j29HZM1e3HDP/qzLbSNr9iI+2KHE+Zh4UozEUCDSZDugmSN++VnG+QHzeBK1cAOU6bDq5hOGXgerayrG+hGoWC3HsoixgYwl3zw4nMPbdnywIyehymO53IEIgoGI5jt+Ps+MSpTUbpKPxwc78NnJ1rw9KdnaczbslL3QNhMEQUwU18S7k3hA7Hjft8O9CN5QjWlePIBXv8Gc1Q66ejvN0vDvjfZZ4UvY9aKLe2bUeak3zes/tUveRTja3WYazGv2SgS9cDP6vT7OJtt7nazeoWS1xwxBEARBqJmSIoa7xAHAO/MG+MpuhhgbwMe/uCPnFSgEQRAEQUxNJvUFkIVC7RJPRLsx0nNUs+svQRAEQRDXPlPSE0MQBEEQBOG80gYQBEEQBEHkA4kYgiAIgiCmJCRiCIIgCIKYklzzIsb7NPun/uxpUT77XgGEtdnz0KfxtADujQZpdwPOuvztJa5d3N/O3taI6xNqGwSRH1dMxHhamIAoPsz+uVZMzHmcywDxmPLZsQBISe+OdNYByROA53Gt0NEjHmNp1IztBNwPaQULF0fOrxTGdkJBWKu0leLDWiGaS5pC46yz1/m4VgDu+wDPlom3aaphtw6nCrm2w0K0jalUh1fiPiWuXWwtsfbuBpwLM4+Lr7POPFc8LYBwJ5A6x0QEAKTO555PNtwbgfQQIB5in511gKMESH0qnbMdGGsHxDcB7zPs+1R7Zj7iIcC5mNVD/DHleOJlwPNNIN7OzuVaDsRMXuPkmAu4/xoQbgXgBRAHUh8Cl3cD6YuKfcLXAdeNzE6j+jW7FgAw9iyz1bUCcH9DEVjpIUB8DUi8pk3vaWGCTjzEHiyex5U8Co2wFhBu19qUPGG//SRPM9uATEGZS5pCI3yNteVsdZY8xtpW8tzk2GWGVfsZXTO5tnDs1qEVxYfZX3X79e5mf9X37GSQazssRNsoZB3KGDyjCsGVuE+JaxdbIiZ5Akh9DDgXsAdg6iSQGlQ8GrniWg6keyf+4eKqYmJAf3N6nzFOz4/Hv5MpZsZ2KlNF+t+r8+f/T50E4k8px90bAGEVkPgFkP6EiSJhNevYEy+xNMLXmMhJXWB2m8EFgB4uzor+nqVJvAyk+9g53I8CyU6lXK4V7KGXiJmfp1C472fnT/cCieeA9AggrGDlF980Fo560hcBUXqQmj347KS5ksS/c6UtYJi1n2sBYcXEiPBcyKcdXi1tI3WOPesBwBlinuwiaJ9l4+Vqv0+JqYUtEcM7WU8LEzHiscwHBR/1pD5lnTUAiG8DY62Z+XEvgxmeFtbBwWvuRQDYPLL7PnPvgf7G8+5mN2g+3iNAEV36Eat3N+sUeD0Z4VzAHhCJH0kHDmXaIb7JjnGviBnpQesyxL+nFQapT5nwcjUox503SHl9Yp6PGj6Cz2e0LtwvidZ/UEZ04iHmnVKP8Oxe90KQca6DmdfPfT8g3A04ytnnVDuQ+CUbOXNvIkctZNUeNH261Dlj8Z6t7LncX9mwaj+uFUDRPzEBrK4P79OsQ4s9rFyzbHWYzWa7dWi7XL3MRn274qjvq/QQkP5Y62Xg34tvM3tT7WywJqzKrGs77ScbdtqGYy4bALmWawc2/PoUug71z0d+3TPszvG6p07m5tFxb2TT9Zf/hd1venvU7ZC4vinojr2OEAuyEV9nnbawCkj3sAburNPGijhDyhxuekRpqO6NylRT6mN287ofZWn0QsUVls5bZs8+50JA/HVuZVI/+PTelZwYZjefsNZ8pGjHI2EHfT6OGZlpHFLdTfSoVVjLHr6JlzMfOurPuVz38cIf/OLrzJvoXMwemBhVhIPsPRqSBLePeck8W4HYMcmD9Ac28ncuU9zjgOIRA5R0gLkwtVt2q/urUCSPsTK76oGE6rjzRtauNAImSx1ms9luHdq2/TTggta7qSb1qTJ4coYlL0MwUzg4QyydcCeQfJldF2FVpvjKVvZs2GobG6S20a71niVPafMoVB1mI6frHmf2OBez37hH7Ytu8Q3pHlyrFTGOBdp2SBCFFTHFQLyFNTDHXMD3ImvMgDJny3EuAzySwk+dUxqqcBt7iPIHC5++MXITx5+yFgVqePCY53HzB4Z+9AmwvMVDSuCvmZfEuVC6mSXSQ9r4mMu7AW+Y/da9ARDfyr/zcYQyg+GsRlyuW9jfpOoNzc6vsJGrXcY79Zfus/4+l+s+XlzLmSCV6+wQ62Bdf6E8iIW7JXtalAdmcoUSu5VqZ/+ci6VO2kKYclFp1u7slt3q/soFfftJD2rbYvJD1mlzj4ZrBQAvEwkcO3WYzWa7dZgL4lusPg1FjBQDx+GeXL3nJtUjiYs7WT6OkDaOyG7Zs2GnbTgXsL+X/8O44y50HToXqBYoSNNJqZPK97lc99h3VGnCbBAwZtOO9EUWj+O8UXXuFZIX/2CehSOuSQoqYlIXlBtNf8ON7VQafvFhc1eno1x706Tapc42aHxOuzctv/lgMPLiwoSPbqzgokaNnWmq9EUgtkkadd/GBI9wm3aKxS6OEq0gBKynB4TVzB2u9tDw2KarhVyv+7jOVQI4lmXGSqVUgZWOclZn6mujHhEW1B6bZbe6v3I6n679pM7pRMz/MBEjNLCOyfV/AMS1aezUYSFttov4Bru3jFY78sB57hF2TGN/XfVKjIYd7Ja9ECSPsHvV96LiqbMbR5YPzoVawZZqZwMwTi7XXfO5J/etJ8RjbKDr3sjaHh+MiW/klg9xbTMlXwCZK+6N7OaLPcVGGZ4Wbafv3iS5R/N4MLg3Kje+cGf2mJHES+wfF05Fj+U+RWUWV6FHWMuWbaaHtG5c9QOeT+k55il/zWIKxoPdKb/JInVSu/QeYNM3apzFk2fPZJKt/chTSl+VRMyNbFSckY+NOpxs0heZXW7dcmPHXMD7r0B6VJmWcYaUeKdcmayyJ15jAfmuBsC1UFoMcCcLkJ+IeDE+uHTMBXw/BhDLfBZMVtnFQ+zZzKc2XfU0lURkctWJmHQvm/fkOOvYgyZt4jWwM53kfohNFQHSKiNpA7z4U2yvmmyBsmbol3W6N7JjdkSGeIhNK02Ip2GuMpduFPzJg3rVU3oc930s2DeXkakV4iEmpIR1bARl9gDK9bo7bUyjmKVJDwEIWrebdC9zZdsVdGbL8+2Qa9kng+SHzP3PtyUQ/z/t93bqMFfGU4dqxGOSeB9l9zbAOkB4gcQexWb3xsygVTvkWnY7bdUKPmWUgDIlZzZ1Vag6TF8ExHeZR06dp92yOyt0n0MA4iZpLepHfJs9k4S1knf0LbslIK4XbIkY90ZpXlh60Aor2Bws32OkkIhvMdHBp2hcy6XjBq58HqnuKDOPL/HuznSXxyWPTPHh/IJ1jfakABQvi/dpJo7UMTG8PPJGe4vZTZlUrdKS61m6qfn8tD5mIRu+H4OtHOgFENPGP4ztVOxUk22fmPGsTkq8Jl3TH7Drm+4DHH7AUaGIx1yuO1+F4tnOygdfplCzSiO+xgJnvc8Ayf9lo0iHX7sEXTzA0vh+zB7mkJaiZ8SP/I6JxaLvKSP8dExZheZawfLmOKYp3i9ez7mUvRAYxVQBWiEv/pp1YJ5vg00l6TpMO3Vol2x1mCt8BO8oUUQM9xQIkhfSUSYJG+lYLkGwuZTdqh3aaRvy7yT4M1i/p0yh6xBQtQFpL6xcyp4eZWnEN6R4HV1sjZwuy72cPM5EjFt6ltJUEqHHlohxLdfOkzqXSUFkAFBgEcMD6YTV7JzpIeY6NepYkz3MFrOgUe/TLC8uJtR7vKTOsQ6Z7xpptcmbepmhpyV7R24oioZZPfJYBL7qRd1xZNSzNE2lF2FZ8bI/jnJA0LnL811ePh4SL6n2q1EFP6vn0XO57mM/ZauE1Mt2c0mjDt51PyodjAOpfzNOw/MAFI8eJ3mMHRPWKdeWj5oBwN2svaaOciWIk5ctl7IXAqOYKkDbNnhcjlnslJ06tEu2OswHPoJXn0N8ndWxZxkr29hPgaI6adVgDvte5VJ2q3Zop204iwGnqv3x54ZenExEHaba2bV3LlO8MXbLnh5kcTDqlZ3q2BpOtntZDlyuo6kkwhiH3+9PX2kjJgL3RnZDxzYoXgT9iiE16p1M1ZvdqfMBDHa1tMBo0zyCIIhrmULvlMz3jJmo3cSJqc01K2IIgiCIyacQIkZYy6b5HGFl9V4hdw0mrh2uusBegiAI4vrGuVjaYPECIBrs30UQHPLEEARBEAQxJXFeaQMIgiAIgiDygUQMQRAEQRBTEhIxxBWjuvkEImv2XmkzCIIgiCkKxcSoqG4+gdjgGXQffkT+HO1uQ+/x7bZ+6w3VmH4/fPZVOV8AmL/+ABKjfZpj/HjfBzsR7W7TnL+6+QR6j29HtLsN9Vuj+OOv1iPa3WZpU3lDKwKRJnTuW47S+i0oX7nDMr3eRiM7azd3oe+9f0f/6T1yudV1NH/9AcT6PzSss8iavQhWPWBpA6f/1C5b9U4QBEFcv0zq6qTqZraVZOe+5ZN52rword8CobjMdkfKy1Te0IrSJdtw+oeBjDR2RNGlroMob2hFZ7dSR+UNrRBj/Yh2t6G0fgvigx1ZBYwRYmwAZ56vNPxu/voDhsf7PtiJG+7ZD1+oFp37lqP7jb/BDffsBwBZyHAia/bCH27EpS7z18zGBzuyXv/azV2W3xMEQRAEYFPE1G+Naj7H+t7HcOfPMzqxqYiZR2R65ToIvlkZZecYiRQAKF2yDX/81XoAmZ4dO/Sf3oOSmocRiDTJx4KLmmXx4Zu9FN5QTYZdas+M3utSvzWKkZ6jtm1QE+1uw+kfBlC7uQvlDa3oPb4dve88ifKVOzTXv7R+CwIVq03rhWNkeyEpClah/C+/D394FZzuYqQSoxj9/HfoOfo4Lg+fzeqR+uxkK0hspUwAABKSSURBVD4/+QNLz1rvO0+i//QeBCJNmFX3KIrnLIPgm2XoySoKViHc+CyKZ98i2zPS8za6fvPNgpbbLnZsBpggjX3+HvpP75HrjJebIAjiasG2JyY+2IHY4Bm43NPgD69C+codcBbNwOcnfzCR9l0RSuu3wB9uzHhoZ5vGqd3chf5Tu+TvO/ctR+3mLpTWb7H18A9EmmQvB//LO9L6rVH0vvMkglUPaGwwsqn/9B70n96TMZ3kDzdaCojhs68a2nP6hwGNB4fnr8bomBET7YmZfct3Mb1yHYbOvID40B/gm70UMyrvQqhmk8YDxtszZ0blXUiJo5r2LMYGEL1wJLMMw50AgOCib8EfXoWxS59A8M0ytGfe2v8XnunzMPj755EY6YFv9lIEqx5AZM3enMRtobBjc7B6A4JVDyCd+HKSrSMIgsgN2yJG7VEoClZhwX2/xay6RzUP/ciavZhReRec7mKIsQEMf7TPcOqk8q6fYXrluoxRMsA6ZXVHZzQKDESaUN7QCm+oBqnEKAZ//zxCf74ZX3T9JqNjqFi9CyW1m3IaRZYtfQIA4PaH5WPcM2ImYCJr9kLwzULpkm0oXbItIz875+Zej9L6LShb+gTE0T6IsX6c33+3fA4A8AarEe1uy2qTnnymk0Z6jqJ+a1SOUand3JXR+XlDNZoym43uedrxemKsrqkvVIv4YAcuHNlm8muGuj0HIk0IVj2AkR7ti1tEAw+dmuGP/gvdhx8x9e4UBavgDdXgUtdBzX3gn7sc/rn5Tanm055zsRkAfLNuBADEh2y+TIggCOIKkVdMzOXhs7j0xwMoqd2EYPUGDHe+IgdtDp99FbHP34Nv9lKULtmGZCKqETpCcRnSyRh633kS3pLFKKndhHDjs3JHbYfyhlZ4ps9D/6ldSCaimDl/PZzuYsO0nhms01YLEit8oVqIo32IXjgCYdoc+bg3WA0xNmD6u+7Dj5h2eNXNJ1De0Gr4nRoeTxMf7MCZ5ytR3Xwiw3sSH+yQyxKoaEJ8sCNrvjwWR0/t5i5ZaBrVf7S7DdHuNpQ3tCK4qFnuiK2CbnnckxmF8MRYXVMx1g9/uNHU+xUf7pTbKGfmfDb996ePf2l5Xj3ZxOP0yNcAAEmdRyM5NmIZBG5Fru1Zjx3BWzRzPoDMmCeCIIirjbwDe/koTfCWAAACFasx0nNU05H7QrWYMe+OjCmnsz9XXsvqmVGJ4tm32D5vINIEb6gGQ2dekDvSsS+6ELn9J4bpz++/2/Z0DqCM0Lk3RC7L7KWIq6YfrOC/5V4P3mlXR6w7+N7j2+Uyce+HvsPnU0Q4DvhKb9RMiagJRJpk70jvO08CgGGMj95zZDTCV9tl9Bs9ZjYBhfHEWF3TnqOPY/49v0T5yh0o/epj+NPH/62xnQszNYHIbcxz2PmK5rhQXJaxBDzX+KY5t/4zfKFaFAWrcHn4LILVG+CZPs92Hnpybc/54Jk+D4lo94TlTxAEUSgKtjpJ8M0yjLnQewrE0T7N58Ron6kXxQhvsJrlq3J1D3e+YipigPxGlP2n96Bs6RNyhxGoWI3hj/aZpjcKBFXXBRcSVnBPDEctFkZ6juL8/rsRvdDGjksxLjyIWA0XUf2ndiEQaZLjY/TTSWpPjBV8qol7a660JwYwv6aXh8+i48ValDe0YuaCe1G6ZBtmLrgX53/1DXnKUk2wegPcgQiGzryQ8Z3gm5WxJDzXOJbB3z+P0iXbsOhb7wMAEtFujF36JKc89Ey0h8Qbqsk7EJwgCGIyyVvEGLmzR3qOZiyvFeNDlvm43NPyNaGgzF9/AN5QjcaLMPzRPpQtfUIuq1Vnr+6Y9Z4YTknNw5Y29B7fjsRID8pX7tCs8qluPoFY/4cAmCdhpOcoylfuMF1qrQ7s5QjT5kAc7cuIaVELJTNx4g3VWgo4u+gFQCDShMjtP82oJ7O4nVzg3iMe+2E2ZTlzwTcAAH86vz/jOzuCy44d0Qttivge7sQN9+y3XIZ+JQlWb5D/X1q/BQDgLVks/+UeJYIgiKuBvERMUbAKwUXNSCVG5VGhGBuA4CvNaZRYFKyCP7wKsb73TdPwByiHiyL1cfWD14hs7vdg1QPoP7ULgq9Uc7z3+HZ5Wqb/1C7LcxSK6ZXrADDh0rlvOQsY1u1Xc6nrIPzhxpz2ivGFahEbPINAcZmhWDHzoAQiTRB8sxC9oJwrn+kkHldz5vlKzYZ50QtH5LLK+ddvQUnNw5YCwu6USv/pPSj96mMZ15ZTPGcZEtHuvPbdsQufwgpEmlCx+v8ilRjFQPtzeec3kdNJPKjXH26EP9yo+a6kdhPiQ39AP4kYgiCuEmyLGF+oFpE1e+Ul1k53saZjH2h/DnOWbUfVg2/ji09+i9TlL+AsmoHRz05qOgiXx4/S+i1w+8OYueBeAMDFd78vfx/rex++sptRedfPAECOH5heuY4FZXa+grm3/iNmVj2I5FgUyUQUM+bdYWr3/PUH4A83wu0PG3oZ/OFGuVPXx6xE1uyVp4h4HMp4sDOq596C0vot8nSU2ivDPQtibAClS7YheiEzxsMIb6gGQx0vIlCxOiebAxVNbKmxegl3HtNJwUXNhsuVuw8/gvnrD8h70PCl5GKsH/PXHzD0nlhdU743Dw/c9c1eCncgghHd8nEAmL3sHyD4ZuUtUMsbWiFMmwN3cRk7l3SPiF9+JtsViDQhuOhb8IVqNavp8hVN2drzeG3Wxz8BxisECYIgrgZsixhvqEbu0I02u+PBu6HFD2HOMvYQTCVG0fP232nycQciKF+5Q15e3Xfkb3V7nPwIZTe1MNEy2IG+D3YicvtP4A83IjHah2h3Gy6++32U3dSC0iXb5E7BV3azod1jX3QB4UYkRnoMvzfbnE0vICJr9mqWGmdDH0Sbyzb6fMqHL1Wu3xqV93DhXqPe49sRWbMXN9yzP2vnElmzF/HBDiXOx8STYtSxBiJNtgOaOeKXn2WcHzCPJ1ELN0CZDqtuPmHodbC6pmKsH4GK1XIsixgbMF3y7S9vAAAMdmTGw9iBB5lz+D0SH+yQBa83WI1g1QOID3bgUtdBDLQ/Ny6vT7b2XAibCYIgpgrXxLuTeEDseN+3w70I3lCNaV48gFe/wZzVDrp6O83S8O+NOl2+hF0vuvgoWZ2XetO8/lO75F2Eo91tpsG8Zq9E0As3o9/r42yyvdfJ6h1KVnvMEARBEISaKSliuEscALwzb4Cv7GaIsQF8/Is7KOiQIAiCIK4TJvUFkIVC7RJPRLsx0nNUs+svQRAEQRDXPlPSE0MQBEEQBOG80gYQBEEQBEHkA4kYgiAIgiCmJCRiCIIgCIKYklzzIsb7NPun/uxpUT77XgGEtdnz0KfxtADujQZpdwPOuvztJQiCIAjCHldMxHhamIAoPsz+uVZMzHmcywDxmPLZsQBISe+OdNYByROA53Gt0NEjHmNp1IztBNwPaQULF0fOrxTGduLqx1mXXQQT1lAdEgSRL7aWWHt3A86FmcfF11lnniueFkC4E0idYyICAFLnc88nG+6NQHoIEA+xz846wFECpD6VztkOjLUD4puA9xn2fao9Mx/xEOBczOoh/phyPPEy4PkmEG9n53ItB2Imr3FyzAXcfw0ItwLwAogDqQ+By7uB9EX2ENcLJTWJ54DEa+bXAgDGnmW2ulYA7m8oAis9BIivsd+r8bQAwmpmj1maQiGsBYTbtTYlT+TXfq4mhK+xtszbWD5YXdPRNcZp0kNA+mOl/dhNU3xYm3+qHRDfyN3+QuUDFKYOCYK4PrElYpIngNTHgHMBe0imTgKpQcWjkSuu5UC6VysIJgJXFRMt+geu9xnj9Px4/DuZYmZspzJVpP+9On/+/9RJIP6Ucty9ARBWAYlfAOlPmCgSVrOOPfGSki51jtU1R1gNpEe14oILAD1cnBX9PUuTeBlI97FzuB8Fkp1KudwbpY7jdXYdeZrUZ0DyWGbe48F9P8s73cvEWHoEEFawsolvGgvH6w2za2qWxhlmXsaioPY+spNGbmM+Jqo9dYDDn7uALVQ+BEEQ+WJLxPBO1tPCRIx4LHPU5N3N/qY+ZZ01AIhvA2Otmfk5SljnaYZdD4H724D7PsUDoUctIriNqY/zH/3zjoCPjtX5Jk9oxYge5wL20E/8SDpwyNgOtX3OOiY0ku9q06QHrcsQ/55WGKQ+ZcLL1aAcF9YxUcHzSZ4GfD8G3GuNRQwf5evLbgfhfkm0/oPiERAPMe+U2kOQOqfUMfdM8Wur9lSl2pm97vsBeJV2ZicNJ6ONHdRev2ztmXsTOWohm4+HMts1NUrj2c5sU3sQ7aRRt7HEXMC7k12jnEVMlnzU18PIK2S3DrPlQxDE9UtBd+x1hFiQjfg667SFVUC6h3UOzjptrIgzpMyDp0eUjpN7CPgoz7VcGsWPZAoVV1g6b5k9+5wLAfHXuZVJ0zGezBRGthlmo2JhrbHgSn2qeEU4LvZ+QiT/J7dT6T0bjhmZadRC0rWC1X/qAuAI53aubAhr2bkSL2d2Orl0QsnTTNC4NwDwsnaReAlwVLF2lvrAXhrxkNJ58vp2LmbxTdB5vKzas/im5MFawa7r2LPK77hHbKJJfQBgFbuvzLxZ2dKkLzJx5r5PaQf5YJQPb9OAsVfIbh1my4cgiOuXwoqYYiDewh5ojrmA70XWEQDKvDfHuQzwLGP/T51THp7CbWy0xR9QfPpGWJHZ+cefMhcFenjQredx89iTxMuZ3hTxEPvHA3/NYlecC6WOUCI9pI2Pubwb8IbZb90bAPEt3TSSFJ+jRrhVmh7QdSyOkHaFFWA9infdwv4mpbcUq4Oo+Ug98bKUd7lxHuPtMNJ94/z9RUC8CAhfZ3V9+V9YvTjrJE/DYulaZUmDQ0zcpE6q6uwQEymuv9CJGIv2nGpn/5yLJaEzzngO/TVND1p79gB2TwBMvI0nTfoTyQZ/djut0Oejb9Pcc8o9cHbrMFs+BEFcvxRUxKQuKA8V/cNlbKfSaRQfNne5O8pZByPn2c6mIhA0PqfdzoN3XDAYwXFhkjyVPR8uatTYmaZKXwRimyRP021M8Ai3aadYNPauYHWR+EXmd44SrSAEzM/t4rEnbysjccPOatTc9qsRLuxS7eZTXGZpHCWAY5lBcOo53WeL9lxo9Nc0dS5TxKiFjhyf1q61zU6aycJZJwlKyQPrmMb+uuqZ2JzsfAiCuPaYki+AzBX3RtZJxJ5iD3hPi7bTd2+SphbyCDB1b2QdhXMh64SyxYwkXmL/uHAqesx4isr1f9hf7j1Ro44dsUJYC3i2MG+OOh5EPKR4k8Zale9cqyXBOAHYnfKbLFIntUvvATZleaWwc03VQic9xNps4pXc02TkW6Bro87HMRfw/isLSpcDjUPmnj7TPAuUD0EQ1yZXnYhJ97K9XDjOOvbASp80Tm9nOsn9kDJdMrZT2QAv/hTbq8ZOUKURfCTPg0/dGzMDVM0QD0mxGyYeJteNrC7yEVaOudJqqDvNg6vTQ2wkq/6Ns4It+y4k4iEmpIR1bAmuXY+AY15h7VCTHgIQLOySXrPl+YXETruyK3A5jrns2iA+vvrQ5yOsBeAFEnuUfN0b2TSyGUZ16KrPPR+CIK4fbIkY90YpyFESF8IKNo+d+kPh93YQ32Kig0/RuJZLx41WzDzNHmaOMvP4Ae/uTNd8XPLIFB/OL1hXL1443MvifZqJI3VMDC+PvNHeYibOkgartNz3K8Gw+eD7Mdiqm14AMW2sBRdrPAjT06IssYbXuJ65/fmuTkq8Jl3TH7Drm+5jU1qOCsWeVDvrxDzb2Wc+dSCsUII8nV9RphKEtdqAcEAJHrdKA7DVbu5HWaxV8n9ZGodfuwTdLsnfMbFY9D3FU5COqVah2cQozgmYmH10nAukc/mUfYvyaWtW+XCvFo/JcZQpoplfU17XVnWYSz4EQVx/2BIxruXaTbScy6RAPAAosIhJvMQe6MJqds70ENtbxEgsJXuYLWZBo96nWV5cTKj3eEmdYx0y3zHYbJk2z4eP/Dwt2TtyQ1E0zOpR7+o36qRcX2V/xTesz2OKl/1xlAOCzu0uL4n9EeDwScuM77Su5/GSeEm1X40q+Fkdg5L4JeD2SquIzgGJfUDRP0krugZZGnXMiOdxbUA4kBk8bpQGUC0BvpuJGQBs88F/y71syWOs4xbWKedOtQOJHPMxinMCJkjELFTu5/FsUmeVT/IYa9/CahbAn+4Fxn4KFNUp15QH61rVYS75EARx/eHw+/3pK23ERODeyB6KsQ2KF0G/YkiNerdT9WZ36nyAzGBQK4w2zSMIgiAIojBcsyKGIAiCIIhrm2v+LdYEQRAEQVyb/P85NyzRD04OxwAAAABJRU5ErkJggg==;" parent="1" vertex="1">
                    <mxGeometry x="1720" y="760" width="600.14" height="690" as="geometry"/>
                </mxCell>
                <mxCell id="gMgD0mbZSNUp6V09s_ka-98" value="" style="group" parent="1" vertex="1" connectable="0">
                    <mxGeometry x="2520" y="40" width="1080" height="1560" as="geometry"/>
                </mxCell>
                <mxCell id="gMgD0mbZSNUp6V09s_ka-20" value="&lt;h1&gt;Secs/Gem初始化功能&lt;/h1&gt;&lt;p&gt;&lt;/p&gt;&lt;ul&gt;&lt;li&gt;通过S5F5和S5F6报告所有的Alarm定义，S5F7和S5F8报告启用的Alarm（并非所有的Alarm都启用）&lt;/li&gt;&lt;li&gt;通过S1F23和S1F24发送所有的Collection Event定义，通过S1F3和S1F4获取ID为2029的Status Variable，获取启用的Collection Event&lt;/li&gt;&lt;li&gt;通过S1F11和S1F12获取所有的Status Variable定义，通过S1F3和S1F4获取所有的Status Variable的值&lt;/li&gt;&lt;li&gt;通过S2F29和S2F30，获取所有的Equipment Constant定义，通过S2F13和S2F14获取所有Equipment Constant的值&lt;/li&gt;&lt;li&gt;通过S1F21和S1F22，获取所有Data Variable定义&lt;/li&gt;&lt;li&gt;通过S7F19和S7F20，获取所有的Recipe名称&lt;/li&gt;&lt;/ul&gt;&lt;p&gt;&lt;/p&gt;" style="text;html=1;strokeColor=#B09500;fillColor=#e3c800;spacing=20;spacingTop=-20;whiteSpace=wrap;overflow=hidden;rounded=0;fontColor=#000000;" parent="gMgD0mbZSNUp6V09s_ka-98" vertex="1">
                    <mxGeometry width="820" height="200" as="geometry"/>
                </mxCell>
                <mxCell id="gMgD0mbZSNUp6V09s_ka-21" value="S5F5" style="rounded=1;whiteSpace=wrap;html=1;fontFamily=Comic Sans MS;fillColor=#f5f5f5;fontColor=#333333;strokeColor=#666666;fontSize=16;container=0;" parent="gMgD0mbZSNUp6V09s_ka-98" vertex="1">
                    <mxGeometry x="560" y="320" width="120" height="40" as="geometry"/>
                </mxCell>
                <mxCell id="gMgD0mbZSNUp6V09s_ka-22" value="" style="endArrow=none;dashed=1;html=1;" parent="gMgD0mbZSNUp6V09s_ka-98" edge="1">
                    <mxGeometry width="50" height="50" relative="1" as="geometry">
                        <mxPoint x="560" y="1560" as="sourcePoint"/>
                        <mxPoint x="560" y="280" as="targetPoint"/>
                    </mxGeometry>
                </mxCell>
                <mxCell id="gMgD0mbZSNUp6V09s_ka-23" value="" style="endArrow=classic;html=1;" parent="gMgD0mbZSNUp6V09s_ka-98" source="gMgD0mbZSNUp6V09s_ka-21" edge="1">
                    <mxGeometry relative="1" as="geometry">
                        <mxPoint x="-1520" y="380" as="sourcePoint"/>
                        <mxPoint x="200" y="340" as="targetPoint"/>
                    </mxGeometry>
                </mxCell>
                <mxCell id="gMgD0mbZSNUp6V09s_ka-24" value="" style="shape=message;html=1;outlineConnect=0;container=0;" parent="gMgD0mbZSNUp6V09s_ka-23" vertex="1">
                    <mxGeometry width="20" height="14" relative="1" as="geometry">
                        <mxPoint x="-10" y="-7" as="offset"/>
                    </mxGeometry>
                </mxCell>
                <mxCell id="gMgD0mbZSNUp6V09s_ka-25" value="S5F6" style="rounded=1;whiteSpace=wrap;html=1;fontFamily=Comic Sans MS;fillColor=#f5f5f5;fontColor=#333333;strokeColor=#666666;fontSize=16;container=0;" parent="gMgD0mbZSNUp6V09s_ka-98" vertex="1">
                    <mxGeometry x="80" y="360" width="120" height="40" as="geometry"/>
                </mxCell>
                <mxCell id="gMgD0mbZSNUp6V09s_ka-26" value="" style="endArrow=classic;html=1;" parent="gMgD0mbZSNUp6V09s_ka-98" source="gMgD0mbZSNUp6V09s_ka-25" edge="1">
                    <mxGeometry relative="1" as="geometry">
                        <mxPoint x="-1800" y="419.71000000000004" as="sourcePoint"/>
                        <mxPoint x="560" y="380" as="targetPoint"/>
                    </mxGeometry>
                </mxCell>
                <mxCell id="gMgD0mbZSNUp6V09s_ka-27" value="" style="shape=message;html=1;outlineConnect=0;container=0;" parent="gMgD0mbZSNUp6V09s_ka-26" vertex="1">
                    <mxGeometry width="20" height="14" relative="1" as="geometry">
                        <mxPoint x="-10" y="-7" as="offset"/>
                    </mxGeometry>
                </mxCell>
                <mxCell id="gMgD0mbZSNUp6V09s_ka-28" value="" style="endArrow=none;dashed=1;html=1;" parent="gMgD0mbZSNUp6V09s_ka-98" edge="1">
                    <mxGeometry width="50" height="50" relative="1" as="geometry">
                        <mxPoint x="200" y="1560" as="sourcePoint"/>
                        <mxPoint x="200" y="280" as="targetPoint"/>
                    </mxGeometry>
                </mxCell>
                <mxCell id="gMgD0mbZSNUp6V09s_ka-29" value="S5F7" style="rounded=1;whiteSpace=wrap;html=1;fontFamily=Comic Sans MS;fillColor=#f5f5f5;fontColor=#333333;strokeColor=#666666;fontSize=16;container=0;" parent="gMgD0mbZSNUp6V09s_ka-98" vertex="1">
                    <mxGeometry x="560" y="440" width="120" height="40" as="geometry"/>
                </mxCell>
                <mxCell id="gMgD0mbZSNUp6V09s_ka-30" value="S5F8" style="rounded=1;whiteSpace=wrap;html=1;fontFamily=Comic Sans MS;fillColor=#f5f5f5;fontColor=#333333;strokeColor=#666666;fontSize=16;container=0;" parent="gMgD0mbZSNUp6V09s_ka-98" vertex="1">
                    <mxGeometry x="80" y="480" width="120" height="40" as="geometry"/>
                </mxCell>
                <mxCell id="gMgD0mbZSNUp6V09s_ka-31" value="" style="endArrow=classic;html=1;" parent="gMgD0mbZSNUp6V09s_ka-98" source="gMgD0mbZSNUp6V09s_ka-29" edge="1">
                    <mxGeometry relative="1" as="geometry">
                        <mxPoint x="-1540" y="560" as="sourcePoint"/>
                        <mxPoint x="200" y="460" as="targetPoint"/>
                    </mxGeometry>
                </mxCell>
                <mxCell id="gMgD0mbZSNUp6V09s_ka-32" value="" style="shape=message;html=1;outlineConnect=0;container=0;" parent="gMgD0mbZSNUp6V09s_ka-31" vertex="1">
                    <mxGeometry width="20" height="14" relative="1" as="geometry">
                        <mxPoint x="-10" y="-7" as="offset"/>
                    </mxGeometry>
                </mxCell>
                <mxCell id="gMgD0mbZSNUp6V09s_ka-33" value="" style="endArrow=classic;html=1;" parent="gMgD0mbZSNUp6V09s_ka-98" source="gMgD0mbZSNUp6V09s_ka-30" edge="1">
                    <mxGeometry relative="1" as="geometry">
                        <mxPoint x="-1600" y="620" as="sourcePoint"/>
                        <mxPoint x="560" y="500" as="targetPoint"/>
                    </mxGeometry>
                </mxCell>
                <mxCell id="gMgD0mbZSNUp6V09s_ka-34" value="" style="shape=message;html=1;outlineConnect=0;container=0;" parent="gMgD0mbZSNUp6V09s_ka-33" vertex="1">
                    <mxGeometry width="20" height="14" relative="1" as="geometry">
                        <mxPoint x="-10" y="-7" as="offset"/>
                    </mxGeometry>
                </mxCell>
                <mxCell id="gMgD0mbZSNUp6V09s_ka-35" value="Host" style="rounded=1;whiteSpace=wrap;html=1;fontFamily=Comic Sans MS;fillColor=#d80073;fontColor=#ffffff;strokeColor=#A50040;fontSize=16;container=0;" parent="gMgD0mbZSNUp6V09s_ka-98" vertex="1">
                    <mxGeometry x="560" y="240" width="120" height="40" as="geometry"/>
                </mxCell>
                <mxCell id="gMgD0mbZSNUp6V09s_ka-36" value="Equipment" style="rounded=1;whiteSpace=wrap;html=1;fontFamily=Comic Sans MS;fillColor=#d80073;fontColor=#ffffff;strokeColor=#A50040;fontSize=16;container=0;" parent="gMgD0mbZSNUp6V09s_ka-98" vertex="1">
                    <mxGeometry x="80" y="240" width="120" height="40" as="geometry"/>
                </mxCell>
                <mxCell id="gMgD0mbZSNUp6V09s_ka-37" value="" style="shape=curlyBracket;whiteSpace=wrap;html=1;rounded=1;flipH=1;labelPosition=right;verticalLabelPosition=middle;align=left;verticalAlign=middle;" parent="gMgD0mbZSNUp6V09s_ka-98" vertex="1">
                    <mxGeometry x="720" y="320" width="40" height="200" as="geometry"/>
                </mxCell>
                <mxCell id="gMgD0mbZSNUp6V09s_ka-38" value="获取Alarm定义" style="rounded=1;whiteSpace=wrap;html=1;fontFamily=Comic Sans MS;fillColor=#f5f5f5;fontColor=#333333;strokeColor=#666666;fontSize=16;" parent="gMgD0mbZSNUp6V09s_ka-98" vertex="1">
                    <mxGeometry x="760" y="400" width="280" height="40" as="geometry"/>
                </mxCell>
                <mxCell id="gMgD0mbZSNUp6V09s_ka-39" value="S1F23" style="rounded=1;whiteSpace=wrap;html=1;fontFamily=Comic Sans MS;fillColor=#f5f5f5;fontColor=#333333;strokeColor=#666666;fontSize=16;container=0;" parent="gMgD0mbZSNUp6V09s_ka-98" vertex="1">
                    <mxGeometry x="560" y="560" width="120" height="40" as="geometry"/>
                </mxCell>
                <mxCell id="gMgD0mbZSNUp6V09s_ka-40" value="S1F24" style="rounded=1;whiteSpace=wrap;html=1;fontFamily=Comic Sans MS;fillColor=#f5f5f5;fontColor=#333333;strokeColor=#666666;fontSize=16;container=0;" parent="gMgD0mbZSNUp6V09s_ka-98" vertex="1">
                    <mxGeometry x="80" y="600" width="120" height="40" as="geometry"/>
                </mxCell>
                <mxCell id="gMgD0mbZSNUp6V09s_ka-41" value="" style="endArrow=classic;html=1;" parent="gMgD0mbZSNUp6V09s_ka-98" source="gMgD0mbZSNUp6V09s_ka-39" edge="1">
                    <mxGeometry relative="1" as="geometry">
                        <mxPoint x="-1540" y="680" as="sourcePoint"/>
                        <mxPoint x="200" y="580" as="targetPoint"/>
                    </mxGeometry>
                </mxCell>
                <mxCell id="gMgD0mbZSNUp6V09s_ka-42" value="" style="shape=message;html=1;outlineConnect=0;container=0;" parent="gMgD0mbZSNUp6V09s_ka-41" vertex="1">
                    <mxGeometry width="20" height="14" relative="1" as="geometry">
                        <mxPoint x="-10" y="-7" as="offset"/>
                    </mxGeometry>
                </mxCell>
                <mxCell id="gMgD0mbZSNUp6V09s_ka-43" value="" style="endArrow=classic;html=1;" parent="gMgD0mbZSNUp6V09s_ka-98" source="gMgD0mbZSNUp6V09s_ka-40" edge="1">
                    <mxGeometry relative="1" as="geometry">
                        <mxPoint x="-1600" y="740" as="sourcePoint"/>
                        <mxPoint x="560" y="620" as="targetPoint"/>
                    </mxGeometry>
                </mxCell>
                <mxCell id="gMgD0mbZSNUp6V09s_ka-44" value="" style="shape=message;html=1;outlineConnect=0;container=0;" parent="gMgD0mbZSNUp6V09s_ka-43" vertex="1">
                    <mxGeometry width="20" height="14" relative="1" as="geometry">
                        <mxPoint x="-10" y="-7" as="offset"/>
                    </mxGeometry>
                </mxCell>
                <mxCell id="gMgD0mbZSNUp6V09s_ka-45" value="S1F3" style="rounded=1;whiteSpace=wrap;html=1;fontFamily=Comic Sans MS;fillColor=#f5f5f5;fontColor=#333333;strokeColor=#666666;fontSize=16;container=0;" parent="gMgD0mbZSNUp6V09s_ka-98" vertex="1">
                    <mxGeometry x="560" y="680" width="120" height="40" as="geometry"/>
                </mxCell>
                <mxCell id="gMgD0mbZSNUp6V09s_ka-46" value="S1F4" style="rounded=1;whiteSpace=wrap;html=1;fontFamily=Comic Sans MS;fillColor=#f5f5f5;fontColor=#333333;strokeColor=#666666;fontSize=16;container=0;" parent="gMgD0mbZSNUp6V09s_ka-98" vertex="1">
                    <mxGeometry x="80" y="720" width="120" height="40" as="geometry"/>
                </mxCell>
                <mxCell id="gMgD0mbZSNUp6V09s_ka-47" value="" style="endArrow=classic;html=1;" parent="gMgD0mbZSNUp6V09s_ka-98" source="gMgD0mbZSNUp6V09s_ka-45" edge="1">
                    <mxGeometry relative="1" as="geometry">
                        <mxPoint x="-1540" y="800" as="sourcePoint"/>
                        <mxPoint x="200" y="700" as="targetPoint"/>
                    </mxGeometry>
                </mxCell>
                <mxCell id="gMgD0mbZSNUp6V09s_ka-48" value="" style="shape=message;html=1;outlineConnect=0;container=0;" parent="gMgD0mbZSNUp6V09s_ka-47" vertex="1">
                    <mxGeometry width="20" height="14" relative="1" as="geometry">
                        <mxPoint x="-10" y="-7" as="offset"/>
                    </mxGeometry>
                </mxCell>
                <mxCell id="gMgD0mbZSNUp6V09s_ka-49" value="" style="endArrow=classic;html=1;" parent="gMgD0mbZSNUp6V09s_ka-98" source="gMgD0mbZSNUp6V09s_ka-46" edge="1">
                    <mxGeometry relative="1" as="geometry">
                        <mxPoint x="-1600" y="860" as="sourcePoint"/>
                        <mxPoint x="560" y="740" as="targetPoint"/>
                    </mxGeometry>
                </mxCell>
                <mxCell id="gMgD0mbZSNUp6V09s_ka-50" value="" style="shape=message;html=1;outlineConnect=0;container=0;" parent="gMgD0mbZSNUp6V09s_ka-49" vertex="1">
                    <mxGeometry width="20" height="14" relative="1" as="geometry">
                        <mxPoint x="-10" y="-7" as="offset"/>
                    </mxGeometry>
                </mxCell>
                <mxCell id="gMgD0mbZSNUp6V09s_ka-51" value="" style="shape=curlyBracket;whiteSpace=wrap;html=1;rounded=1;flipH=1;labelPosition=right;verticalLabelPosition=middle;align=left;verticalAlign=middle;" parent="gMgD0mbZSNUp6V09s_ka-98" vertex="1">
                    <mxGeometry x="720" y="560" width="40" height="200" as="geometry"/>
                </mxCell>
                <mxCell id="gMgD0mbZSNUp6V09s_ka-52" value="获取Collection Event定义，是否启用通常是通过ID=2029的SV定义获取" style="rounded=1;whiteSpace=wrap;html=1;fontFamily=Comic Sans MS;fillColor=#f5f5f5;fontColor=#333333;strokeColor=#666666;fontSize=16;" parent="gMgD0mbZSNUp6V09s_ka-98" vertex="1">
                    <mxGeometry x="760" y="620" width="280" height="80" as="geometry"/>
                </mxCell>
                <mxCell id="gMgD0mbZSNUp6V09s_ka-53" value="S1F11" style="rounded=1;whiteSpace=wrap;html=1;fontFamily=Comic Sans MS;fillColor=#f5f5f5;fontColor=#333333;strokeColor=#666666;fontSize=16;container=0;" parent="gMgD0mbZSNUp6V09s_ka-98" vertex="1">
                    <mxGeometry x="560" y="800" width="120" height="40" as="geometry"/>
                </mxCell>
                <mxCell id="gMgD0mbZSNUp6V09s_ka-54" value="S1F12" style="rounded=1;whiteSpace=wrap;html=1;fontFamily=Comic Sans MS;fillColor=#f5f5f5;fontColor=#333333;strokeColor=#666666;fontSize=16;container=0;" parent="gMgD0mbZSNUp6V09s_ka-98" vertex="1">
                    <mxGeometry x="80" y="840" width="120" height="40" as="geometry"/>
                </mxCell>
                <mxCell id="gMgD0mbZSNUp6V09s_ka-55" value="" style="endArrow=classic;html=1;" parent="gMgD0mbZSNUp6V09s_ka-98" source="gMgD0mbZSNUp6V09s_ka-53" edge="1">
                    <mxGeometry relative="1" as="geometry">
                        <mxPoint x="-1540" y="920" as="sourcePoint"/>
                        <mxPoint x="200" y="820" as="targetPoint"/>
                    </mxGeometry>
                </mxCell>
                <mxCell id="gMgD0mbZSNUp6V09s_ka-56" value="" style="shape=message;html=1;outlineConnect=0;container=0;" parent="gMgD0mbZSNUp6V09s_ka-55" vertex="1">
                    <mxGeometry width="20" height="14" relative="1" as="geometry">
                        <mxPoint x="-10" y="-7" as="offset"/>
                    </mxGeometry>
                </mxCell>
                <mxCell id="gMgD0mbZSNUp6V09s_ka-57" value="" style="endArrow=classic;html=1;" parent="gMgD0mbZSNUp6V09s_ka-98" source="gMgD0mbZSNUp6V09s_ka-54" edge="1">
                    <mxGeometry relative="1" as="geometry">
                        <mxPoint x="-1600" y="980" as="sourcePoint"/>
                        <mxPoint x="560" y="860" as="targetPoint"/>
                    </mxGeometry>
                </mxCell>
                <mxCell id="gMgD0mbZSNUp6V09s_ka-58" value="" style="shape=message;html=1;outlineConnect=0;container=0;" parent="gMgD0mbZSNUp6V09s_ka-57" vertex="1">
                    <mxGeometry width="20" height="14" relative="1" as="geometry">
                        <mxPoint x="-10" y="-7" as="offset"/>
                    </mxGeometry>
                </mxCell>
                <mxCell id="gMgD0mbZSNUp6V09s_ka-59" value="S1F3" style="rounded=1;whiteSpace=wrap;html=1;fontFamily=Comic Sans MS;fillColor=#f5f5f5;fontColor=#333333;strokeColor=#666666;fontSize=16;container=0;" parent="gMgD0mbZSNUp6V09s_ka-98" vertex="1">
                    <mxGeometry x="560" y="920" width="120" height="40" as="geometry"/>
                </mxCell>
                <mxCell id="gMgD0mbZSNUp6V09s_ka-60" value="S1F4" style="rounded=1;whiteSpace=wrap;html=1;fontFamily=Comic Sans MS;fillColor=#f5f5f5;fontColor=#333333;strokeColor=#666666;fontSize=16;container=0;" parent="gMgD0mbZSNUp6V09s_ka-98" vertex="1">
                    <mxGeometry x="80" y="960" width="120" height="40" as="geometry"/>
                </mxCell>
                <mxCell id="gMgD0mbZSNUp6V09s_ka-61" value="" style="endArrow=classic;html=1;" parent="gMgD0mbZSNUp6V09s_ka-98" source="gMgD0mbZSNUp6V09s_ka-59" edge="1">
                    <mxGeometry relative="1" as="geometry">
                        <mxPoint x="-1540" y="1040" as="sourcePoint"/>
                        <mxPoint x="200" y="940" as="targetPoint"/>
                    </mxGeometry>
                </mxCell>
                <mxCell id="gMgD0mbZSNUp6V09s_ka-62" value="" style="shape=message;html=1;outlineConnect=0;container=0;" parent="gMgD0mbZSNUp6V09s_ka-61" vertex="1">
                    <mxGeometry width="20" height="14" relative="1" as="geometry">
                        <mxPoint x="-10" y="-7" as="offset"/>
                    </mxGeometry>
                </mxCell>
                <mxCell id="gMgD0mbZSNUp6V09s_ka-63" value="" style="endArrow=classic;html=1;" parent="gMgD0mbZSNUp6V09s_ka-98" source="gMgD0mbZSNUp6V09s_ka-60" edge="1">
                    <mxGeometry relative="1" as="geometry">
                        <mxPoint x="-1600" y="1100" as="sourcePoint"/>
                        <mxPoint x="560" y="980" as="targetPoint"/>
                    </mxGeometry>
                </mxCell>
                <mxCell id="gMgD0mbZSNUp6V09s_ka-64" value="" style="shape=message;html=1;outlineConnect=0;container=0;" parent="gMgD0mbZSNUp6V09s_ka-63" vertex="1">
                    <mxGeometry width="20" height="14" relative="1" as="geometry">
                        <mxPoint x="-10" y="-7" as="offset"/>
                    </mxGeometry>
                </mxCell>
                <mxCell id="gMgD0mbZSNUp6V09s_ka-65" value="" style="shape=curlyBracket;whiteSpace=wrap;html=1;rounded=1;flipH=1;labelPosition=right;verticalLabelPosition=middle;align=left;verticalAlign=middle;" parent="gMgD0mbZSNUp6V09s_ka-98" vertex="1">
                    <mxGeometry x="720" y="800" width="40" height="200" as="geometry"/>
                </mxCell>
                <mxCell id="gMgD0mbZSNUp6V09s_ka-66" value="获取所有的Status Variable定义和值" style="rounded=1;whiteSpace=wrap;html=1;fontFamily=Comic Sans MS;fillColor=#f5f5f5;fontColor=#333333;strokeColor=#666666;fontSize=16;" parent="gMgD0mbZSNUp6V09s_ka-98" vertex="1">
                    <mxGeometry x="760" y="880" width="280" height="40" as="geometry"/>
                </mxCell>
                <mxCell id="gMgD0mbZSNUp6V09s_ka-67" value="S2F29" style="rounded=1;whiteSpace=wrap;html=1;fontFamily=Comic Sans MS;fillColor=#f5f5f5;fontColor=#333333;strokeColor=#666666;fontSize=16;container=0;" parent="gMgD0mbZSNUp6V09s_ka-98" vertex="1">
                    <mxGeometry x="560" y="1040" width="120" height="40" as="geometry"/>
                </mxCell>
                <mxCell id="gMgD0mbZSNUp6V09s_ka-68" value="S2F30" style="rounded=1;whiteSpace=wrap;html=1;fontFamily=Comic Sans MS;fillColor=#f5f5f5;fontColor=#333333;strokeColor=#666666;fontSize=16;container=0;" parent="gMgD0mbZSNUp6V09s_ka-98" vertex="1">
                    <mxGeometry x="80" y="1080" width="120" height="40" as="geometry"/>
                </mxCell>
                <mxCell id="gMgD0mbZSNUp6V09s_ka-69" value="" style="endArrow=classic;html=1;" parent="gMgD0mbZSNUp6V09s_ka-98" source="gMgD0mbZSNUp6V09s_ka-67" edge="1">
                    <mxGeometry relative="1" as="geometry">
                        <mxPoint x="-1540" y="1160" as="sourcePoint"/>
                        <mxPoint x="200" y="1060" as="targetPoint"/>
                    </mxGeometry>
                </mxCell>
                <mxCell id="gMgD0mbZSNUp6V09s_ka-70" value="" style="shape=message;html=1;outlineConnect=0;container=0;" parent="gMgD0mbZSNUp6V09s_ka-69" vertex="1">
                    <mxGeometry width="20" height="14" relative="1" as="geometry">
                        <mxPoint x="-10" y="-7" as="offset"/>
                    </mxGeometry>
                </mxCell>
                <mxCell id="gMgD0mbZSNUp6V09s_ka-71" value="" style="endArrow=classic;html=1;" parent="gMgD0mbZSNUp6V09s_ka-98" source="gMgD0mbZSNUp6V09s_ka-68" edge="1">
                    <mxGeometry relative="1" as="geometry">
                        <mxPoint x="-1600" y="1220" as="sourcePoint"/>
                        <mxPoint x="560" y="1100" as="targetPoint"/>
                    </mxGeometry>
                </mxCell>
                <mxCell id="gMgD0mbZSNUp6V09s_ka-72" value="" style="shape=message;html=1;outlineConnect=0;container=0;" parent="gMgD0mbZSNUp6V09s_ka-71" vertex="1">
                    <mxGeometry width="20" height="14" relative="1" as="geometry">
                        <mxPoint x="-10" y="-7" as="offset"/>
                    </mxGeometry>
                </mxCell>
                <mxCell id="gMgD0mbZSNUp6V09s_ka-73" value="S2F13" style="rounded=1;whiteSpace=wrap;html=1;fontFamily=Comic Sans MS;fillColor=#f5f5f5;fontColor=#333333;strokeColor=#666666;fontSize=16;container=0;" parent="gMgD0mbZSNUp6V09s_ka-98" vertex="1">
                    <mxGeometry x="560" y="1160" width="120" height="40" as="geometry"/>
                </mxCell>
                <mxCell id="gMgD0mbZSNUp6V09s_ka-74" value="S2F14" style="rounded=1;whiteSpace=wrap;html=1;fontFamily=Comic Sans MS;fillColor=#f5f5f5;fontColor=#333333;strokeColor=#666666;fontSize=16;container=0;" parent="gMgD0mbZSNUp6V09s_ka-98" vertex="1">
                    <mxGeometry x="80" y="1200" width="120" height="40" as="geometry"/>
                </mxCell>
                <mxCell id="gMgD0mbZSNUp6V09s_ka-75" value="" style="endArrow=classic;html=1;" parent="gMgD0mbZSNUp6V09s_ka-98" source="gMgD0mbZSNUp6V09s_ka-73" edge="1">
                    <mxGeometry relative="1" as="geometry">
                        <mxPoint x="-1540" y="1280" as="sourcePoint"/>
                        <mxPoint x="200" y="1180" as="targetPoint"/>
                    </mxGeometry>
                </mxCell>
                <mxCell id="gMgD0mbZSNUp6V09s_ka-76" value="" style="shape=message;html=1;outlineConnect=0;container=0;" parent="gMgD0mbZSNUp6V09s_ka-75" vertex="1">
                    <mxGeometry width="20" height="14" relative="1" as="geometry">
                        <mxPoint x="-10" y="-7" as="offset"/>
                    </mxGeometry>
                </mxCell>
                <mxCell id="gMgD0mbZSNUp6V09s_ka-77" value="" style="endArrow=classic;html=1;" parent="gMgD0mbZSNUp6V09s_ka-98" source="gMgD0mbZSNUp6V09s_ka-74" edge="1">
                    <mxGeometry relative="1" as="geometry">
                        <mxPoint x="-1600" y="1340" as="sourcePoint"/>
                        <mxPoint x="560" y="1220" as="targetPoint"/>
                    </mxGeometry>
                </mxCell>
                <mxCell id="gMgD0mbZSNUp6V09s_ka-78" value="" style="shape=message;html=1;outlineConnect=0;container=0;" parent="gMgD0mbZSNUp6V09s_ka-77" vertex="1">
                    <mxGeometry width="20" height="14" relative="1" as="geometry">
                        <mxPoint x="-10" y="-7" as="offset"/>
                    </mxGeometry>
                </mxCell>
                <mxCell id="gMgD0mbZSNUp6V09s_ka-79" value="" style="shape=curlyBracket;whiteSpace=wrap;html=1;rounded=1;flipH=1;labelPosition=right;verticalLabelPosition=middle;align=left;verticalAlign=middle;" parent="gMgD0mbZSNUp6V09s_ka-98" vertex="1">
                    <mxGeometry x="720" y="1040" width="40" height="200" as="geometry"/>
                </mxCell>
                <mxCell id="gMgD0mbZSNUp6V09s_ka-80" value="获取所有的Equipment Constant定义和值" style="rounded=1;whiteSpace=wrap;html=1;fontFamily=Comic Sans MS;fillColor=#f5f5f5;fontColor=#333333;strokeColor=#666666;fontSize=16;" parent="gMgD0mbZSNUp6V09s_ka-98" vertex="1">
                    <mxGeometry x="760" y="1120" width="320" height="40" as="geometry"/>
                </mxCell>
                <mxCell id="gMgD0mbZSNUp6V09s_ka-81" value="S1F21" style="rounded=1;whiteSpace=wrap;html=1;fontFamily=Comic Sans MS;fillColor=#f5f5f5;fontColor=#333333;strokeColor=#666666;fontSize=16;container=0;" parent="gMgD0mbZSNUp6V09s_ka-98" vertex="1">
                    <mxGeometry x="560" y="1280" width="120" height="40" as="geometry"/>
                </mxCell>
                <mxCell id="gMgD0mbZSNUp6V09s_ka-82" value="S1F22" style="rounded=1;whiteSpace=wrap;html=1;fontFamily=Comic Sans MS;fillColor=#f5f5f5;fontColor=#333333;strokeColor=#666666;fontSize=16;container=0;" parent="gMgD0mbZSNUp6V09s_ka-98" vertex="1">
                    <mxGeometry x="80" y="1320" width="120" height="40" as="geometry"/>
                </mxCell>
                <mxCell id="gMgD0mbZSNUp6V09s_ka-83" value="" style="endArrow=classic;html=1;" parent="gMgD0mbZSNUp6V09s_ka-98" source="gMgD0mbZSNUp6V09s_ka-81" edge="1">
                    <mxGeometry relative="1" as="geometry">
                        <mxPoint x="-1540" y="1400" as="sourcePoint"/>
                        <mxPoint x="200" y="1300" as="targetPoint"/>
                    </mxGeometry>
                </mxCell>
                <mxCell id="gMgD0mbZSNUp6V09s_ka-84" value="" style="shape=message;html=1;outlineConnect=0;container=0;" parent="gMgD0mbZSNUp6V09s_ka-83" vertex="1">
                    <mxGeometry width="20" height="14" relative="1" as="geometry">
                        <mxPoint x="-10" y="-7" as="offset"/>
                    </mxGeometry>
                </mxCell>
                <mxCell id="gMgD0mbZSNUp6V09s_ka-85" value="" style="endArrow=classic;html=1;" parent="gMgD0mbZSNUp6V09s_ka-98" source="gMgD0mbZSNUp6V09s_ka-82" edge="1">
                    <mxGeometry relative="1" as="geometry">
                        <mxPoint x="-1600" y="1460" as="sourcePoint"/>
                        <mxPoint x="560" y="1340" as="targetPoint"/>
                    </mxGeometry>
                </mxCell>
                <mxCell id="gMgD0mbZSNUp6V09s_ka-86" value="" style="shape=message;html=1;outlineConnect=0;container=0;" parent="gMgD0mbZSNUp6V09s_ka-85" vertex="1">
                    <mxGeometry width="20" height="14" relative="1" as="geometry">
                        <mxPoint x="-10" y="-7" as="offset"/>
                    </mxGeometry>
                </mxCell>
                <mxCell id="gMgD0mbZSNUp6V09s_ka-87" value="S7F19" style="rounded=1;whiteSpace=wrap;html=1;fontFamily=Comic Sans MS;fillColor=#f5f5f5;fontColor=#333333;strokeColor=#666666;fontSize=16;container=0;" parent="gMgD0mbZSNUp6V09s_ka-98" vertex="1">
                    <mxGeometry x="560" y="1400" width="120" height="40" as="geometry"/>
                </mxCell>
                <mxCell id="gMgD0mbZSNUp6V09s_ka-88" value="S7F20" style="rounded=1;whiteSpace=wrap;html=1;fontFamily=Comic Sans MS;fillColor=#f5f5f5;fontColor=#333333;strokeColor=#666666;fontSize=16;container=0;" parent="gMgD0mbZSNUp6V09s_ka-98" vertex="1">
                    <mxGeometry x="80" y="1440" width="120" height="40" as="geometry"/>
                </mxCell>
                <mxCell id="gMgD0mbZSNUp6V09s_ka-89" value="" style="endArrow=classic;html=1;" parent="gMgD0mbZSNUp6V09s_ka-98" source="gMgD0mbZSNUp6V09s_ka-87" edge="1">
                    <mxGeometry relative="1" as="geometry">
                        <mxPoint x="-1540" y="1520" as="sourcePoint"/>
                        <mxPoint x="200" y="1420" as="targetPoint"/>
                    </mxGeometry>
                </mxCell>
                <mxCell id="gMgD0mbZSNUp6V09s_ka-90" value="" style="shape=message;html=1;outlineConnect=0;container=0;" parent="gMgD0mbZSNUp6V09s_ka-89" vertex="1">
                    <mxGeometry width="20" height="14" relative="1" as="geometry">
                        <mxPoint x="-10" y="-7" as="offset"/>
                    </mxGeometry>
                </mxCell>
                <mxCell id="gMgD0mbZSNUp6V09s_ka-91" value="" style="endArrow=classic;html=1;" parent="gMgD0mbZSNUp6V09s_ka-98" source="gMgD0mbZSNUp6V09s_ka-88" edge="1">
                    <mxGeometry relative="1" as="geometry">
                        <mxPoint x="-1600" y="1580" as="sourcePoint"/>
                        <mxPoint x="560" y="1460" as="targetPoint"/>
                    </mxGeometry>
                </mxCell>
                <mxCell id="gMgD0mbZSNUp6V09s_ka-92" value="" style="shape=message;html=1;outlineConnect=0;container=0;" parent="gMgD0mbZSNUp6V09s_ka-91" vertex="1">
                    <mxGeometry width="20" height="14" relative="1" as="geometry">
                        <mxPoint x="-10" y="-7" as="offset"/>
                    </mxGeometry>
                </mxCell>
                <mxCell id="gMgD0mbZSNUp6V09s_ka-93" value="" style="shape=curlyBracket;whiteSpace=wrap;html=1;rounded=1;flipH=1;labelPosition=right;verticalLabelPosition=middle;align=left;verticalAlign=middle;" parent="gMgD0mbZSNUp6V09s_ka-98" vertex="1">
                    <mxGeometry x="720" y="1280" width="40" height="80" as="geometry"/>
                </mxCell>
                <mxCell id="gMgD0mbZSNUp6V09s_ka-94" value="获取所有的Data Variable定义" style="rounded=1;whiteSpace=wrap;html=1;fontFamily=Comic Sans MS;fillColor=#f5f5f5;fontColor=#333333;strokeColor=#666666;fontSize=16;" parent="gMgD0mbZSNUp6V09s_ka-98" vertex="1">
                    <mxGeometry x="760" y="1300" width="320" height="40" as="geometry"/>
                </mxCell>
                <mxCell id="gMgD0mbZSNUp6V09s_ka-95" value="" style="shape=curlyBracket;whiteSpace=wrap;html=1;rounded=1;flipH=1;labelPosition=right;verticalLabelPosition=middle;align=left;verticalAlign=middle;" parent="gMgD0mbZSNUp6V09s_ka-98" vertex="1">
                    <mxGeometry x="720" y="1400" width="40" height="80" as="geometry"/>
                </mxCell>
                <mxCell id="gMgD0mbZSNUp6V09s_ka-96" value="获取所有的Recipe名称&amp;nbsp;" style="rounded=1;whiteSpace=wrap;html=1;fontFamily=Comic Sans MS;fillColor=#f5f5f5;fontColor=#333333;strokeColor=#666666;fontSize=16;" parent="gMgD0mbZSNUp6V09s_ka-98" vertex="1">
                    <mxGeometry x="760" y="1420" width="320" height="40" as="geometry"/>
                </mxCell>
            </root>
        </mxGraphModel>
    </diagram>
    <diagram id="-vGl3Nw6_VDRflxqo71Y" name="触发Collection Event">
        <mxGraphModel dx="1780" dy="1335" grid="1" gridSize="10" guides="1" tooltips="1" connect="1" arrows="1" fold="1" page="1" pageScale="1" pageWidth="827" pageHeight="1169" math="0" shadow="0">
            <root>
                <mxCell id="0"/>
                <mxCell id="1" parent="0"/>
                <mxCell id="OPaL9_8F24FHqsqRzrl_-10" style="edgeStyle=none;html=1;" parent="1" source="OPaL9_8F24FHqsqRzrl_-1" target="OPaL9_8F24FHqsqRzrl_-2" edge="1">
                    <mxGeometry relative="1" as="geometry"/>
                </mxCell>
                <mxCell id="OPaL9_8F24FHqsqRzrl_-1" value="通过S6F11发送对应的Event内容" style="rounded=1;whiteSpace=wrap;html=1;fontFamily=Comic Sans MS;fillColor=#f5f5f5;fontColor=#333333;strokeColor=#666666;fontSize=16;" parent="1" vertex="1">
                    <mxGeometry x="80" y="80" width="440" height="40" as="geometry"/>
                </mxCell>
                <mxCell id="OPaL9_8F24FHqsqRzrl_-11" style="edgeStyle=none;html=1;" parent="1" source="OPaL9_8F24FHqsqRzrl_-2" target="OPaL9_8F24FHqsqRzrl_-3" edge="1">
                    <mxGeometry relative="1" as="geometry"/>
                </mxCell>
                <mxCell id="OPaL9_8F24FHqsqRzrl_-2" value="将该S6F11的SystemID加入到倒计时列表中" style="rounded=1;whiteSpace=wrap;html=1;fontFamily=Comic Sans MS;fillColor=#f5f5f5;fontColor=#333333;strokeColor=#666666;fontSize=16;" parent="1" vertex="1">
                    <mxGeometry x="80" y="200" width="440" height="40" as="geometry"/>
                </mxCell>
                <mxCell id="OPaL9_8F24FHqsqRzrl_-12" style="edgeStyle=none;html=1;" parent="1" source="OPaL9_8F24FHqsqRzrl_-3" target="OPaL9_8F24FHqsqRzrl_-7" edge="1">
                    <mxGeometry relative="1" as="geometry"/>
                </mxCell>
                <mxCell id="OPaL9_8F24FHqsqRzrl_-3" value="接收Host发来的S1F12，并解析内容" style="rounded=1;whiteSpace=wrap;html=1;fontFamily=Comic Sans MS;fillColor=#f5f5f5;fontColor=#333333;strokeColor=#666666;fontSize=16;" parent="1" vertex="1">
                    <mxGeometry x="80" y="320" width="440" height="40" as="geometry"/>
                </mxCell>
                <mxCell id="OPaL9_8F24FHqsqRzrl_-9" value="" style="edgeStyle=none;html=1;" parent="1" source="OPaL9_8F24FHqsqRzrl_-7" target="OPaL9_8F24FHqsqRzrl_-8" edge="1">
                    <mxGeometry relative="1" as="geometry"/>
                </mxCell>
                <mxCell id="OPaL9_8F24FHqsqRzrl_-7" value="结束SystemID的倒计时" style="rounded=1;whiteSpace=wrap;html=1;fontFamily=Comic Sans MS;fillColor=#f5f5f5;fontColor=#333333;strokeColor=#666666;fontSize=16;" parent="1" vertex="1">
                    <mxGeometry x="80" y="440" width="440" height="40" as="geometry"/>
                </mxCell>
                <mxCell id="OPaL9_8F24FHqsqRzrl_-8" value="将SystemID的倒计时移出倒计时列表" style="rounded=1;whiteSpace=wrap;html=1;fontFamily=Comic Sans MS;fillColor=#f5f5f5;fontColor=#333333;strokeColor=#666666;fontSize=16;" parent="1" vertex="1">
                    <mxGeometry x="80" y="560" width="440" height="40" as="geometry"/>
                </mxCell>
            </root>
        </mxGraphModel>
    </diagram>
    <diagram id="IhNd9Z4tZy5vA3K7Hn0F" name="Secs消息的接收和发送">
        <mxGraphModel dx="1512" dy="934" grid="1" gridSize="10" guides="1" tooltips="1" connect="1" arrows="1" fold="1" page="0" pageScale="1" pageWidth="827" pageHeight="1169" math="0" shadow="0">
            <root>
                <mxCell id="0"/>
                <mxCell id="1" parent="0"/>
                <mxCell id="EoBwCCcjt6COUxBfal-C-3" value="" style="edgeStyle=none;html=1;" parent="1" source="EoBwCCcjt6COUxBfal-C-1" target="EoBwCCcjt6COUxBfal-C-2" edge="1">
                    <mxGeometry relative="1" as="geometry"/>
                </mxCell>
                <mxCell id="EoBwCCcjt6COUxBfal-C-1" value="ReceiveCallBack" style="rounded=1;whiteSpace=wrap;html=1;fontFamily=Comic Sans MS;fillColor=#f5f5f5;fontColor=#333333;strokeColor=#666666;fontSize=16;" parent="1" vertex="1">
                    <mxGeometry x="-320" y="-280" width="240" height="40" as="geometry"/>
                </mxCell>
                <mxCell id="EoBwCCcjt6COUxBfal-C-5" value="" style="edgeStyle=elbowEdgeStyle;html=1;elbow=vertical;" parent="1" source="EoBwCCcjt6COUxBfal-C-2" target="EoBwCCcjt6COUxBfal-C-4" edge="1">
                    <mxGeometry relative="1" as="geometry"/>
                </mxCell>
                <mxCell id="EoBwCCcjt6COUxBfal-C-2" value="Interpret_ReceviceMessage" style="rounded=1;whiteSpace=wrap;html=1;fontFamily=Comic Sans MS;fillColor=#f5f5f5;fontColor=#333333;strokeColor=#666666;fontSize=16;" parent="1" vertex="1">
                    <mxGeometry x="-320" y="-160" width="240" height="40" as="geometry"/>
                </mxCell>
                <mxCell id="EoBwCCcjt6COUxBfal-C-7" value="" style="edgeStyle=elbowEdgeStyle;elbow=vertical;html=1;" parent="1" source="EoBwCCcjt6COUxBfal-C-4" target="EoBwCCcjt6COUxBfal-C-6" edge="1">
                    <mxGeometry relative="1" as="geometry"/>
                </mxCell>
                <mxCell id="EoBwCCcjt6COUxBfal-C-9" style="edgeStyle=elbowEdgeStyle;elbow=vertical;html=1;" parent="1" source="EoBwCCcjt6COUxBfal-C-4" target="EoBwCCcjt6COUxBfal-C-8" edge="1">
                    <mxGeometry relative="1" as="geometry"/>
                </mxCell>
                <mxCell id="EoBwCCcjt6COUxBfal-C-4" value="Response_DataMessgae" style="rounded=1;whiteSpace=wrap;html=1;fontFamily=Comic Sans MS;fillColor=#f5f5f5;fontColor=#333333;strokeColor=#666666;fontSize=16;" parent="1" vertex="1">
                    <mxGeometry x="-320" y="-40" width="240" height="40" as="geometry"/>
                </mxCell>
                <mxCell id="EoBwCCcjt6COUxBfal-C-12" value="" style="edgeStyle=elbowEdgeStyle;elbow=vertical;html=1;" parent="1" source="EoBwCCcjt6COUxBfal-C-6" target="EoBwCCcjt6COUxBfal-C-11" edge="1">
                    <mxGeometry relative="1" as="geometry"/>
                </mxCell>
                <mxCell id="EoBwCCcjt6COUxBfal-C-6" value="主消息" style="rounded=1;whiteSpace=wrap;html=1;fontFamily=Comic Sans MS;fillColor=#f5f5f5;fontColor=#333333;strokeColor=#666666;fontSize=16;" parent="1" vertex="1">
                    <mxGeometry x="-480" y="80" width="160" height="40" as="geometry"/>
                </mxCell>
                <mxCell id="EoBwCCcjt6COUxBfal-C-16" value="" style="edgeStyle=elbowEdgeStyle;elbow=vertical;html=1;" parent="1" source="EoBwCCcjt6COUxBfal-C-8" target="EoBwCCcjt6COUxBfal-C-15" edge="1">
                    <mxGeometry relative="1" as="geometry"/>
                </mxCell>
                <mxCell id="EoBwCCcjt6COUxBfal-C-8" value="次消息" style="rounded=1;whiteSpace=wrap;html=1;fontFamily=Comic Sans MS;fillColor=#f5f5f5;fontColor=#333333;strokeColor=#666666;fontSize=16;" parent="1" vertex="1">
                    <mxGeometry x="-80" y="80" width="160" height="40" as="geometry"/>
                </mxCell>
                <mxCell id="EoBwCCcjt6COUxBfal-C-14" value="" style="edgeStyle=elbowEdgeStyle;elbow=vertical;html=1;" parent="1" source="EoBwCCcjt6COUxBfal-C-11" target="EoBwCCcjt6COUxBfal-C-13" edge="1">
                    <mxGeometry relative="1" as="geometry"/>
                </mxCell>
                <mxCell id="EoBwCCcjt6COUxBfal-C-11" value="更新SystemID" style="rounded=1;whiteSpace=wrap;html=1;fontFamily=Comic Sans MS;fillColor=#f5f5f5;fontColor=#333333;strokeColor=#666666;fontSize=16;" parent="1" vertex="1">
                    <mxGeometry x="-480" y="200" width="160" height="40" as="geometry"/>
                </mxCell>
                <mxCell id="EoBwCCcjt6COUxBfal-C-13" value="回复对应的次消息Action_SecondaryFunction" style="rounded=1;whiteSpace=wrap;html=1;fontFamily=Comic Sans MS;fillColor=#f5f5f5;fontColor=#333333;strokeColor=#666666;fontSize=16;" parent="1" vertex="1">
                    <mxGeometry x="-520" y="320" width="240" height="80" as="geometry"/>
                </mxCell>
                <mxCell id="EoBwCCcjt6COUxBfal-C-18" value="" style="edgeStyle=elbowEdgeStyle;elbow=vertical;html=1;" parent="1" source="EoBwCCcjt6COUxBfal-C-15" target="EoBwCCcjt6COUxBfal-C-17" edge="1">
                    <mxGeometry relative="1" as="geometry"/>
                </mxCell>
                <mxCell id="EoBwCCcjt6COUxBfal-C-15" value="等待列表中包含该SystemID，且还没结束" style="rounded=1;whiteSpace=wrap;html=1;fontFamily=Comic Sans MS;fillColor=#f5f5f5;fontColor=#333333;strokeColor=#666666;fontSize=16;" parent="1" vertex="1">
                    <mxGeometry x="-180" y="200" width="360" height="40" as="geometry"/>
                </mxCell>
                <mxCell id="EoBwCCcjt6COUxBfal-C-17" value="解析次消息的内容Interpret_MessageText，结束倒计时" style="rounded=1;whiteSpace=wrap;html=1;fontFamily=Comic Sans MS;fillColor=#f5f5f5;fontColor=#333333;strokeColor=#666666;fontSize=16;" parent="1" vertex="1">
                    <mxGeometry x="-150" y="320" width="300" height="80" as="geometry"/>
                </mxCell>
                <mxCell id="P8ijJ8tCMDbp7LvCZwCj-1" value="Interpret_MessageText" style="rounded=1;whiteSpace=wrap;html=1;fontFamily=Comic Sans MS;fillColor=#f5f5f5;fontColor=#333333;strokeColor=#666666;fontSize=16;" parent="1" vertex="1">
                    <mxGeometry x="760" y="-200" width="240" height="40" as="geometry"/>
                </mxCell>
            </root>
        </mxGraphModel>
    </diagram>
    <diagram id="3C1rL6lBb-yfLwp9pOex" name="通富微电初始化">
        <mxGraphModel dx="1112" dy="934" grid="1" gridSize="10" guides="1" tooltips="1" connect="1" arrows="1" fold="1" page="0" pageScale="1" pageWidth="827" pageHeight="1169" math="0" shadow="0">
            <root>
                <mxCell id="0"/>
                <mxCell id="1" parent="0"/>
                <mxCell id="Ieg8kqDUGsZDmDV2eo4z-1" value="S2F35" style="rounded=1;whiteSpace=wrap;html=1;fontFamily=Comic Sans MS;fillColor=#f5f5f5;fontColor=#333333;strokeColor=#666666;fontSize=16;" parent="1" vertex="1">
                    <mxGeometry x="200" y="-40" width="120" height="40" as="geometry"/>
                </mxCell>
                <mxCell id="Ieg8kqDUGsZDmDV2eo4z-2" value="S1F14" style="rounded=1;whiteSpace=wrap;html=1;fontFamily=Comic Sans MS;fillColor=#f5f5f5;fontColor=#333333;strokeColor=#666666;fontSize=16;" parent="1" vertex="1">
                    <mxGeometry x="-40" y="-120" width="120" height="40" as="geometry"/>
                </mxCell>
                <mxCell id="Ieg8kqDUGsZDmDV2eo4z-3" value="S1F13" style="rounded=1;whiteSpace=wrap;html=1;fontFamily=Comic Sans MS;fillColor=#f5f5f5;fontColor=#333333;strokeColor=#666666;fontSize=16;" parent="1" vertex="1">
                    <mxGeometry x="210" y="-150" width="120" height="40" as="geometry"/>
                </mxCell>
                <mxCell id="Ieg8kqDUGsZDmDV2eo4z-4" value="Unlink All" style="text;html=1;strokeColor=none;fillColor=none;align=center;verticalAlign=middle;whiteSpace=wrap;rounded=0;" parent="1" vertex="1">
                    <mxGeometry x="360" y="-40" width="80" height="40" as="geometry"/>
                </mxCell>
                <mxCell id="Ieg8kqDUGsZDmDV2eo4z-5" value="S2F33" style="rounded=1;whiteSpace=wrap;html=1;fontFamily=Comic Sans MS;fillColor=#f5f5f5;fontColor=#333333;strokeColor=#666666;fontSize=16;" parent="1" vertex="1">
                    <mxGeometry x="200" y="80" width="120" height="40" as="geometry"/>
                </mxCell>
                <mxCell id="Ieg8kqDUGsZDmDV2eo4z-6" value="Undefine All" style="text;html=1;strokeColor=none;fillColor=none;align=center;verticalAlign=middle;whiteSpace=wrap;rounded=0;" parent="1" vertex="1">
                    <mxGeometry x="360" y="80" width="80" height="40" as="geometry"/>
                </mxCell>
                <mxCell id="Ieg8kqDUGsZDmDV2eo4z-7" value="S2F33" style="rounded=1;whiteSpace=wrap;html=1;fontFamily=Comic Sans MS;fillColor=#f5f5f5;fontColor=#333333;strokeColor=#666666;fontSize=16;" parent="1" vertex="1">
                    <mxGeometry x="200" y="160" width="120" height="40" as="geometry"/>
                </mxCell>
                <mxCell id="Ieg8kqDUGsZDmDV2eo4z-10" value="Define All" style="rounded=1;whiteSpace=wrap;html=1;fontFamily=Comic Sans MS;fillColor=#f5f5f5;fontColor=#333333;strokeColor=#666666;fontSize=16;" parent="1" vertex="1">
                    <mxGeometry x="360" y="160" width="120" height="40" as="geometry"/>
                </mxCell>
                <mxCell id="Ieg8kqDUGsZDmDV2eo4z-11" value="S2F37" style="rounded=1;whiteSpace=wrap;html=1;fontFamily=Comic Sans MS;fillColor=#f5f5f5;fontColor=#333333;strokeColor=#666666;fontSize=16;" parent="1" vertex="1">
                    <mxGeometry x="200" y="320" width="120" height="40" as="geometry"/>
                </mxCell>
                <mxCell id="Ieg8kqDUGsZDmDV2eo4z-12" value="Link CEID" style="rounded=1;whiteSpace=wrap;html=1;fontFamily=Comic Sans MS;fillColor=#f5f5f5;fontColor=#333333;strokeColor=#666666;fontSize=16;" parent="1" vertex="1">
                    <mxGeometry x="360" y="240" width="120" height="40" as="geometry"/>
                </mxCell>
                <mxCell id="Ieg8kqDUGsZDmDV2eo4z-13" value="S2F35" style="rounded=1;whiteSpace=wrap;html=1;fontFamily=Comic Sans MS;fillColor=#f5f5f5;fontColor=#333333;strokeColor=#666666;fontSize=16;" parent="1" vertex="1">
                    <mxGeometry x="200" y="240" width="120" height="40" as="geometry"/>
                </mxCell>
                <mxCell id="Ieg8kqDUGsZDmDV2eo4z-14" value="Enable All" style="rounded=1;whiteSpace=wrap;html=1;fontFamily=Comic Sans MS;fillColor=#f5f5f5;fontColor=#333333;strokeColor=#666666;fontSize=16;" parent="1" vertex="1">
                    <mxGeometry x="360" y="320" width="120" height="40" as="geometry"/>
                </mxCell>
                <mxCell id="Ieg8kqDUGsZDmDV2eo4z-15" value="S2F15" style="rounded=1;whiteSpace=wrap;html=1;fontFamily=Comic Sans MS;fillColor=#f5f5f5;fontColor=#333333;strokeColor=#666666;fontSize=16;" parent="1" vertex="1">
                    <mxGeometry x="200" y="400" width="120" height="40" as="geometry"/>
                </mxCell>
            </root>
        </mxGraphModel>
    </diagram>
</mxfile>